<svg xmlns="http://www.w3.org/2000/svg" width="24" height="24"><desc>Email Mail Chat Streamline Icon: https://streamlinehq.com</desc><path d="M16.575 11.43v1.14h-2.287v1.148H7.433v1.14h3.427v1.14H12v1.147h1.148v1.14h4.567v1.14h1.148v1.148h1.14v1.14h1.14v-4.568h1.147v-1.147h1.14V11.43h-1.14v-1.147h-1.147v-1.14h-2.28V5.715h-1.148v5.715zM16.575 4.568h1.14v1.147h-1.14Z"/><path d="M13.148 8.002h2.28v2.28h-2.28ZM14.288 3.428h2.287v1.14h-2.287ZM8.573 8.002h2.287v2.28H8.573ZM6.285 14.857h1.148v1.14H6.285ZM5.145 2.287h9.143v1.14H5.145ZM5.145 13.718h-1.14v4.567h1.14v-1.14h1.14v-1.147h-1.14zM4.005 8.002h2.28v2.28h-2.28ZM2.858 3.428h2.287v1.14H2.858ZM2.858 12.57h1.147v1.148H2.858ZM1.718 11.43h1.14v1.14h-1.14ZM1.718 4.568h1.14v1.147h-1.14ZM.57 5.715h1.148v5.715H.57Z"/></svg>