<svg xmlns="http://www.w3.org/2000/svg" viewBox="0 0 32 32"><desc>Coding Apps Websites Programming Hold Code Streamline Icon: https://streamlinehq.com</desc><path fill="currentColor" d="M30.48 16.005H32v7.62h-1.52Zm-1.53 7.62h1.53v3.04h-1.53Zm0-10.67h1.53v3.05h-1.53Zm-1.52 13.71h1.52v3.05h-1.52Zm0-15.24h1.52v1.53h-1.52Zm-1.53 18.29h1.53v1.52H25.9Zm0-9.14h1.53v3.05H25.9Zm0-4.57h1.53v3.04H25.9Zm0-6.1h1.53v1.52H25.9Zm-1.52 13.72h1.52v1.52h-1.52Zm0-12.2h1.52v4.58h-1.52Zm0-6.09h1.52v1.52h-1.52Zm-1.52 19.81h1.52v1.52h-1.52Zm0-6.1h3.04v1.53h-3.04Zm0-12.19h1.52v1.53h-1.52Zm0-3.04h1.52v1.52h-1.52Zm-1.53 16.76h1.53v1.52h-1.53Zm0-12.19h1.53v1.52h-1.53Zm0-6.1h1.53v1.53h-1.53Zm-1.52 27.43h1.52v1.52h-1.52Zm0-7.62h1.52v1.53h-1.52Zm0-12.19h1.52v1.52h-1.52Zm0-9.14h1.52v1.52h-1.52Zm-1.52 22.86h1.52v6.09h-1.52ZM16.76.765h1.53v3.05h-1.53Zm-1.52 3.05h1.52v4.57h-1.52Zm-1.53 4.57h1.53v3.04h-1.53Zm-1.52 15.24h1.52v6.09h-1.52Zm-1.52 6.09h1.52v1.52h-1.52Zm0-7.62h1.52v1.53h-1.52Zm0-12.19h1.52v1.52h-1.52Zm0-9.14h1.52v1.52h-1.52Zm-1.53 19.81h1.53v1.52H9.14Zm0-12.19h1.53v1.52H9.14Zm0-6.1h1.53v1.53H9.14Zm-1.52 22.86h1.52v1.52H7.62Zm-1.52-6.1h3.04v1.53H6.1Zm1.52-12.19h1.52v1.53H7.62Zm0-3.04h1.52v1.52H7.62ZM6.1 23.625h1.52v1.52H6.1Zm0-12.2h1.52v4.58H6.1Zm0-6.09h1.52v1.52H6.1Zm-1.53 24.38H6.1v1.52H4.57Zm0-9.14H6.1v3.05H4.57Zm0-4.57H6.1v3.04H4.57Zm0-6.1H6.1v1.52H4.57Zm-1.52 16.76h1.52v3.05H3.05Zm0-15.24h1.52v1.53H3.05Zm-1.53 12.2h1.53v3.04H1.52Zm0-10.67h1.53v3.05H1.52ZM0 16.005h1.52v7.62H0Z"/></svg>