<svg xmlns="http://www.w3.org/2000/svg" viewBox="0 0 32 32"><desc>Coding Apps Websites 404 Error Streamline Icon: https://streamlinehq.com</desc><g fill="currentColor"><path d="M30.48 4.575H32v1.52h-1.52Zm0 10.66h-3.05v1.53h1.52v4.57H25.9v-1.52h-1.52v3.04h4.57v4.58h1.53v-4.58H32v-1.52h-1.52zm0-6.09h-1.53v1.52h-1.52v1.53h1.52v1.52h1.53v-1.52H32v-1.53h-1.52z"/><path d="M25.9 16.765h1.53v3.05H25.9Zm-1.52-10.67h1.52v1.53h-1.52Zm-1.52 6.1h1.52v3.04h-1.52Zm-10.67 13.71v-7.62h-1.52v4.57H9.14v1.53H7.62v3.05h1.52v1.52h13.72v-1.52h1.52v-3.05h-1.52v-1.53h-1.53v-4.57h-1.52v7.62zm9.14-10.67h1.53v1.53h-1.53Zm0-4.57h1.53v1.53h-1.53Zm-1.52-7.62h1.52v1.53h-1.52Zm-1.52 13.72h1.52v1.52h-1.52Zm0-6.1h1.52v1.53h-1.52Z"/><path d="M16.76 19.815h1.53v1.52h-1.53Zm-3.05 3.04h4.58v1.53h-4.58Zm0-7.62h4.58v1.53h-4.58Zm0 4.58h1.53v1.52h-1.53Zm0-12.19v1.52h-1.52v1.52h1.52v1.53h1.53v-1.53h1.52v-1.52h-1.52v-1.52zm-1.52 9.14h1.52v1.52h-1.52Zm-3.05-4.57h3.05v1.52H9.14Zm0 3.04h1.53v1.53H9.14Zm0-12.19h1.53v1.53H9.14Zm-1.52 10.67h1.52v1.52H7.62Zm-4.57 1.52v1.53h1.52v4.57H1.52v-1.52H0v3.04h4.57v3.05H6.1v-3.05h1.52v-1.52H6.1v-6.1zm3.05-6.09h1.52v1.52H6.1Z"/><path d="M1.52 16.765h1.53v3.05H1.52Zm0-12.19v1.52H0v1.53h1.52v1.52h1.53v-1.52h1.52v-1.53H3.05v-1.52z"/></g></svg>