<svg xmlns="http://www.w3.org/2000/svg" viewBox="0 0 32 32"><desc>Coding Apps Websites Shield Lock Streamline Icon: https://streamlinehq.com</desc><g fill="currentColor"><path d="M25.91 4.57V6.1h1.52v15.24h1.52V4.57h-1.52V3.05h-3.05v1.52zm0 16.77h1.52v3.04h-1.52Zm-1.53 3.04h1.53v1.53h-1.53Z"/><path d="M24.38 6.1h1.53v15.24h-1.53Zm-1.52 19.81h1.52v1.52h-1.52Zm0-4.57h1.52v3.04h-1.52Zm-1.52 6.09h1.52v1.53h-1.52Zm0-3.05h1.52v1.53h-1.52Zm0-19.81h3.04V6.1h-3.04Zm0-3.04h3.04v1.52h-3.04Zm-3.05 27.43h3.05v1.52h-3.05Zm0-3.05h3.05v1.52h-3.05Zm-4.57-12.19v-3.05h-1.53v3.05h-1.52v7.62h1.52v1.52h7.62v-1.52h1.53v-7.62h-1.53v-3.05h-1.52v3.05Zm3.04 4.57h-1.52v-3.05h1.52Zm-3.04 12.19h4.57V32h-4.57Zm0-3.05h4.57v1.53h-4.57Zm0-18.28h4.57v1.52h-4.57Zm-3.05 19.81h3.05v1.52h-3.05Zm0-3.05h3.05v1.52h-3.05Zm0-22.86h10.67v1.52H10.67Zm0-3.05h10.67v1.53H10.67ZM9.14 27.43h1.53v1.53H9.14Zm0-3.05h1.53v1.53H9.14ZM7.62 4.57h3.05V6.1H7.62Zm0-3.04h3.05v1.52H7.62Zm0 24.38h1.52v1.52H7.62Zm0-4.57h1.52v3.04H7.62ZM6.1 24.38h1.52v1.53H6.1Zm0-18.28h1.52v15.24H6.1ZM4.57 3.05h3.05v1.52H4.57Zm0 18.29H6.1v3.04H4.57ZM3.05 4.57h1.52v16.77H3.05Z"/></g></svg>