<svg xmlns="http://www.w3.org/2000/svg" viewBox="0 0 32 32"><desc>Coding Apps Websites Setting Computer Streamline Icon: https://streamlinehq.com</desc><g fill="currentColor"><path d="M1.52 31.24h28.95v-1.53H32v-4.57h-1.53v3.05H1.52v-3.05H0v4.57h1.52z"/><path d="M28.95 22.1h1.52v3.04h-1.52Zm-1.52-3.05v1.52h-3.05v1.53h4.57v-3.05zm0-4.57h1.52V16h-1.52Zm1.52-4.58v1.53h-1.52v1.52h3.04V8.38h-3.04V9.9zm-1.52-4.57h1.52v1.53h-1.52ZM25.9 16h1.53v1.52H25.9Zm0-3.05h1.53v1.53H25.9Zm0-6.09h1.53v1.52H25.9Zm0-3.05h1.53v1.52H25.9Zm-1.52 13.71h1.52v1.53h-1.52Zm0-15.23h1.52v1.52h-1.52ZM22.85 16h1.53v1.52h-1.53Zm0-12.19h1.53v1.52h-1.53Zm-1.52 15.24h-1.52v-1.53h-1.53v3.05h4.57v-3.05h-1.52zm1.52-12.19h-4.57v1.52h-1.52v4.57h1.52v1.53h4.57v-1.53h1.53V8.38h-1.53Zm0 4.57h-1.52v1.52h-1.52v-1.52h-1.53V9.9h1.53V8.38h1.52V9.9h1.52Zm-3.04-9.14h1.52v1.52h1.52V.76h-4.57v3.05h1.53zM16.76 16h1.52v1.52h-1.52Zm0-12.19h1.52v1.52h-1.52Zm-3.05 21.33h4.57v1.53h-4.57Zm1.53-7.62h1.52v1.53h-1.52Zm0-15.23h1.52v1.52h-1.52ZM13.71 16h1.53v1.52h-1.53Zm0-3.05h1.53v1.53h-1.53Zm0-6.09h1.53v1.52h-1.53Zm0-3.05h1.53v1.52h-1.53Zm-1.52 10.67h1.52V16h-1.52Zm0-3.05V9.9h1.52V8.38h-3.05v4.57h3.05v-1.52zm0-6.1h1.52v1.53h-1.52ZM4.57 3.81h6.09v1.52H4.57Zm6.09 18.29v-1.53H4.57V5.33H3.05V22.1zm-9.14 0h1.53v3.04H1.52Z"/></g></svg>