<svg xmlns="http://www.w3.org/2000/svg" viewBox="0 0 32 32"><desc>Coding Apps Websites Phone Tablet Streamline Icon: https://streamlinehq.com</desc><g fill="currentColor"><path d="M29.71 24.38h1.53v1.52h-1.53Zm-1.52-1.53h1.52v1.53h-1.52Zm0 3.05h1.52v1.53h-1.52Zm-1.53-4.57h1.53v1.52h-1.53Zm0 6.1h1.53v1.52h-1.53Zm-1.52-7.62h1.52v1.52h-1.52Zm0 6.09h1.52v1.53h-1.52Zm-1.52-7.62h1.52v1.53h-1.52Zm0 6.1h1.52v1.52h-1.52Zm-1.53-7.62h1.53v1.52h-1.53Zm0 6.09h1.53v1.53h-1.53Zm-1.52-1.52v-1.52h-1.52v1.52h1.51v1.52h1.53v-1.52z"/><path d="M2.28 1.52H.76v28.95h1.52V32h18.28v-1.53h1.53V25.9h-1.53v3.05H2.28V3.04h4.57v1.53h9.14V3.04h4.57v9.15h1.53V1.52h-1.53V0H2.28Zm9.14 0h3.05v1.52h-3.05Zm-3.05 0H9.9v1.52H8.37Z"/><path d="M17.52 18.28h1.53v1.53h-1.53ZM16 7.62h3.05v3.04H16Zm4.56 7.61v1.53h1.53v-1.53h-1.52v-1.52H16v4.57h1.52v-3.05zM9.9 7.62h3.05v3.04H9.9Zm3.05 16.76v-1.53h1.52v-1.52h-1.52v-1.52h-1.52v1.52H9.9v1.52h1.53v1.53zM9.9 13.71h3.05v3.05H9.9ZM3.81 7.62h3.05v3.04H3.81Zm0 6.09h3.05v3.05H3.81Zm0 6.1h3.05v3.04H3.81Z"/></g></svg>