<svg xmlns="http://www.w3.org/2000/svg" viewBox="0 0 32 32"><desc>Coding Apps Websites Live Status Streamline Icon: https://streamlinehq.com</desc><path fill="currentColor" d="M1.52 30.475h28.96v-1.52H32v-10.67h-1.52v-1.52H1.52v1.52H0v10.67h1.52Zm24.38-10.66h3.05v3.05H25.9Zm-7.61 0h4.57v1.52h-3.05v1.53h3.05v1.52h-3.05v1.52h3.05v1.53h-4.57Zm-6.1 0h1.52v6.09h1.53v-6.09h1.52v6.09h-1.52v1.53h-1.53v-1.53h-1.52Zm-3.05 0h1.53v7.62H9.14Zm-6.09 0h1.52v6.09h3.05v1.53H3.05ZM25.9 7.625h1.53v1.52H25.9Zm-1.52-1.53h1.52v1.53h-1.52Zm-1.52 4.57h1.52v1.53h-1.52Zm-1.53-1.52h1.53v1.52h-1.53Zm0-4.57h3.05v1.52h-3.05Zm-3.04 3.05h3.04v1.52h-3.04Zm0 4.57h1.52v1.52h-1.52Zm0-9.14h3.04v1.52h-3.04Zm-4.58 7.61h4.58v1.53h-4.58Zm0-4.57h4.58v1.53h-4.58Zm0-4.57h4.58v1.53h-4.58Zm-1.52 10.67h1.52v1.52h-1.52Zm-1.52-9.14h3.04v1.52h-3.04Zm0 4.57h3.04v1.52h-3.04Zm-1.53 1.52h1.53v1.52H9.14Zm-1.52-4.57h3.05v1.52H7.62Zm0 6.09h1.52v1.53H7.62ZM6.1 6.095h1.52v1.53H6.1Zm-1.53 1.53H6.1v1.52H4.57Z"/></svg>