<svg xmlns="http://www.w3.org/2000/svg" viewBox="0 0 32 32"><desc>Coding Apps Websites Favorite Rate Streamline Icon: https://streamlinehq.com</desc><g fill="currentColor"><path d="M30.48 15.24H32v10.67h-1.52Zm-1.52 10.67h1.52v1.52h-1.52Zm0-12.19h1.52v1.52h-1.52Zm-1.53 16.76h-1.52V32h3.05v-4.57h-1.53zm-1.52-18.29h-6.1v-1.52h-1.52v1.52h-3.05v1.53h13.72v-1.53h-1.53V7.62h-1.52zm-1.53 16.77h1.53v1.52h-1.53Zm1.53-13.72h-3.05v1.53h-1.52v-1.53h-3.05v1.53h-1.53v3.04h1.53v1.53h1.52v1.52h1.53v1.53h1.52v-1.53h1.52v-1.52h1.53v-1.53h1.52v-3.04h-1.52zM24.38 6.1h1.53v1.52h-1.53Zm-1.52 21.33h1.52v1.53h-1.52Zm0-22.85h1.52V6.1h-1.52Zm-7.62 21.33h7.62v1.52h-7.62Zm4.57-22.86h3.05v1.53h-3.05Zm-3.05-1.52h3.05v1.52h-3.05Z"/><path d="M19.81 9.15v1.52h1.53V7.62h-4.58V6.1h-1.52v3.05zm-6.09 15.24h1.52v1.52h-1.52Zm0-10.67h1.52v1.52h-1.52Zm0-9.14h1.52V6.1h-1.52Zm0 10.66h-3.05v1.53h1.52v6.09H7.62v1.53h6.1zM12.19 3.05h1.53v1.53h-1.53ZM10.67 0h6.09v1.53h-6.09Zm0 4.58h1.52V6.1h-1.52Z"/><path d="M9.15 16.77h1.52v1.52H9.15ZM7.62 1.53h3.05v1.52H7.62Zm0 16.76h1.53v1.52H7.62Zm0-6.1h1.53v3.05H7.62ZM6.1 15.24h1.52v3.05H6.1Zm0-4.57h1.52v1.52H6.1Zm4.57-1.52V6.1H9.15v1.52H4.57v3.05H6.1V9.15zm-6.1-6.1h3.05v1.53H4.57ZM3.05 24.39v-1.53H1.53v1.53H0v1.52h7.62v-1.52zm0-4.58h1.52v3.05H3.05Zm0-15.23h1.52V6.1H3.05ZM1.53 18.29h1.52v1.52H1.53Zm0-12.19h1.52v1.52H1.53ZM0 7.62h1.53v10.67H0Z"/></g></svg>