<svg xmlns="http://www.w3.org/2000/svg" viewBox="0 0 32 32"><desc>Coding Apps Websites Search Bug Streamline Icon: https://streamlinehq.com</desc><g fill="currentColor"><path d="M29.715 23.62h-1.53V22.1h-1.52v-1.53h-1.52v-3.04h-1.53v3.04H22.1v1.53h-1.52v1.52h-3.05v1.52h3.05v1.53h1.52v1.52h1.52v1.53h1.53v1.52h4.57v-1.52h1.52v-4.58h-1.52Zm0 4.57h-1.53v-1.52h-1.52v-1.53h-1.52v-1.52h1.52v1.52h1.52v1.53h1.53Zm-4.57-18.28h1.52v7.62h-1.52Zm-1.53-3.05h1.53v3.05h-1.53Zm-1.52-1.53h1.52v1.53h-1.52Zm-1.52-1.52h1.52v1.52h-1.52Zm-1.53 3.05h1.53v3.05h-1.53Z"/><path d="M19.045 20.57h1.53v-3.04h-1.53v-3.05H22.1v-1.53h-3.05V9.91h-1.52V8.38H16v1.53h-4.57V8.38H9.9v1.53H8.375v3.04h-3.04v1.53h3.04v3.05h-1.52v3.04h1.52v-1.52h3.05v1.52H16v-1.52h3.05Zm-1.52-6.09h-3.05v4.57h-1.52v-4.57H9.9v-1.53h7.62Zm0-12.19h3.05v1.52h-3.05Zm-7.62 22.85h7.62v1.53h-7.62Zm6.09-16.76V6.86h1.53V5.33h-3.05v1.53h-1.52V5.33h-3.05v1.53h1.52v1.52zM9.905.76h7.62v1.53h-7.62Zm-3.05 22.86h3.05v1.52h-3.05Zm0-21.33h3.05v1.52h-3.05Z"/><path d="M6.855 6.86h1.52v3.05h-1.52ZM5.335 22.1h1.52v1.52h-1.52Zm0-18.29h1.52v1.52h-1.52Zm-1.53 16.76h1.53v1.53h-1.53Zm0-15.24h1.53v1.53h-1.53Zm-1.52 12.2h1.52v3.04h-1.52Zm0-10.67h1.52v3.05h-1.52ZM.765 9.91h1.52v7.62H.765Z"/></g></svg>