<svg xmlns="http://www.w3.org/2000/svg" viewBox="0 0 32 32"><desc>Coding Apps Websites Programming Browser Bugs 1 Streamline Icon: https://streamlinehq.com</desc><g fill="currentColor"><path d="M30.48 18.28H32v1.53h-1.52Zm-1.53 9.15h1.53v1.52h-1.53Zm0-3.05h1.53v1.52h-1.53Zm-1.52-7.62v-1.52h-1.52v-3.05h-1.53v1.52h-3.05v1.53h-1.52v1.52h-1.52v3.05h-1.53v1.52h3.05v1.53h1.52v3.04h1.53v-1.52h3.05v-1.52h1.52v-1.53h1.52v-3.05h1.53v-1.52Zm-6.1 3.05h-1.52v-1.53h1.52Zm3.05 3.05h-1.52v-1.53h1.52Zm0-3.05h-1.52v-1.53h1.52Zm0-3.05h-1.52v-1.52h1.52Zm3.05 3.05h-1.52v-1.53h1.52Z"/><path d="M27.43 13.71h1.52v1.53h-1.52Zm-1.52 15.24h3.04v1.53h-3.04Zm-3.05-3.05h1.52v1.53h-1.52Zm0-15.23h1.52v1.52h-1.52Zm-3.05 18.28h3.05v1.53h-3.05Zm-1.52-16.76h3.04v1.52h-3.04Zm0 10.67h1.52v1.52h-1.52Zm-1.53-9.15h1.53v3.05h-1.53Zm-1.52 4.57h1.52v1.53h-1.52Zm-1.52 10.67h3.04v1.53h-3.04Zm-12.2-4.57h15.24v1.52H1.52Zm1.53-9.14h10.67v1.52H3.05Zm0 4.57h10.67v1.52H3.05ZM9.14 3.05h1.53v1.52H9.14Zm-1.52 25.9h3.05v1.53H7.62ZM6.1 30.48h1.52V32H6.1Zm0-27.43h1.52v1.52H6.1Zm-3.05 7.62h9.14v1.52H3.05Zm0-7.62h1.52v1.52H3.05ZM1.52 0h25.91v1.52H1.52Z"/><path d="M1.52 7.62h25.91v4.57h1.52V1.52h-1.52v4.57H1.52V1.52H0v22.86h1.52z"/></g></svg>