<svg xmlns="http://www.w3.org/2000/svg" viewBox="0 0 32 32"><desc>Coding Apps Websites Dinosaur Error Streamline Icon: https://streamlinehq.com</desc><g fill="currentColor"><path d="M30.48 25.145H32v1.52h-1.52ZM32 14.475v-3.05h-1.52v1.53h-1.53v-3.05h-1.52v6.1H25.9v-1.53h-1.52v3.05h3.05v4.57h-7.62v1.53H32v-1.53h-3.05v-7.62zM28.95.765H32v1.52h-3.05Zm-3.05 24.38h1.53v1.52H25.9Zm-1.52-21.33h3.05v1.52h-3.05Zm-4.57 21.33h1.52v1.52h-1.52Zm0-15.24h-4.57v1.52h4.57v1.53h1.52v-7.62h-1.52zm-6.1 6.1h-3.04v1.52h3.04v1.52h-3.04v-1.52H9.14v6.1h4.57v1.52H9.14v1.52H4.57V28.2H6.1v3.04h3.04v-1.52H7.62V28.2h4.57v-1.53h1.52v1.53h3.05v-1.53h-1.52v-6.09h1.52v1.52h1.53v-3.05h-3.05v-4.57h4.57v-1.52h-6.1Zm0 6.09h-3.04v-1.52h3.04ZM10.67.765h3.04v1.52h-3.04Zm-1.53 6.09h1.53v3.05H9.14Z"/><path d="M7.62 3.815h12.19v1.52H7.62Zm0 19.81h1.52v1.52H7.62ZM6.1 5.335h1.52v10.67H6.1Zm-1.53 10.67H6.1v4.57H4.57Zm-1.52 9.14h1.52v1.52H3.05Zm0-4.57h1.52v1.52H3.05Zm-1.53 3.05h1.53v1.52H1.52ZM0 5.335h3.05v1.52H0Zm1.52 15.24h1.53v-1.53H1.52v-1.52H0v6.1h1.52z"/></g></svg>