<svg xmlns="http://www.w3.org/2000/svg" viewBox="0 0 32 32"><desc>Content Files Open Book Bookmark Streamline Icon: https://streamlinehq.com</desc><g fill="currentColor"><path d="M30.48 4.575H32v22.85h-1.52Zm-10.67 22.85h10.67v1.53H19.81Zm4.58-22.85h1.52v1.52h-1.52Zm-1.53 9.14h3.05v1.52h-3.05Zm-4.57 6.09h7.62v1.53h-7.62Zm0-3.04h7.62v1.52h-7.62Zm0-3.05h3.05v1.52h-3.05Zm0-3.05h6.1v1.53h-6.1Zm0-3.05h7.62v1.53h-7.62Zm0-3.04h4.57v1.52h-4.57Zm-1.52-3.05h10.66v1.52H16.77Zm-4.57 27.43h7.61v1.52H12.2Zm0-15.24h1.52v1.52H12.2Zm0-3.05h1.52v1.53H12.2Zm0-3.05h1.52v1.53H12.2Zm0-3.04h1.52v1.52H12.2ZM1.53 27.425H12.2v1.53H1.53Zm7.62-7.62h4.57v1.53H9.15Zm-1.53-3.04h6.1v1.52h-6.1Zm-1.52 3.04h1.52v1.53H6.1Z"/><path d="M6.1 15.235h1.52v-1.52h1.53v1.52h1.52V3.045h4.57v-1.52H4.58v1.52H6.1z"/><path d="M3.05 25.905h10.67v1.52h4.57v-1.52h10.67V4.575h1.52v-1.53h-3.05v21.34H16.77V3.045h-1.53v21.34H4.58V3.045H1.53v1.53h1.52zM0 4.575h1.53v22.85H0Z"/></g></svg>