<svg xmlns="http://www.w3.org/2000/svg" viewBox="0 0 32 32"><desc>Content Files Pen Streamline Icon: https://streamlinehq.com</desc><g fill="currentColor"><path d="M30.48 1.52h-1.52V0h-3.05v1.52h-6.1v1.53h-1.52v1.52h-1.52V6.1h-1.53v1.52h-1.52v1.52H12.2v1.53h3.04V9.14h1.53V7.62h1.52V6.1h1.52V4.57h1.53V6.1h-1.53v1.52h1.53v1.52h1.52v1.53h1.53v1.52h1.52v-1.52h1.52V9.14h1.53V7.62h1.52V6.1H32V3.05h-1.52zm-7.62 10.67h1.53v1.53h-1.53Zm-1.52 1.53h1.52v1.52h-1.52Zm-1.53 1.52h1.53v1.52h-1.53Zm-1.52 1.52h1.52v1.53h-1.52Z"/><path d="M18.29 7.62h1.52v1.52h-1.52Zm-1.52 10.67h1.52v1.52h-1.52Zm0-9.15h1.52v1.53h-1.52Zm-1.53 10.67h1.53v1.52h-1.53Zm0-9.14h1.53v1.52h-1.53Zm-1.52 10.66h1.52v1.53h-1.52Zm0-9.14h1.52v1.53h-1.52Zm-1.52 1.53h1.52v1.52H12.2Zm-1.53 15.23h1.53v-4.57h1.52v-1.52h-3.05zm0-13.71h1.53v1.52h-1.53Zm-1.52 6.09h1.52v1.53H9.15Zm0-4.57h1.52v1.53H9.15ZM7.62 28.95h3.05v1.53H7.62Zm-3.04-4.57h3.04v3.05H4.58Zm-1.53 6.1v-1.53H1.53v-4.57H0V32h7.62v-1.52zm6.1-9.15v-3.04H7.62v1.52H3.05v1.52z"/><path d="M3.05 27.43h1.53v1.52H3.05Zm-1.52-6.1h1.52v3.05H1.53Z"/></g></svg>