<svg xmlns="http://www.w3.org/2000/svg" viewBox="0 0 32 32"><desc>Content Files Write Note Streamline Icon: https://streamlinehq.com</desc><g fill="currentColor"><path d="M30.475 27.429h1.52v1.52h-1.52Zm0-25.91h1.52v21.34h-1.52Zm-1.52 27.43h1.52v1.53h-1.52Zm0-3.04h1.52v1.52h-1.52ZM1.525-.001h28.95v1.52H1.525ZM27.425 30.479h1.53v1.52h-1.53Zm0-6.1h1.53v1.53h-1.53Zm0-4.57h1.53v1.52h-1.53Zm-4.57-4.57h6.1v1.52h-6.1Zm3.05 13.71h1.52v1.53h-1.52Zm0-6.09h1.52v1.52h-1.52Zm-1.52 4.57h1.52v1.52h-1.52Zm0-6.1h1.52v1.53h-1.52Zm-1.53 4.58h1.53v1.52h-1.53Zm0-6.1h1.53v1.52h-1.53Zm-1.52 4.57h1.52v1.53h-1.52Zm0-6.09h1.52v1.52h-1.52Zm-1.53 4.57h1.53v1.52h-1.53Zm0-6.1h1.53v1.53h-1.53Zm-1.52 4.57h1.52v1.53h-1.52Zm-1.52-1.52h1.52v1.52h-1.52Zm-1.53-15.24h13.72v1.53h-13.72Zm4.57 12.19v-1.52h-4.57v4.57h1.53v-3.05zm-4.57-7.62h13.72v1.53h-13.72Zm-1.52-6.09H3.045v10.67h10.67ZM12.2 7.619h-1.53V6.1H9.145v4.57h1.52v1.52H6.1v-1.52h1.52V6.1H6.1v1.52H4.575V4.569H12.2Zm-9.155 7.62h9.15v1.52h-9.15Zm9.15 13.71v-4.57h4.57v-1.52h-6.1v4.57h-1.52v1.52zm-9.15-9.14h9.15v1.52h-9.15Zm4.57 6.1h1.53v1.52h-1.53Z"/><path d="M6.095 24.379h1.52v1.53h-1.52Zm-4.57-1.52h4.57v1.52h-4.57Zm-1.53-21.34h1.53v21.34h-1.53Z"/></g></svg>