<svg xmlns="http://www.w3.org/2000/svg" viewBox="0 0 32 32"><desc>Content Files Sticky Notepad 2 Streamline Icon: https://streamlinehq.com</desc><g fill="currentColor"><path d="M30.48 20.57H32v1.52h-1.52ZM7.62 22.09v-4.57H6.1V3.81H4.58v1.52H1.53v1.53h1.52v10.66h1.53v4.57H6.1v1.53h1.52v1.52h13.72v1.53h1.52v-3.05h3.05v6.09h1.52v-6.09h3.05v-1.53z"/><path d="M27.43 19.05h3.05v1.52h-3.05ZM25.91 3.81h1.52v15.24h-1.52ZM6.1 29.71h19.81v1.53H6.1ZM21.34 8.38h1.52v3.05h-1.52Zm-1.53 3.05h1.53v1.52h-1.53Zm-1.52-4.57h3.05v1.52h-3.05Zm0 12.19h3.05v1.52h-3.05Zm0-6.1h1.52v1.53h-1.52Zm-1.52 4.57h1.52v1.53h-1.52Zm0-3.04h1.52V16h-1.52Zm0-6.1h1.52V9.9h-1.52ZM15.24 16h1.53v1.52h-1.53Zm0-6.1h1.53v1.53h-1.53Zm-1.52 4.58h1.52V16h-1.52Zm0-6.1h1.52V9.9h-1.52Zm-1.52 9.14h3.04v1.53H12.2Zm0-4.57h1.52v1.53H12.2Zm-1.53-6.09h3.05v1.52h-3.05Zm0 4.57h1.53v1.52h-1.53ZM9.15 8.38h1.52v3.05H9.15Zm1.52-4.57v1.52h10.67V3.81h4.57V2.28h-4.57V.76H10.67v1.52H6.1v1.53zm10.67 24.38v-1.52H1.53v1.52h3.05v1.52H6.1v-1.52zM0 6.86h1.53v19.81H0Z"/></g></svg>