<svg xmlns="http://www.w3.org/2000/svg" viewBox="0 0 32 32"><desc>Content Files Notepad Streamline Icon: https://streamlinehq.com</desc><g fill="currentColor"><path d="M12.955 0v1.52h-3.05v1.53h3.05v1.52h1.52V3.05h3.05v1.52h1.52V3.05h3.05v1.52h1.53V3.05h1.52V6.1h1.52V4.57h1.53v25.91h-16.76V32h18.28v-1.52h1.52V4.57h-1.52V3.05h-1.52V1.52h-4.57V0h-1.53v1.52h-3.05V0h-1.52v1.52h-3.05V0z"/><path d="M23.625 6.1h1.52v3.04h-1.52Zm-1.53 6.09h4.57v-1.52h-3.04V9.14h-1.53z"/><path d="M20.575 15.24h-1.53v3.05h1.53v-1.53h6.09v-1.52h-4.57v-3.05h-1.52zm-3.05 6.09h9.14v-1.52h-7.62v-1.52h-1.52zm-1.52-9.14h1.52v1.53h-1.52Zm0-3.05h1.52v1.53h-1.52Zm-3.05 15.24h13.71v1.53h-13.71Zm-1.52-10.66h4.57v1.52h-4.57Zm0-4.58h1.52v1.53h-1.52Z"/><path d="M11.435 22.86h6.09v-1.53H2.285v1.53h7.62v7.62h1.53zm-1.53-10.67h1.53v1.53h-1.53Zm-1.52-9.14h1.52V6.1h-1.52ZM6.855 6.1h1.53v3.04h-1.53Zm-1.52 3.04h1.52v3.05h-1.52Zm-1.52 3.05h1.52v3.05h-1.52Zm-1.53 3.05h1.53v3.05h-1.53Zm-1.52 3.05h1.52v3.04H.765Z"/></g></svg>