<svg xmlns="http://www.w3.org/2000/svg" viewBox="0 0 32 32"><desc>Content Files Quill Ink Streamline Icon: https://streamlinehq.com</desc><g fill="currentColor"><path d="M27.435 3.05h1.52V1.52h1.52V0h-9.14v1.52h6.1zm-1.53 0h1.53v1.52h-1.53Zm-1.52 1.52h1.52V6.1h-1.52Zm-1.52 1.53h1.52v1.52h-1.52Zm-1.53 1.52h1.53v3.05h-1.53Zm0-4.57h1.53v1.52h-1.53Zm-1.52 7.62h1.52v1.52h-1.52Zm0-6.1h1.52V6.1h-1.52Z"/><path d="M18.285 1.52h3.05v1.53h-3.05Zm0 4.58h1.53v1.52h-1.53Zm-1.52 6.09h3.05v1.53h-3.05Zm0-4.57h1.52v1.52h-1.52Zm0-4.57h1.52v1.52h-1.52ZM3.055 32h13.71v-1.52h1.52v-6.1h-1.52v1.53h-7.62v-1.53H6.1v-1.52H3.055v1.52h-1.53v6.1h1.53Zm1.52-6.09H6.1v3.04h3.05v1.53H6.1v-1.53H4.575Zm10.67-16.77h1.52v1.53h-1.52Zm0-4.57h1.52V6.1h-1.52Z"/><path d="M13.715 22.86h3.05v1.52h-3.05Zm3.05-9.14h-3.05v-1.53h-1.52v-1.52h-1.52v4.57h6.09z"/><path d="M13.715 10.67h1.53v1.52h-1.53Zm0-4.57h1.53v1.52h-1.53Zm-1.52 1.52h1.52v3.05h-1.52Zm-4.57 12.19h4.57v3.05h1.52v-3.05h1.53v-1.52h-4.57v-3.05h-1.53v3.05h-4.57v1.52h1.52v3.05h1.53z"/></g></svg>