<svg xmlns="http://www.w3.org/2000/svg" viewBox="0 0 32 32"><desc>Content Files Open Book Streamline Icon: https://streamlinehq.com</desc><g fill="currentColor"><path d="M28.95 8.38h1.53v18.29h-1.53Zm-3.04 18.29h3.04v1.52h-3.04Zm-3.05-1.53h3.05v1.53h-3.05Zm-4.57-1.52h4.57v1.52h-4.57ZM19.81 16h4.57v1.52h-4.57Zm0-4.57h4.57v1.52h-4.57Zm0-4.57h4.57v1.52h-4.57Zm-1.52-3.05h7.62v1.52h-7.62Zm0 9.14h1.52v1.53h-1.52Zm0-4.57h1.52v1.53h-1.52Zm-1.53-3.05h1.53v1.53h-1.53Zm-3.04 19.81h4.57v1.53h-4.57Zm0-19.81h1.52v1.53h-1.52ZM9.14 23.62h4.58v1.52H9.14Zm3.05-10.67h1.53v1.53h-1.53Zm0-4.57h1.53v1.53h-1.53ZM7.62 16h4.57v1.52H7.62Zm0-4.57h4.57v1.52H7.62Zm0-4.57h4.57v1.52H7.62ZM6.1 3.81h7.62v1.52H6.1Zm0 21.33h3.04v1.53H6.1Z"/><path d="M13.72 20.57v-1.52H9.14v1.52H6.1V5.33H4.57v1.53H3.05v1.52h1.52v15.24h4.57V22.1h4.58v1.52h4.57V22.1h4.57v1.52h4.57V8.38h1.52V6.86h-1.52V5.33h-1.52v15.24h-3.05v-1.52h-4.57v1.52h-1.53V6.86h-1.52v13.71zm-10.67 6.1H6.1v1.52H3.05ZM1.52 8.38h1.53v18.29H1.52Z"/></g></svg>