<svg xmlns="http://www.w3.org/2000/svg" viewBox="0 0 32 32"><desc>Content Files Pencil Ruler Streamline Icon: https://streamlinehq.com</desc><g fill="currentColor"><path d="M28.955 15.24h1.52v9.14h-1.52Zm-1.52 9.14h1.52v1.53h-1.52Zm0-10.66h1.52v1.52h-1.52Zm-1.53 3.04h1.53v6.1h-1.53Z"/><path d="M27.435 27.43v-1.52h-3.05v-1.53h1.52v-1.52h-1.52v-6.1h1.52v-1.52h-1.52v-1.52h3.05v-1.53h-3.05v-1.52h-1.52v16.76zm-7.62 0h3.05v1.52h-3.05Zm-3.05 1.52h3.05v1.53h-3.05Zm3.05-24.38V3.05h-1.53V1.52h-1.52v1.53h-1.52v1.52zm-4.57 16.76h1.52v1.53h-1.52Zm0-3.04h1.52v1.52h-1.52Zm-6.1 12.19h7.62V32h-7.62Zm1.53-7.62h4.57v1.52h-4.57Z"/><path d="M10.675 12.19h-3.05v1.53h10.66v-1.53h3.05v-1.52h1.53V9.14h-1.53V4.57h-1.52V6.1h-4.57V4.57h-1.53v3.05h-3.04Zm7.61-4.57h1.53v3.05h-1.53Zm-3.04 0h1.52v4.57h-1.52Zm-6.1 13.71h1.53v1.53h-1.53Zm0-3.04h1.53v1.52h-1.53Zm0-13.72h1.53v3.05h-1.53Zm-3.05 24.38h3.05v1.53h-3.05Z"/><path d="M9.145 10.67V9.14h-3.05v1.53h-1.52v1.52h3.05v-1.52zm-1.52-9.15h1.52v3.05h-1.52ZM4.575 0h3.05v1.52h-3.05Zm-1.52 27.43h3.04v1.52h-3.04Zm0-25.91h1.52v1.53h-1.52Z"/><path d="M3.055 10.67h1.52V7.62h1.52V6.1h-3.04v3.04h-1.53v18.29h1.53zm-1.53-7.62h1.53V6.1h-1.53Z"/></g></svg>