<svg xmlns="http://www.w3.org/2000/svg" viewBox="0 0 32 32"><desc>Content Files Pencil Brush Streamline Icon: https://streamlinehq.com</desc><g fill="currentColor"><path d="M30.48 22.1h-1.52v1.52h-3.05v3.05h-3.05v3.05h-1.52v1.52H32v-1.52h-1.52zM28.96 5.34h1.52v3.04h-1.52Zm-1.53 15.23h1.53v1.53h-1.53Zm0-12.19h1.53v1.53h-1.53Zm0-4.57h1.53v1.53h-1.53Zm-1.52 6.1h1.52v1.52h-1.52Zm0-7.62h1.52v1.52h-1.52Zm-1.52 9.14h1.52v1.53h-1.52Zm0-3.05h1.52v1.53h-1.52ZM22.86.76h3.05v1.53h-3.05Zm0 18.29h4.57v1.52h-4.57Zm0-6.09h1.53v1.52h-1.53Zm0-6.1h1.53v1.52h-1.53Zm-1.52 13.71h1.52v1.53h-1.52Zm0-3.04h1.52v1.52h-1.52Zm0-3.05h1.52V16h-1.52Zm0-6.1h1.52v1.53h-1.52Zm0-3.04h1.52v1.52h-1.52Zm0-3.05h1.52v1.52h-1.52Zm-1.53 25.9h1.53v1.53h-1.53Zm0-6.09h1.53v1.52h-1.53Zm0-6.1h1.53v1.53h-1.53Zm0-6.09h1.53v1.52h-1.53Zm0-6.1h1.53v1.53h-1.53Zm-1.52 19.81h1.52v4.57h-1.52Zm0-6.09h1.52v1.52h-1.52Zm0-6.1h1.52v1.53h-1.52Zm0-6.09h1.52v1.52h-1.52ZM16.77 22.1h1.52v1.52h-1.52Zm0-3.05h1.52v1.52h-1.52Zm0-6.09h1.52v1.52h-1.52Zm0-6.1h1.52v1.52h-1.52Zm-1.53 13.71h1.53v1.53h-1.53Zm0-6.09h1.53V16h-1.53Zm0-6.1h1.53v1.53h-1.53ZM13.72 22.1h1.52v1.52h-1.52Zm0-6.1h1.52v1.53h-1.52Zm0-6.09h1.52v1.52h-1.52ZM12.2 23.62h1.52v1.53H12.2Zm0-6.09h1.52v1.52H12.2Zm0-6.1h1.52v1.53H12.2Zm0-3.05h1.52v1.53H12.2Zm-1.53 16.77h1.53v1.52h-1.53Zm0-6.1h1.53v1.52h-1.53Zm0-6.09h1.53v1.52h-1.53Zm0-6.1h1.53v1.52h-1.53ZM9.15 26.67h1.52v1.52H9.15Zm0-6.1h1.52v1.53H9.15Zm0-6.09h1.52V16H9.15Zm0-9.14h1.52v1.52H9.15ZM7.62 28.19h1.53v1.53H7.62Zm0-6.09h1.53v1.52H7.62Zm0-6.1h1.53v1.53H7.62Zm0-3.04h1.53v1.52H7.62Zm0-9.15h1.53v1.53H7.62ZM6.1 26.67h1.52v1.52H6.1Zm0-3.05h1.52v1.53H6.1Zm0-6.09h1.52v1.52H6.1Zm0-6.1h1.52v1.53H6.1Zm0-9.14h1.52v1.52H6.1Zm-1.52 25.9H3.05v-1.52H1.53v-3.05H0v7.62h7.62v-1.52H4.58z"/><path d="M4.58 25.15H6.1v1.52H4.58Zm0-6.1H6.1v1.52H4.58Zm0-9.14H6.1v1.52H4.58ZM3.05.76H6.1v1.53H3.05Zm0 22.86h1.53v1.53H3.05Zm0-3.05h1.53v1.53H3.05Zm0-12.19h1.53v1.53H3.05ZM1.53 22.1h1.52v1.52H1.53Zm0-15.24h1.52v1.52H1.53Zm0-4.57h1.52v1.52H1.53ZM0 3.81h1.53v3.05H0Z"/></g></svg>