<svg xmlns="http://www.w3.org/2000/svg" viewBox="0 0 32 32"><desc>Ecology Nuclear Energy Streamline Icon: https://streamlinehq.com</desc><g fill="currentColor"><path d="M29.71 11.425h1.53v9.15h-1.53Zm-1.52 9.15h1.52v3.04h-1.52Zm0-12.19h1.52v3.04h-1.52Zm-1.52 15.23h1.52v3.05h-1.52Zm0-18.28h1.52v3.05h-1.52Zm-3.05 21.33h3.05v1.53h-3.05Zm1.52-18.28h-1.52v-1.53h-1.53v1.53h-1.52v1.52h-1.52v3.05h1.52v3.05h6.1v-6.1h-1.53zm-1.52-4.58h3.05v1.53h-3.05Zm-3.05 24.39h3.05v1.52h-3.05Zm0-25.91h3.05v1.52h-3.05Zm0 19.81h-1.52v-1.52h-6.1v1.52h-1.52v1.52H9.9v1.53h1.53v1.52h9.14v-1.52h1.52v-1.53h-1.52zm-9.14 7.62h9.14v1.52h-9.14Zm1.52-12.19h1.53v1.52h3.04v-1.52h1.53v-3.05h-1.53v-1.52h-3.04v1.52h-1.53zM11.43.765h9.14v1.52h-9.14Zm-3.05 27.43h3.05v1.52H8.38Zm3.05-15.24h1.52v-3.05h-1.52v-1.52H9.9v-1.53H8.38v1.53H6.86v1.52H5.33v6.1h6.1zM8.38 2.285h3.05v1.52H8.38Zm-3.05 24.38h3.05v1.53H5.33Zm0-22.86h3.05v1.53H5.33Zm-1.52 19.81h1.52v3.05H3.81Zm0-18.28h1.52v3.05H3.81Zm-1.53 15.24h1.53v3.04H2.28Zm0-12.19h1.53v3.04H2.28ZM.76 11.425h1.52v9.15H.76Z"/></g></svg>