<svg xmlns="http://www.w3.org/2000/svg" viewBox="0 0 32 32"><desc>Email Envelope Close Streamline Icon: https://streamlinehq.com</desc><g fill="currentColor"><path d="M30.47 6.1H32v19.8h-1.53Zm-1.52 19.8h1.52v1.53h-1.52Zm0-21.33h1.52V6.1h-1.52Zm-1.52 3.05h1.52v3.05h-1.52ZM3.05 27.43h25.9v1.52H3.05Zm22.85-4.57h1.53v1.52H25.9Zm0-12.19h1.53v1.52H25.9Zm-1.52 10.66h1.52v1.53h-1.52Zm0-9.14h1.52v1.52h-1.52Zm-1.53 7.62h1.53v1.52h-1.53Zm0-6.1h1.53v1.53h-1.53Zm-1.52 4.58h1.52v1.52h-1.52Zm0-3.05h1.52v1.52h-1.52ZM18.28 16.76h3.05v1.53h-3.05Zm-4.57 1.53h4.57v1.52h-4.57Zm-3.05-1.53h3.05v1.53h-3.05Zm-1.52 1.53h1.52v1.52H9.14Zm0-3.05h1.52v1.52H9.14Zm-1.52 4.57h1.52v1.52H7.62Zm0-6.1h1.52v1.53H7.62Zm-1.53 7.62h1.53v1.53H6.09Zm0-9.14h1.53v1.52H6.09ZM4.57 22.86h1.52v1.52H4.57Zm0-12.19h1.52v1.52H4.57ZM3.05 3.05h25.9v1.52H3.05Zm0 4.57h1.52v3.05H3.05ZM1.52 25.9h1.53v1.53H1.52Zm0-21.33h1.53V6.1H1.52ZM0 6.1h1.52v19.8H0Z"/></g></svg>