<svg xmlns="http://www.w3.org/2000/svg" viewBox="0 0 32 32"><desc>Email Emoji Smile Smart Streamline Icon: https://streamlinehq.com</desc><path fill="currentColor" d="M30.48 12.19H32v7.62h-1.52Zm-1.53 7.62h1.53v3.04h-1.53Zm-1.52 3.04h1.52v3.05h-1.52Zm0-16.76h1.52v3.05h-1.52ZM25.91 25.9h1.52v1.52h-1.52Zm0-21.33h1.52v1.52h-1.52Zm-3.05 22.85h3.05v1.53h-3.05Zm0-24.38h3.05v1.53h-3.05Zm-3.05 25.91h3.05v1.52h-3.05Zm0-27.43h3.05v1.52h-3.05Zm-7.62 28.95h7.62V32h-7.62Zm1.53-7.62h6.09v1.53h-6.09ZM12.19 0h7.62v1.52h-7.62Zm0 21.33h1.53v1.52h-1.53Zm-3.05 7.62h3.05v1.52H9.14Zm0-27.43h3.05v1.52H9.14ZM6.1 27.42h3.04v1.53H6.1Zm0-24.38h3.04v1.53H6.1ZM4.57 25.9H6.1v1.52H4.57Zm0-21.33H6.1v1.52H4.57ZM3.05 22.85h1.52v3.05H3.05Zm0-7.62h1.52v1.53H6.1v1.52h6.09v-1.52h1.53v-1.53h1.52v-1.52h3.05v1.52h1.52v1.53h1.52v1.52h6.1v-1.52h1.52v-4.57h1.53V9.14h-1.53v1.52H3.05V9.14H1.53v3.05h1.52zm0-9.14h1.52v3.05H3.05ZM1.53 19.81h1.52v3.04H1.53ZM0 12.19h1.53v7.62H0Z"/></svg>