<svg xmlns="http://www.w3.org/2000/svg" viewBox="0 0 32 32"><desc>Email Envelope Open Streamline Icon: https://streamlinehq.com</desc><g fill="currentColor"><path d="M30.47 13.71h-1.52v1.53h1.52v13.71H32V12.19h-1.53zm-1.52-3.04h1.52v1.52h-1.52Z"/><path d="M27.43 30.48H4.57v-1.53H1.52v1.53h1.53V32h25.9v-1.52h1.52v-1.53h-3.04zm0-21.34h1.52v1.53h-1.52ZM25.9 27.43h1.53v1.52H25.9ZM3.05 15.24v1.52h3.04v1.53h3.05v1.52h3.05v1.52h7.62v-1.52h3.04v-1.52h3.05v-1.53h3.05v-1.52zM25.9 7.62h1.53v1.52H25.9ZM24.38 25.9h1.52v1.53h-1.52Zm0-19.8h1.52v1.52h-1.52Zm-1.53 18.28h1.53v1.52h-1.53Zm0-19.81h1.53V6.1h-1.53Zm-1.52 18.29h1.52v1.52h-1.52Zm0-19.81h1.52v1.52h-1.52Z"/><path d="M19.81 21.33h1.52v1.53h-1.52Zm0-19.81h1.52v1.53h-1.52ZM12.19 0h7.62v1.52h-7.62Zm-1.53 21.33h1.53v1.53h-1.53Zm0-19.81h1.53v1.53h-1.53ZM9.14 22.86h1.52v1.52H9.14Zm0-19.81h1.52v1.52H9.14ZM7.62 24.38h1.52v1.52H7.62Zm0-19.81h1.52V6.1H7.62ZM6.09 25.9h1.53v1.53H6.09Zm0-19.8h1.53v1.52H6.09ZM4.57 27.43h1.52v1.52H4.57Zm0-19.81h1.52v1.52H4.57ZM3.05 9.14h1.52v1.53H3.05Zm-1.53 1.53h1.53v1.52H1.52Zm0 4.57h1.53v-1.53H1.52v-1.52H0v16.76h1.52z"/></g></svg>