<svg xmlns="http://www.w3.org/2000/svg" viewBox="0 0 32 32"><desc>Email Envelope Streamline Icon: https://streamlinehq.com</desc><g fill="currentColor"><path d="M30.47 9.145h-1.52v1.53h1.52v1.52h-1.52v1.52h1.52v1.53h-1.52v1.52h1.52v1.52h-1.52v1.53h1.52v1.52h-1.52v1.53h1.52v1.52H32V7.625h-1.53zm-3.04 13.72H25.9v1.52h-1.52v-1.52h-1.52v1.52h-1.53v-1.52h-1.52v1.52h-1.53v-1.52h-1.52v1.52h-1.52v-1.52h-1.53v1.52h-1.52v-1.52h-1.53v1.52H9.14v-1.52H7.62v1.52H6.09v-1.52H4.57v1.52H1.52v1.52h28.95v-1.52h-3.04zm-1.53-12.19h-3.04v1.52h-1.53v3.05h1.53v1.52h3.04v-1.52h1.53v-3.05H25.9zm-21.33 9.14h9.14v1.52H4.57Zm0-3.05h6.09v1.52H4.57Zm0-7.62h1.52v-1.52h1.53v1.52h1.52v-1.52h1.52v1.52h1.53v-1.52h1.52v1.52h1.53v-1.52h1.52v1.52h1.52v-1.52h1.53v1.52h1.52v-1.52h1.53v1.52h1.52v-1.52h1.52v1.52h1.53v-1.52h3.04v-1.53H1.52v1.53h3.05z"/><path d="M3.05 22.865v-1.53H1.52v-1.52h1.53v-1.53H1.52v-1.52h1.53v-1.52H1.52v-1.53h1.53v-1.52H1.52v-1.52h1.53v-1.53H1.52v-1.52H0v16.76h1.52v-1.52z"/></g></svg>