<svg xmlns="http://www.w3.org/2000/svg" viewBox="0 0 32 32"><desc>Email Stamp Mail Streamline Icon: https://streamlinehq.com</desc><path fill="currentColor" d="M29.72 26.67h-4.58v1.52h6.1v-7.62h-1.52zm0-13.72h1.52v4.58h-1.52Zm0-3.04h1.52v-6.1h-6.1v1.52h4.58zm-1.53 7.62h1.53v3.04h-1.53Zm0-7.62h1.53v3.04h-1.53ZM22.1 25.14h3.04v1.53H22.1Zm4.57-16.76H5.33v15.24h21.34ZM17.53 22.1H6.86v-3.05h1.52v-1.52h1.53V16h3.04v1.53h1.53v1.52H16v1.52h1.53Zm0-10.67h1.52V9.91h3.05v1.52h1.52v3.05H22.1V16h-3.05v-1.52h-1.52Zm7.61 10.67h-6.09v-1.53h1.52v-1.52h1.53v-1.52h3.04ZM22.1 5.33h3.04v1.53H22.1Zm-4.57 21.34h4.57v1.52h-4.57Zm0-22.86h4.57v1.52h-4.57Zm-3.05 21.33h3.05v1.53h-3.05Zm0-19.81h3.05v1.53h-3.05ZM9.91 26.67h4.57v1.52H9.91Zm0-22.86h4.57v1.52H9.91ZM6.86 25.14h3.05v1.53H6.86Zm0-19.81h3.05v1.53H6.86Zm0 21.34H2.29v-6.1H.76v7.62h6.1zm-4.57-9.14h1.52v3.04H2.29Zm0-7.62h1.52v3.04H2.29ZM.76 12.95h1.53v4.58H.76Zm1.53-7.62h4.57V3.81H.76v6.1h1.53z"/></svg>