<svg xmlns="http://www.w3.org/2000/svg" viewBox="0 0 32 32"><desc>Email Mail Open Address Streamline Icon: https://streamlinehq.com</desc><g fill="currentColor"><path d="M30.48 12.19v-1.52h-1.53V9.14h-1.52V6.1h-1.52v12.19h1.52v-1.53h1.52v-1.52h1.53v13.71H32V12.19zm-1.53 16.76h1.53v1.53h-1.53Zm-25.9 1.53h25.9V32H3.05Zm21.33-12.19h1.53v1.52h-1.53Zm-1.52 7.62h1.52v1.52h-1.52Zm0-6.1h1.52v1.52h-1.52Zm-1.53 4.57h1.53v1.53h-1.53Zm0-3.05h1.53v1.53h-1.53Zm0-10.66h1.53v4.57h-1.53Zm-1.52-1.53h1.52v1.53h-1.52Zm-9.14 13.72h10.66v1.52H10.67Zm7.62-7.62h3.04v1.52h-3.04Zm0-4.57h-4.57v1.52h3.04v3.05h1.53zm-4.57 4.57h3.04v1.52h-3.04Zm-1.53-7.62h7.62v1.52h-7.62Zm0 10.67h7.62v1.52h-7.62Zm0-6.1h1.53v3.05h-1.53Z"/><path d="M10.67 16.76h1.52v1.53h-1.52Zm0-7.62h1.52v1.53h-1.52ZM9.14 24.38h1.53v1.53H9.14Zm0-3.05h1.53v1.53H9.14Zm0-10.66h1.53v6.09H9.14ZM7.62 25.91h1.52v1.52H7.62Zm0-6.1h1.52v1.52H7.62ZM25.91 6.1V4.57h-3.05V3.05h-1.53V1.52h-1.52V0h-7.62v1.52h-1.52v1.53H9.14v1.52H6.1V6.1zM6.1 18.29h1.52v1.52H6.1ZM1.52 28.95h1.53v1.53H1.52Z"/><path d="M1.52 15.24h1.53v1.52h1.52v1.53H6.1V6.1H4.57v3.04H3.05v1.53H1.52v1.52H0v16.76h1.52z"/></g></svg>