<svg xmlns="http://www.w3.org/2000/svg" viewBox="0 0 32 32"><desc>Food Drink Tea Streamline Icon: https://streamlinehq.com</desc><g fill="currentColor"><path d="M30.47 12.19H32v4.57h-1.53Zm-1.52 4.57h1.52v3.05h-1.52Zm-1.53-6.09h3.05v1.52h-3.05Z"/><path d="M27.42 19.81h1.53v1.52h-1.53Zm-1.52 9.14h1.52v1.53H25.9Zm0-15.24h1.52v-1.52H25.9v-1.52h-1.52v12.19h3.04v-1.53H25.9zM1.52 30.48H25.9V32H1.52Zm21.33-7.62h1.53v3.05h-1.53Zm-1.52 4.57H6.09v-1.52H4.57v1.52H1.52v1.52H25.9v-1.52h-3.05v-1.52h-1.52zM18.28 4.57h1.53V6.1h-1.53ZM16.76 6.1h1.52v1.52h-1.52Zm0-3.05h1.52v1.52h-1.52Zm0-3.05h1.52v1.52h-1.52Zm-1.53 1.52h1.53v1.53h-1.53Zm-3.04 3.05h1.52V6.1h-1.52ZM10.66 6.1h1.53v1.52h-1.53Zm0-3.05h1.53v1.52h-1.53Zm0-3.05h1.53v1.52h-1.53ZM9.14 1.52h1.52v1.53H9.14Z"/><path d="M7.61 10.67v4.57H6.09v4.57h1.52v1.52h3.05v-1.52h1.53v-4.57h-1.53v3.05H9.14v-3.05h1.52v-1.53H9.14v-3.04h15.24V9.14H3.04v1.53zM3.04 22.86h1.53v3.05H3.04ZM1.52 10.67h1.52v12.19H1.52ZM0 28.95h1.52v1.53H0Z"/></g></svg>