<svg xmlns="http://www.w3.org/2000/svg" viewBox="0 0 32 32"><desc>Food Drink Desert Cake Streamline Icon: https://streamlinehq.com</desc><g fill="currentColor"><path d="M27.43 9.9V8.38H25.9V9.9h-1.52v1.53h4.57v3.04h-4.57V16h-4.57v1.52h-4.57v1.53h-4.57v1.52H6.09v1.52H3.05v-3.04h3.04v-1.53H3.05V16H1.52v15.24h4.57v-1.53H3.05v-3.04h3.04v-1.53h4.58v-1.52h4.57v-1.53h4.57v-1.52h4.57v-1.52h4.57v1.52h-1.52v1.52h3.05V6.86h-1.53V9.9zM25.9 5.33h3.05v1.53H25.9Z"/><path d="M24.38 22.09h3.05v1.53h-3.05ZM22.86 6.86h3.04v1.52h-3.04Zm0-3.05h3.04v1.52h-3.04Zm-3.05 19.81h4.57v1.52h-4.57Zm0-12.19h4.57v1.52h-4.57Zm0-6.1h3.05v1.53h-3.05Zm0-3.05h3.05v1.53h-3.05Zm-3.05 1.53h3.05v1.52h-3.05Z"/><path d="M16.76.76h3.05v1.52h-3.05Zm-1.52 24.38h4.57v1.53h-4.57Zm0-12.19h4.57v1.52h-4.57Zm0-10.67h1.52v1.53h-1.52Zm-4.57 24.39h4.57v1.52h-4.57Zm0-12.2h4.57V16h-4.57Zm0-10.66v1.52H9.14V9.9h1.53v1.53h4.57V9.9h1.52V5.33h-1.52V3.81h-1.53V2.28h-1.52v1.53Zm3.04 1.52v1.53h1.53v1.52h-1.53V6.86h-1.52V5.33ZM9.14.76h3.05v1.52H9.14ZM6.09 28.19h4.58v1.52H6.09Zm0-12.19h4.58v1.52H6.09Zm1.53-6.1h1.52v1.53H7.62Zm-1.53 1.53h1.53v1.52H6.09Zm-1.52 1.52h1.52v1.52H4.57Zm-1.52 1.52h1.52V16H3.05Z"/></g></svg>