<svg xmlns="http://www.w3.org/2000/svg" viewBox="0 0 32 32"><desc>Food Drink Hamburger Streamline Icon: https://streamlinehq.com</desc><g fill="currentColor"><path d="M30.47 19.05h-1.52v-1.53h-1.53v1.53H25.9v1.52h-3.05v-1.52h-1.52v-1.53h-4.57v1.53h-3.05v1.52H9.14v-1.52H7.61v-1.53H3.04v1.53H1.52v1.52h1.52v4.57h1.53v-3.05h22.85v3.05h1.53v-3.05h1.52v-1.52H32V16h-1.53zm-4.57 6.09h1.52v1.53H25.9Zm0-16.76h1.52V9.9H25.9Zm-1.52-1.52h1.52v1.52h-1.52ZM6.09 26.67H25.9v1.52H6.09ZM21.33 8.38h1.52V9.9h-1.52Zm0-3.05h3.05v1.53h-3.05ZM18.28 9.9h1.53v1.53h-1.53Zm0-3.04h1.53v1.52h-1.53Zm-3.05 1.52h1.53V9.9h-1.53ZM12.19 9.9h1.52v1.53h-1.52Zm0-3.04h1.52v1.52h-1.52Zm-1.53-3.05h10.67v1.52H10.66ZM9.14 8.38h1.52V9.9H9.14ZM7.61 5.33h3.05v1.53H7.61ZM6.09 6.86h1.52v1.52H6.09ZM4.57 25.14h1.52v1.53H4.57Zm0-16.76h1.52V9.9H4.57Z"/><path d="M30.47 16v-1.53h-1.52V9.9h-1.53v4.57H4.57V9.9H3.04v4.57H1.52V16zM0 16h1.52v3.05H0Z"/></g></svg>