<svg xmlns="http://www.w3.org/2000/svg" viewBox="0 0 32 32"><desc>Food Drink Desert Cotton Candy Streamline Icon: https://streamlinehq.com</desc><path fill="currentColor" d="M30.47 3.05H32v1.52h-1.53Zm-1.52 6.09h1.52v9.15h-1.52Zm0 22.86v-1.52h1.52v-1.53h-1.52v-1.52h-1.53v1.52H25.9v1.53h1.52V32zm-1.53-13.71h1.53v1.52h-1.53Zm0-12.19h1.53v3.04h-1.53ZM25.9 19.81h1.52v1.52H25.9Zm0-15.24h1.52V6.1H25.9Zm0-4.57h1.52v1.52H25.9Zm-1.52 21.33h1.52v1.53h-1.52Zm0-9.14h1.52v4.57h-1.52Zm-1.53 4.57h1.53v1.53h-1.53Zm0-7.62h1.53v1.53h-1.53Zm0-6.09h3.05v1.52h-3.05Zm-4.57 19.81h6.1v1.52h-6.1Zm3.05-4.57h1.52v1.52h-1.52Zm-3.05 10.66h1.53v1.53h-1.53Zm-9.14-4.57h9.14v1.53H9.14Zm4.57-22.86h9.14v1.53h-9.14Zm-1.52 1.53h1.52v1.52h-1.52Zm-1.53 1.52h1.53V6.1h-1.53ZM9.14 6.1h1.52v1.52H9.14ZM7.61 22.86h1.53v1.52H7.61Zm0-15.24h1.53v6.09H7.61ZM6.09 24.38h1.52v1.53H6.09Zm0-10.67h1.52v9.15H6.09Zm0-10.66h1.52v1.52H6.09ZM4.57 25.91h1.52v1.52H4.57Zm0-21.34h1.52V6.1H4.57Zm0-3.05h1.52v1.53H4.57ZM3.04 27.43h1.53v1.52H3.04Zm0-24.38h1.53v1.52H3.04Zm-1.52 25.9h1.52v1.53H1.52Zm0-15.24h1.52v1.53H1.52ZM0 30.48h1.52V32H0Z"/></svg>