<svg xmlns="http://www.w3.org/2000/svg" viewBox="0 0 32 32"><desc>Food Drink Fried Chicken Streamline Icon: https://streamlinehq.com</desc><g fill="currentColor"><path d="M29.715 25.15h1.52v3.04h-1.52Zm-1.53 3.04h1.53v1.53h-1.53Zm-1.52-4.57h3.05v1.53h-3.05Zm-1.52 6.1h3.04v1.52h-3.04Zm0-7.62h1.52v1.52h-1.52Zm-1.53 4.57h1.53v3.05h-1.53Zm0-6.1h-1.52v1.53h3.05v-9.15h-1.53zm-1.52 4.58h1.52v1.52h-1.52Zm0-16.77h1.52v4.57h-1.52Zm-1.52 13.72v1.52h-7.62v1.53h9.14V22.1zm0-15.24h1.52v1.52h-1.52Zm-1.53-1.52h1.53v1.52h-1.53Zm-1.52-1.53h1.52v1.53h-1.52Zm-1.53-1.52h1.53v1.52h-1.53Zm-1.52 15.24h1.52v1.52h-1.52Z"/><path d="M8.375 22.1h4.58v1.52h-4.58Zm1.53-4.57h3.05v1.52h-3.05ZM8.375 16h1.53v1.53h-1.53Zm-1.52 4.57h1.52v1.53h-1.52Zm0-6.09h1.52V16h-1.52ZM5.335.76h10.66v1.53H5.335Zm0 18.29h1.52v1.52h-1.52Zm0-6.1h1.52v1.53h-1.52Zm-1.53 4.58h1.53v1.52h-1.53Zm0-7.62h1.53v3.04h-1.53Zm0-7.62h1.53v1.52h-1.53ZM2.285 16h1.52v1.53h-1.52Zm0-12.19h1.52v1.53h-1.52ZM.765 5.34h1.52V16H.765Z"/></g></svg>