<svg xmlns="http://www.w3.org/2000/svg" viewBox="0 0 32 32"><desc>Food Drink Sushi Streamline Icon: https://streamlinehq.com</desc><g fill="currentColor"><path d="M27.425 16.76v1.53h1.52v6.09h1.53V12.19h-1.53v4.57z"/><path d="M27.425 24.38h1.52v1.53h-1.52Zm0-13.71h1.52v1.52h-1.52ZM3.045 30.48h1.52V32h10.67v-1.52h1.52v-1.53h1.53v-1.52h9.14v-1.52h-9.14v-6.1h9.14v-1.52h-10.67v4.57h-1.52v1.52H4.565v-1.52h-1.52v-4.57h-1.52v10.66h1.52Zm7.62-1.53h3.05v-3.04h1.52v3.04h-1.52v1.53h-3.05Zm10.67-13.71h-3.05v1.52h7.62v-1.52h1.52v-1.53h-1.52v-1.52h-7.62v1.52h3.05zm-4.58-1.53h1.53v1.53h-1.53Zm0-6.09h-1.52v1.52H4.565v1.53h10.67v1.52h1.52v-1.52h10.67V9.14h-9.14V3.05h-1.53zm-1.52 9.14h1.52v1.53h-1.52Zm0-15.24h1.52v1.53h-1.52Z"/><path d="M13.715 19.81h1.52v1.52h-1.52Zm0-15.24h1.52V6.1h-1.52Zm-4.58 16.76h-3.04v1.53h7.62v-1.53h-3.05v-1.52h3.05v-1.52h-7.62v1.52h3.04zm0-15.23h-3.04v1.52h7.62V6.1h-3.05V4.57h3.05V3.05h-7.62v1.52h3.04zm6.1 10.66v-4.57h-1.52v3.05h-9.15v1.52zM4.565 0h10.67v1.52H4.565Z"/><path d="M4.565 19.81h1.53v1.52h-1.53Zm0-15.24h1.53V6.1h-1.53Zm-1.52 12.19h1.52v1.53h-1.52Zm0-3.05h1.52v1.53h-1.52Zm0-12.19h1.52v1.53h-1.52Zm0 7.62h1.52V7.62h-1.52V3.05h-1.52v10.66h1.52z"/></g></svg>