<svg xmlns="http://www.w3.org/2000/svg" viewBox="0 0 32 32"><desc>Food Drink Milk Streamline Icon: https://streamlinehq.com</desc><g fill="currentColor"><path d="M29.715 10.665h1.52v18.29h-1.52Zm-1.53-1.52h1.53v1.52h-1.53Zm-25.9 18.29h15.24v1.52H2.285v1.52h27.43v-1.52h-10.67v-18.29h-1.52V12.2H2.285v-1.53H.765v18.29h1.52Zm0-13.72h6.09v1.52H9.9v1.53h1.52v1.52h1.53v-1.52h1.52v1.52H16v-1.52h1.53v9.14h-4.57v-1.52H9.9v-3.05H8.375v1.52h-1.52v-1.52h-1.52v-1.52h-1.53v1.52h-1.52Z"/><path d="M26.665 24.385h1.52v1.52h-1.52Zm0-3.05h1.52v1.52h-1.52Zm0-13.71h1.52v1.52h-1.52Zm-6.09 10.66h7.61v1.53h-7.61Zm0-3.05h7.61v1.53h-7.61Zm4.57-9.14h1.52v1.53h-1.52Zm-4.57 18.29h4.57v1.52h-4.57Zm0-3.05h4.57v1.52h-4.57Zm1.52-15.24h1.52v1.53h-1.52Zm-1.52 1.53h1.52v1.52h-1.52Zm-1.53 1.52h1.53v1.52h-1.53Zm-10.67-3.05h12.2v1.53h-12.2Zm0-3.05h15.24v3.05h1.53v-4.57H6.855v4.57h1.52zm-3.04 3.05h1.52v1.53h-1.52Zm-1.53 1.53h1.53v1.52h-1.53Zm-1.52 1.52h1.52v1.52h-1.52Z"/></g></svg>