<svg xmlns="http://www.w3.org/2000/svg" viewBox="0 0 32 32"><desc>Food Drink Desert Donut Streamline Icon: https://streamlinehq.com</desc><g fill="currentColor"><path d="M30.47 10.665H32v6.1h-1.53Zm-1.52 6.1h1.52v3.05h-1.52Zm0-9.14h1.52v3.04h-1.52Zm-1.53 12.19h1.53v3.04h-1.53Zm0-9.15h1.53v6.1h-1.53Zm0-4.57h1.53v1.53h-1.53Zm-1.52 16.76h1.52v1.53H25.9Zm0-6.09h1.52v3.05H25.9Zm0-12.19h1.52v1.52H25.9Zm-1.52 19.81h1.52v1.52h-1.52Zm0-4.57h1.52v1.52h-1.52Zm0-9.15h1.52v1.53h-1.52Zm-1.53 10.67h1.53v1.52h-1.53Zm0-9.14h1.53v1.52h-1.53Zm0-9.15h3.05v1.53h-3.05Zm-1.52 22.86h3.05v1.53h-3.05Zm0-9.14h1.52v1.52h-1.52Zm0-9.14h1.52v1.52h-1.52Zm-1.52 15.23h3.04v1.53h-3.04Zm-1.53-18.28h3.05v1.52h-3.05ZM16.76 27.435h4.57v1.52h-4.57Zm1.52-7.62h1.53v1.52h-1.53Zm-3.05 4.57h4.58v1.52h-4.58Zm1.53-13.72v1.53h-3.05v1.52h-1.52v3.05h-1.53v1.52H9.14v1.53h4.57v-1.53h3.05v-1.52h1.52v-3.05h1.53v-4.57h-1.53v1.52z"/><path d="M16.76 7.625h1.52v1.52h-1.52Zm-1.53-6.1h7.62v1.52h-7.62Zm-1.52 7.62h3.05v1.52h-3.05Zm-4.57 19.81h7.62v1.52H9.14Zm4.57-7.62h1.52v1.52h-1.52Zm-4.57 4.57h6.09v1.53H9.14Zm3.05-15.24h1.52v1.53h-1.52Zm-1.53-7.62h4.57v1.53h-4.57Zm0 19.81h3.05v1.53h-3.05Zm0-10.66h1.53v1.52h-1.53Zm-1.52-4.57h3.05v1.52H9.14Zm0 6.09h1.52v3.05H9.14Zm-1.53-9.14h3.05v1.52H7.61Zm-1.52 22.86h3.05v1.52H6.09Zm1.52-10.67h1.53v1.52H7.61Zm-1.52 4.57h1.52v1.52H6.09Zm0-10.67h1.52v3.05H6.09Zm0-4.57h1.52v1.53H6.09Zm-1.52 19.81h1.52v1.53H4.57Zm0-18.28h1.52v1.52H4.57Zm-1.53 16.76h1.53v1.52H3.04Zm0-7.62h1.53v3.05H3.04Zm0-7.62h1.53v3.05H3.04Zm-1.52 12.19h1.52v3.05H1.52Zm0-9.14h1.52v3.04H1.52ZM0 15.235h1.52v6.1H0Z"/></g></svg>