<svg xmlns="http://www.w3.org/2000/svg" viewBox="0 0 32 32"><desc>Food Drink Desert Cupcake Streamline Icon: https://streamlinehq.com</desc><g fill="currentColor"><path d="M30.47 9.91H32V16h-1.53ZM28.95 16h1.52v1.53h-1.52Zm0-9.14h1.52v3.05h-1.52Zm-1.53-1.52h1.53v1.52h-1.53Zm-3.04 12.19V16h-1.53v1.53h-1.52v3.04h-3.05v-1.52h-3.05v1.52h-1.52v3.05h-3.05V22.1H9.14v-1.53H7.61v-1.52H3.04v1.52h1.53v3.05h1.52v4.57h1.52v1.53h1.53v1.52h15.24v-1.52h1.52v-1.53h1.52v-4.57h1.53v-6.09ZM12.19 28.19h-1.53v-3.04h1.53Zm6.09 0h-1.52V22.1h1.52Zm6.1 0h-1.53v-3.04h1.53Zm1.52-15.24h3.05v1.53H25.9Zm0-9.14h1.52v1.53H25.9Zm-3.05 4.57h1.53v3.05h-1.53Zm0-6.09h3.05v1.52h-3.05Zm-3.04 3.05h1.52v1.52h-1.52Zm-1.53-1.53h1.53v1.53h-1.53Zm-1.52 7.62h3.05v1.52h-3.05ZM13.71.76h9.14v1.53h-9.14Z"/><path d="M13.71 16h3.05v1.53h-3.05Zm0-6.09h1.52V8.38h1.53V6.86h-1.53V5.34h-3.04v1.52h-1.53v1.52H9.14v1.53h1.52v1.52H9.14V9.91H7.61v3.04h1.53v1.53h1.52v-1.53h1.53v-1.52h1.52zM9.14 2.29h4.57v1.52H9.14Zm0 15.24h1.52v1.52H9.14ZM7.61 16h1.53v1.53H7.61ZM6.09 3.81h3.05v1.53H6.09ZM4.57 5.34h1.52v1.52H4.57Zm-1.53 7.61h1.53V16H3.04Zm0-6.09h1.53v3.05H3.04ZM1.52 17.53h1.52v1.52H1.52Zm0-7.62h1.52v1.52H1.52ZM0 11.43h1.52v6.1H0Z"/></g></svg>