<svg xmlns="http://www.w3.org/2000/svg" viewBox="0 0 32 32"><desc>Food Drink Fish Streamline Icon: https://streamlinehq.com</desc><g fill="currentColor"><path d="M30.47 18.285H32v3.05h-1.53Zm0-7.62H32v3.05h-1.53Zm-1.52 6.1h1.52v1.52h-1.52Zm0-3.05h1.52v1.52h-1.52Zm-1.53-4.57h3.05v1.52h-3.05Zm0 12.19h3.05v1.52h-3.05Zm0-6.1h1.53v1.53h-1.53Zm-1.52 4.57h1.52v1.53H25.9Zm0-9.14h1.52v1.52H25.9Zm-1.52 7.62h1.52v1.52h-1.52Zm0-6.1h1.52v1.53h-1.52Zm-1.53 7.62h1.53v1.53h-1.53Zm0-9.14h1.53v1.52h-1.53Zm-1.52 10.67h1.52v1.52h-1.52Zm0-12.19h1.52v1.52h-1.52Zm-1.52 13.71h1.52v1.53h-1.52Zm0-15.24h1.52v1.53h-1.52Zm-3.05 16.77h3.05v1.52h-3.05Zm0-18.29h3.05v1.52h-3.05Zm-6.1 19.81h6.1v1.52h-6.1Zm0-21.33h6.1v1.52h-6.1Zm-4.57 19.81h4.57v1.52H6.09Z"/><path d="M6.09 6.095h4.57v1.52H6.09Zm-3.05 16.76h3.05v1.53H3.04Zm1.53-7.62h3.04v3.05H4.57Zm-1.53-7.62h3.05v1.53H3.04Zm-1.52 12.19h1.52v3.05H1.52Zm0-10.66h1.52v3.04H1.52ZM0 12.185h1.52v7.62H0Z"/></g></svg>