<svg xmlns="http://www.w3.org/2000/svg" viewBox="0 0 32 32"><desc>Food Drink Coffee Streamline Icon: https://streamlinehq.com</desc><path fill="currentColor" d="M29.71 15.24h1.53v4.57h-1.53Zm-1.52 4.57h1.52v1.52h-1.52Zm0-6.09h1.52v1.52h-1.52Zm-1.52 12.19h1.52v1.52h-1.52Zm0-9.15h1.52v1.53h-1.52Zm-3.05-4.57h4.57v1.53h-4.57Zm1.52 15.24h1.53v1.52h-1.53Zm0-3.05h1.53v1.53h-1.53Zm-1.52-3.05v1.53h-1.53v1.52h3.05v-1.52h3.05v-1.53zm0-6.09v4.57h3.05v-1.52h-1.53v-1.53h1.53v-1.52zm-1.53 13.71h3.05v1.53h-3.05Zm0-18.28h1.53v1.52h-1.53Zm-3.04 13.71h3.04v1.53h-3.04ZM17.52 9.14h4.57v1.53h-4.57ZM6.86 30.48h15.23V32H6.86Zm1.52-18.29v1.53H6.86v1.52h1.52v1.52h12.19v-1.52h1.52v-1.52h-1.52v-1.53zM19.05 1.52h1.52v3.05h-1.52ZM16 0h3.05v1.52H16Zm1.52 4.57h1.53V6.1h-1.53Zm-3.05-3.05H16v1.53h-1.53Zm0 6.1H16v3.05h-1.53ZM11.43 0h3.04v1.52h-3.04Zm1.52 6.1h1.52v1.52h-1.52Zm-1.52-1.53h1.52V6.1h-1.52ZM9.9 25.91h9.15v1.52H9.9Zm0-24.39h1.53v3.05H9.9ZM6.86 9.14h6.09v1.53H6.86Zm0 15.24H9.9v1.53H6.86Zm-3.05 4.57h3.05v1.53H3.81Zm3.05-7.62H5.33v1.53H3.81v1.52h3.05zM5.33 10.67h1.53v1.52H5.33Zm-1.52 1.52h1.52v9.14H3.81ZM2.28 27.43h1.53v1.52H2.28Zm0-3.05h1.53v1.53H2.28ZM.76 25.91h1.52v1.52H.76Z"/></svg>