<svg xmlns="http://www.w3.org/2000/svg" viewBox="0 0 32 32"><desc>Food Drink Rice Ball Streamline Icon: https://streamlinehq.com</desc><g fill="currentColor"><path d="M29.715 22.095h1.52v4.57h-1.52Zm-1.53 4.57h1.53v1.53h-1.53Zm0-9.14h1.53v4.57h-1.53Zm-1.52 6.1h1.52v1.52h-1.52Zm0-9.15h1.52v3.05h-1.52Z"/><path d="M25.145 20.575h-1.53v-1.53H8.375v1.53h-1.52v7.62h-3.05v1.52h24.38v-1.52h-3.04zm0-9.15h1.52v3.05h-1.52Zm-1.53 4.58h1.53v1.52h-1.53Zm0-7.62h1.53v3.04h-1.53Zm-1.52-1.53h1.52v1.53h-1.52Zm-1.52-1.52h1.52v1.52h-1.52Zm-1.53 9.14h1.53v1.53h-1.53Zm0-10.66h1.53v1.52h-1.53Zm-1.52 12.19h1.52v1.52h-1.52Zm0-9.15h1.52v1.53h-1.52Zm-1.53 1.53h1.53v1.52h-1.53Zm-3.04-6.1h6.09v1.53h-6.09Zm-1.53 13.72h1.53v1.52h-1.53Zm0-6.1h1.53v1.52h-1.53Zm0-6.09h1.53v1.52h-1.53Zm-1.52 10.66h1.52v1.53h-1.52Zm0-9.14h1.52v1.52h-1.52Zm-1.53 1.52h1.53v1.53h-1.53Zm-1.52 1.53h1.52v3.04h-1.52Zm-1.52 3.04h1.52v3.05h-1.52Z"/><path d="M3.805 23.625h1.53v1.52h-1.53Zm0-9.15h1.53v3.05h-1.53Zm-1.52 12.19h1.52v1.53h-1.52Zm0-9.14h1.52v4.57h-1.52Zm-1.52 4.57h1.52v4.57H.765Z"/></g></svg>