<svg xmlns="http://www.w3.org/2000/svg" viewBox="0 0 32 32"><desc>Food Drink Egg Streamline Icon: https://streamlinehq.com</desc><g fill="currentColor"><path d="M30.47 12.945H32v9.15h-1.53Zm-1.52-1.52h1.52v1.52h-1.52Zm-1.53 10.67h3.05v1.52h-3.05Zm0-12.19h1.53v1.52h-1.53Zm-4.57 13.71h4.57v1.53h-4.57Zm0-15.24h4.57v1.53h-4.57Zm-3.04 13.72h3.04v1.52h-3.04Zm1.52-15.24h1.52v1.52h-1.52Zm-3.05 7.62h-1.52v-1.53h-3.05v-1.52h3.05v-1.52h-6.1v1.52H9.14v1.52H7.61v4.58h1.53v1.52h1.52v1.52h6.1v-1.52h1.52v-1.52h1.53v-4.58h-1.53zm-3.05 9.14h4.58v1.53h-4.58Z"/><path d="M16.76 11.425h1.52v1.52h-1.52Zm-3.05-6.09h7.62v1.52h-7.62Zm-4.57 19.81h6.09v1.52H9.14Zm0-18.29h4.57v1.52H9.14Zm-3.05 16.76h3.05v1.53H6.09Zm1.52-15.24h1.53v1.53H7.61Zm-3.04 1.53h3.04v1.52H4.57Zm-1.53 12.19h3.05v1.52H3.04Zm0-10.67h1.53v1.52H3.04Zm-1.52 9.14h1.52v1.53H1.52Zm0-7.62h1.52v3.05H1.52ZM0 15.995h1.52v4.57H0Z"/></g></svg>