<svg xmlns="http://www.w3.org/2000/svg" viewBox="0 0 32 32"><desc>Food Drink Fruit Cherry Streamline Icon: https://streamlinehq.com</desc><g fill="currentColor"><path d="M28.19 19.81h1.52v7.62h-1.52Zm-1.52 7.62h1.52v1.52h-1.52Zm0-9.14h1.52v1.52h-1.52Zm-1.53 10.66h1.53v1.53h-1.53Zm0-12.19h1.53v1.53h-1.53Zm-7.62 13.72h7.62V32h-7.62Zm1.53-4.57h1.52v1.52h-1.52Zm0-19.81V4.57h1.52v10.67H16v3.05h1.52v-1.53h7.62v-1.52H22.1V6.1h3.04V4.57h1.53V3.05h1.52V0h-4.57v1.52H22.1v1.53h-1.53V1.52h-1.52V0h-7.62v3.05h1.52v1.52h4.57V6.1zM16 28.95h1.52v1.53H16Zm0-7.62h1.52v4.58H16Z"/><path d="M16 6.1h1.52v1.52H16Zm-1.52 21.33v-7.62h-1.53v7.62H6.86v1.52H16v-1.52zm0-9.14H16v1.52h-1.52Zm0-4.58H16v1.53h-1.52Zm0-6.09H16v1.52h-1.52Zm-1.53 1.52h1.53v1.53h-1.53Zm1.53 4.57v-1.52h-1.53v-1.52h-1.52v1.52H6.86v1.52zm-7.62 9.15h1.52v1.52H6.86Zm-1.53 3.05h1.53v1.52H5.33Zm0-7.62h1.53v4.57H5.33Zm0-4.58h1.53v1.53H5.33ZM3.81 24.38h1.52v1.53H3.81Zm0-9.14h1.52v1.52H3.81Zm-1.52 1.52h1.52v7.62H2.29Z"/></g></svg>