<svg xmlns="http://www.w3.org/2000/svg" viewBox="0 0 32 32"><desc>Food Drink Pizza Streamline Icon: https://streamlinehq.com</desc><g fill="currentColor"><path d="M30.47 8.385h-3.05v-1.53h-3.04v-1.52h-3.05v-1.53h-3.05v-1.52h-3.05v1.52h-1.52v4.58h4.57v1.52h3.05v1.52h3.05v1.53h3.04v1.52h1.53v-1.52h1.52v4.57H32v-7.62h-1.53zm-3.05 9.14h3.05v1.52h-3.05Zm-3.04 1.52h3.04v1.53h-3.04Z"/><path d="M24.38 14.475h3.04v1.52h-3.04Zm-3.05 6.1h3.05v1.52h-3.05Zm0-4.58h3.05v1.53h-3.05Z"/><path d="M18.28 12.955h3.05v3.04h-3.05Zm0 9.14h3.05v1.52h-3.05Zm0-4.57h3.05v1.52h-3.05Zm-3.05 6.09h3.05v1.53h-3.05Zm0-4.57h3.05v1.53h-3.05Zm0-4.57h1.53v1.52h-1.53Zm-1.52-4.57h3.05v3.05h-3.05Zm-1.52 15.24h3.04v1.52h-3.04Zm0-4.57h3.04v1.52h-3.04Zm-1.53-6.1h3.05v3.05h-3.05Zm1.53-6.09h1.52v1.52h-1.52Zm-1.53 10.66h1.53v1.53h-1.53Zm0-9.14h1.53v1.52h-1.53Zm-1.52 16.76h3.05v1.53H9.14Zm0-4.57h3.05v1.52H9.14Zm0-10.67h1.52v1.53H9.14Zm-3.05 7.62h3.05v3.05H6.09Zm1.52-3.05h1.53v1.53H7.61Zm0-3.04h1.53v1.52H7.61Zm-4.57 15.24h6.1v1.52h-6.1Zm3.05-4.58h3.05v1.53H6.09Zm0-9.14h1.52v1.52H6.09Zm-1.52 1.52h1.52v1.53H4.57Zm1.52 10.67v-1.52H1.52v3.05h1.52v-1.53zm-3.05-6.09h1.53v1.52H3.04Zm0-3.05h1.53v1.52H3.04Zm-1.52 1.52h1.52v1.53H1.52ZM0 20.575h1.52v4.57H0Z"/></g></svg>