<svg xmlns="http://www.w3.org/2000/svg" viewBox="0 0 32 32"><desc>Interface Essential Link Broken 2 Streamline Icon: https://streamlinehq.com</desc><path fill="currentColor" d="M30.48 16.005H32v7.62h-1.52Zm-1.53 7.62h1.53v1.52h-1.53Zm0-9.15h1.53v1.53h-1.53Zm-1.52 3.05h1.52v4.57h-1.52Zm-7.62 7.62h9.14v1.52h-9.14Zm1.53-9.14h6.09v1.52h-6.09Zm1.52-9.15h1.52v1.53h-1.52Zm-1.52 15.24h6.09v1.53h-6.09Zm-1.53-9.14h9.14v1.52h-9.14Zm1.53-4.57h1.52v1.52h-1.52Zm-1.53 1.52h1.53v1.53h-1.53Zm-1.52 13.72h1.52v1.52h-1.52Zm3.05-1.53v-1.52h-4.58v3.05h1.53v-1.53zm-3.05-6.09h-1.53v3.04h4.58v-1.52h-3.05zm0-1.53h1.52v1.53h-1.52Zm-3.05-9.14h1.52v6.1h-1.52Zm-4.57 12.19v1.52h4.57v-3.04h-1.52v1.52zm1.52 6.1h1.53v1.52h-1.53Zm1.53 0h1.52v-3.05h-4.57v1.52h3.05zm-1.53-9.15h1.53v1.53h-1.53Zm-1.52-4.57h1.52v1.53h-1.52Zm-7.62 15.24h9.14v1.52H3.05Zm1.52-9.14h6.1v1.52h-6.1Zm4.58-7.62h1.52v1.52H9.15Zm-1.53-1.53h1.53v1.53H7.62Zm-3.05 15.24h6.1v1.53h-6.1Zm-1.52-9.14h9.14v1.52H3.05Zm0 4.57h1.52v4.57H3.05Zm-1.52 6.1h1.52v1.52H1.53Zm0-9.15h1.52v1.53H1.53ZM0 16.005h1.53v7.62H0Z"/></svg>