<svg xmlns="http://www.w3.org/2000/svg" viewBox="0 0 32 32"><desc>Interface Essential Iris Scan Streamline Icon: https://streamlinehq.com</desc><path fill="currentColor" d="M30.48 25.91H32v4.57h-1.52Zm0-12.19H32v4.57h-1.52Zm0-12.19H32V6.1h-1.52Zm-1.53 16.76h1.53v1.52h-1.53Zm0-6.1h1.53v1.53h-1.53ZM25.91 0h4.57v1.53h-4.57Zm0 30.48h4.57V32h-4.57Zm1.52-10.67h1.52v1.53h-1.52Zm0-9.14h1.52v1.52h-1.52Zm-3.05 10.67h3.05v1.52h-3.05Zm0-12.19h3.05v1.52h-3.05Zm-3.04 13.71h3.04v1.52h-3.04Zm0-15.24h3.04v1.53h-3.04Zm0 4.57h-1.53v-1.52h-1.52V9.15h-4.57v1.52h-1.53v1.52h-1.52v1.53H9.15v4.57h1.52v1.52h1.52v1.53h1.53v1.52h4.57v-1.52h1.52v-1.53h1.53v-1.52h1.52v-4.57h-1.52Zm-3.05 4.58h-1.53v1.52h-1.52v-1.52h-1.52v-1.53h1.52v-1.52h1.52v1.52h1.53Zm-7.62 7.61h10.67v1.53H10.67Zm0-18.28h10.67v1.52H10.67ZM7.62 22.86h3.05v1.52H7.62Zm0-15.24h3.05v1.53H7.62ZM4.57 21.34h3.05v1.52H4.57Zm0-12.19h3.05v1.52H4.57ZM1.53 30.48H6.1V32H1.53Zm1.52-10.67h1.52v1.53H3.05Zm0-9.14h1.52v1.52H3.05ZM1.53 0H6.1v1.53H1.53Zm0 18.29h1.52v1.52H1.53Zm0-6.1h1.52v1.53H1.53ZM0 25.91h1.53v4.57H0Zm0-12.19h1.53v4.57H0ZM0 1.53h1.53V6.1H0Z"/></svg>