<svg xmlns="http://www.w3.org/2000/svg" viewBox="0 0 32 32"><desc>Interface Essential View Eye Streamline Icon: https://streamlinehq.com</desc><g fill="currentColor"><path d="M29.71 14.475h1.53v3.05h-1.53Zm-1.52 3.05h1.52v1.52h-1.52Zm0-4.57h1.52v1.52h-1.52Zm-1.52 6.09h1.52v1.53h-1.52Zm0-7.62h1.52v1.53h-1.52Zm-3.05 9.15h3.05v1.52h-3.05Zm0-10.67h3.05v1.52h-3.05Zm-3.05 12.19h3.05v1.52h-3.05Zm0-9.14h1.52v6.09h-1.52Zm0-4.57h3.05v1.52h-3.05Zm-1.52 10.66h1.52v1.53h-1.52Zm0-7.62h1.52v1.53h-1.52Zm-7.62 12.19h9.14v1.53h-9.14Zm1.52-3.04h6.1v1.52h-6.1Zm4.57-7.62h-3.04v1.52h-1.53v3.05h1.53v1.52h3.04v-1.52h1.53v-3.05h-1.53zm-4.57-3.05h6.1v1.52h-6.1Zm-1.52-3.05h9.14v1.53h-9.14Z"/><path d="M11.43 19.045h1.52v1.53h-1.52Zm0-7.62h1.52v1.53h-1.52Zm-3.05 10.67h3.05v1.52H8.38Zm1.52-9.14h1.53v6.09H9.9Zm-1.52-4.57h3.05v1.52H8.38Zm-3.05 12.19h3.05v1.52H5.33Zm0-10.67h3.05v1.52H5.33Zm-1.52 9.14h1.52v1.53H3.81Zm0-7.62h1.52v1.53H3.81Zm-1.52 6.1h1.52v1.52H2.29Zm0-4.57h1.52v1.52H2.29Zm-1.53 1.52h1.53v3.05H.76Z"/></g></svg>