<svg xmlns="http://www.w3.org/2000/svg" viewBox="0 0 32 32"><desc>Interface Essential Satellite Streamline Icon: https://streamlinehq.com</desc><g fill="currentColor"><path d="M30.48 4.57h-1.53V3.05h-4.57v1.52h-1.52v1.52h-1.52v1.53h-1.53v1.52h-1.52v1.53h-1.53v1.52h1.53v1.52h1.52v1.53h1.53v1.52h1.52v1.52h1.52v-1.52h1.53v-1.52h1.52v-1.53h1.52v-1.52h1.53v-1.52H32V6.09h-1.52Zm-1.53 3.05h-1.52v1.52h1.52v1.53h-1.52V9.14h-1.52v1.53h-1.53v1.52h1.53v1.52h-1.53v-1.52h-1.52v1.52h-1.52v-1.52h1.52v-1.52h-1.52V9.14h1.52v1.53h1.52V9.14h1.53V7.62h-1.53V6.09h1.53v1.53h1.52V6.09h1.52Zm-4.57 15.24v1.52h-1.52v1.52h-3.05v1.53h1.53v1.52h3.04v-1.52h1.53V25.9h1.52v-1.52h1.52v-3.05h-1.52v-1.52h-1.52v3.05z"/><path d="M24.38 18.28h1.53v1.53h-1.53Zm-1.52 3.05h1.52v1.53h-1.52Zm-1.52-1.52h1.52v1.52h-1.52Zm-3.05 4.57h1.52v1.52h-1.52Zm-1.53-1.52v-1.53h-1.52v-1.52h-1.52v-1.53h-1.53v-1.52h-1.52v1.52H9.15v1.53H7.62v1.52H6.1v1.53H4.57v1.52H3.05v4.57h1.52v1.53H6.1V32h4.57v-1.52h1.52v-1.53h1.53v-1.52h1.52V25.9h1.52v-1.52h1.53v-1.52Zm-3.04 0h-1.53v1.52h1.53v1.52h-1.53v-1.52h-1.52v1.52H9.15v1.53h1.52v1.52H9.15v-1.52H7.62v1.52H6.1v-1.52h1.52V25.9H6.1v-1.52h1.52v1.52h1.53v-1.52h1.52v-1.52H9.15v-1.53h1.52v1.53h1.52v-1.53h1.53Zm1.52-10.67h1.52v1.52h-1.52Zm0-3.05h1.52v1.53h-1.52Zm-1.52 4.57h1.52v1.53h-1.52Zm0-3.04h1.52v1.52h-1.52ZM12.19 15.24h1.53v1.52h-1.53Zm0-3.05h1.53v1.52h-1.53Zm-1.52 1.52h1.52v1.53h-1.52Zm-1.52 1.53h1.52v1.52H9.15ZM7.62 0h4.57v1.52H7.62Z"/><path d="M10.67 12.19v-1.52h1.52V9.14h3.05V7.62h-4.57v1.52H9.15v1.53H7.62v4.57h1.53v-3.05zM7.62 4.57h3.05v1.52H7.62ZM6.1 6.09h1.52v1.53H6.1ZM4.57 1.52h3.05v1.53H4.57Zm0 6.1H6.1v3.05H4.57ZM3.05 3.05h1.52v1.52H3.05ZM1.53 4.57h1.52v3.05H1.53ZM0 7.62h1.53v4.57H0Z"/></g></svg>