<svg xmlns="http://www.w3.org/2000/svg" viewBox="0 0 32 32"><desc>Interface Essential Scisor Streamline Icon: https://streamlinehq.com</desc><g fill="currentColor"><path d="M25.91 10.67v1.52h4.57v1.52H32v-3.04zm3.04 3.04h1.53v1.53h-1.53Zm-3.04 1.53h3.04v1.52h-3.04Zm-3.05-3.05h3.05v1.52h-3.05Zm0 4.57h3.05v1.53h-3.05Zm-3.05-3.05h3.05v1.53h-3.05Zm-3.05 4.58h6.1v1.52h-6.1ZM19.81 6.1h1.52V0h-3.04v1.52h1.52zm-1.52 0h1.52v3.04h-1.52Zm-1.53 9.14h3.05v1.52h-3.05Zm0-6.1h1.53v3.05h-1.53Z"/><path d="M16.76 1.52h1.53v1.53h-1.53Zm-1.52 15.24v-1.52h-1.53v3.05h3.05v-1.53zm0-4.57h1.52v3.05h-1.52Zm0-9.14h1.52V6.1h-1.52ZM13.71 6.1h1.53v3.04h-1.53Zm-1.52 3.04h1.52v6.1h-1.52ZM9.14 18.29v-1.53H7.62v-1.52H6.1v-1.53H3.05v1.53H1.52v1.52H0v3.05h1.52v1.52h1.53v1.53H6.1v-1.53h1.52v-1.52h4.57v4.57h-1.52v1.53H9.14v3.04h1.53v1.53h1.52V32h3.05v-1.52h1.52v-1.53h1.53v-3.04h-1.53v-1.53h-1.52v-1.52h-1.53v-4.57ZM6.1 19.81H3.05v-3.05H6.1Zm9.14 6.1v3.04h-3.05v-3.04Z"/></g></svg>