<svg xmlns="http://www.w3.org/2000/svg" viewBox="0 0 32 32"><desc>Interface Essential Reflect Down Streamline Icon: https://streamlinehq.com</desc><path fill="currentColor" d="M29.71 28.96h1.53v1.52h-1.53Zm0-27.43h1.53v1.52h-1.53Zm-1.52 25.9h1.52v1.53h-1.52ZM11.43 15.24h19.81v1.52H11.43ZM28.19 3.05h1.52v1.52h-1.52ZM12.95 30.48h16.76V32H12.95Zm13.72-4.57h1.52v1.52h-1.52Zm0-21.34h1.52V6.1h-1.52Zm-1.53 19.81h1.53v1.53h-1.53Zm0-18.28h1.53v1.52h-1.53Zm-1.52 16.76h1.52v1.52h-1.52Zm0-15.24h1.52v1.53h-1.52Zm-1.53 13.72h1.53v1.52h-1.53Zm0-12.19h1.53v1.52h-1.53Zm-1.52 10.66h1.52v1.53h-1.52Zm0-9.14h1.52v1.52h-1.52Zm-1.52 10.67h1.52v1.52h-1.52Zm0-12.19h1.52v1.52h-1.52Zm-1.53 13.71h1.53v1.52h-1.53Zm0-15.24h1.53v1.53h-1.53ZM16 24.38h1.52v1.53H16ZM16 6.1h1.52v1.52H16Zm-1.52 19.81H16v1.52h-1.52Zm0-21.34H16V6.1h-1.52ZM12.95 0h16.76v1.53H12.95Zm0 27.43h1.53v1.53h-1.53Zm0-24.38h1.53v1.52h-1.53Zm-1.52 25.91h1.52v1.52h-1.52Zm0-27.43h1.52v1.52h-1.52Zm-4.57 25.9v-1.52h1.52v-1.53H9.9v-1.52h1.53v-1.52H9.9v-1.53H8.38v-1.52H6.86v-1.53H5.33v4.58H3.81v1.52h1.52v4.57zM3.81 7.62h3.05v1.53H3.81ZM2.29 19.81h1.52v1.53H2.29Zm0-10.66h1.52v1.52H2.29ZM.76 10.67h1.53v9.14H.76Z"/></svg>