<svg xmlns="http://www.w3.org/2000/svg" viewBox="0 0 32 32"><desc>Interface Essential Safari Compass Streamline Icon: https://streamlinehq.com</desc><path fill="currentColor" d="M30.47 12.19H32v7.62h-1.53Zm-1.52 7.62h1.52v3.05h-1.52Zm0-10.67h1.52v3.05h-1.52Zm-1.52 13.72h1.52v3.04h-1.52Zm0-10.67h1.52v7.62h-1.52Zm0-6.09h1.52v3.04h-1.52ZM25.9 25.9h1.53v1.53H25.9Zm0-6.09h1.53v3.05H25.9Zm0-10.67h1.53v3.05H25.9Zm0-4.57h1.53V6.1H25.9Zm-1.52 18.29h1.52v1.52h-1.52Zm0-7.62h1.52v1.52h-1.52Zm0-7.62h1.52v1.52h-1.52Zm-1.53 19.81h3.05v1.52h-3.05Zm0-3.05h1.53v1.52h-1.53Zm0-18.28h1.53v1.52h-1.53Zm0-3.05h3.05v1.52h-3.05Zm-1.52 18.28h1.52v1.53h-1.52Zm0-10.66h1.52v1.52h-1.52Zm-1.52 18.28h3.04v1.53h-3.04Zm0-3.05h3.04v1.53h-3.04Zm0-21.33h3.04V6.1h-3.04Zm0-3.05h3.04v1.53h-3.04Zm-1.53 12.19h-3.04v1.53h-1.53v4.57h4.57v-1.52h1.53v-3.05h1.52v-3.05h-3.05zm-6.09 16.77h7.62V32h-7.62Zm0-3.05h7.62v1.52h-7.62Zm3.05-3.05h1.52v1.52h-1.52Zm0-18.28h1.52v1.52h-1.52Zm-3.05-3.05h7.62v1.52h-7.62Zm0-3.05h7.62v1.52h-7.62ZM9.14 28.95h3.05v1.53H9.14Zm0-3.05h3.05v1.53H9.14Zm0-21.33h3.05V6.1H9.14Zm0-3.05h3.05v1.53H9.14Zm0 19.81h1.52v1.53H9.14Zm0-12.19h1.52v1.53H9.14ZM6.09 27.43h3.05v1.52H6.09Zm1.53-3.05h1.52v1.52H7.62Zm0-18.28h1.52v1.52H7.62ZM6.09 3.05h3.05v1.52H6.09Zm0 19.81h1.53v1.52H6.09Zm0-7.62h1.53v1.52H6.09Zm0-7.62h1.53v1.52H6.09ZM4.57 25.9h1.52v1.53H4.57Zm0-6.09h1.52v3.05H4.57Zm0-10.67h1.52v3.05H4.57Zm0-4.57h1.52V6.1H4.57ZM3.05 22.86h1.52v3.04H3.05Zm0-10.67h1.52v7.62H3.05Zm0-6.09h1.52v3.04H3.05ZM1.52 19.81h1.53v3.05H1.52Zm0-10.67h1.53v3.05H1.52ZM0 12.19h1.52v7.62H0Z"/></svg>