<svg xmlns="http://www.w3.org/2000/svg" viewBox="0 0 32 32"><desc>Interface Essential Touch Id Smartphone Streamline Icon: https://streamlinehq.com</desc><g fill="currentColor"><path d="M6.855 1.52h-1.52v28.96h1.52V32h18.29v-1.52h1.52V1.52h-1.52V0H6.855Zm9.15 0h3.04v1.53h-3.04Zm-3.05 0h1.52v1.53h-1.52Zm7.62 3.05V3.05h4.57v25.9H6.855V3.05h4.57v1.52Z"/><path d="M22.095 22.86h1.52v3.05h-1.52Zm0-15.24h1.52v3.05h-1.52Zm-1.52 7.62h1.52v4.57h-1.52Zm0-3.05h1.52v1.52h-1.52Zm-1.53-6.09h3.05v1.52h-3.05Zm0 19.81h3.05v1.52h-3.05Zm0-15.24h1.53v1.52h-1.53Zm-1.52 7.62h1.52v4.57h-1.52Zm0-4.58h1.52v3.05h-1.52Zm-1.52-4.57h3.04v1.53h-3.04Zm-3.05 13.72h4.57v1.52h-4.57Zm1.52-4.57h1.53v1.52h-1.53Zm0-6.1h3.05v1.52h-3.05Zm-1.52 1.52h1.52v4.58h-1.52Zm0-4.57h1.52v1.53h-1.52Zm-1.53 12.19h1.53v1.53h-1.53Zm0-10.66h1.53v1.52h-1.53ZM9.905 6.1h3.05v1.52h-3.05Zm0 19.81h3.05v1.52h-3.05Zm0-6.1h1.52v1.52h-1.52Zm0-7.62h1.52v6.1h-1.52Zm-1.52 10.67h1.52v3.05h-1.52Zm0-15.24h1.52v3.05h-1.52Z"/></g></svg>