<svg xmlns="http://www.w3.org/2000/svg" viewBox="0 0 32 32"><desc>Interface Essential Cog Search Streamline Icon: https://streamlinehq.com</desc><path fill="currentColor" d="M29.72 23.62h-1.53v-1.53h-1.52v-1.52h-1.53v-3.05h-1.52v3.05H22.1v1.52h-1.53v1.53h-3.04v1.52h3.04v1.52h1.53v1.53h1.52v1.52h1.52v1.53h4.58v-1.53h1.52v-4.57h-1.52Zm0 4.57h-1.53v-1.53h-1.52v-1.52h-1.53v-1.52h1.53v1.52h1.52v1.52h1.53ZM25.14 9.9h1.53v7.62h-1.53Zm-1.52-3.05h1.52V9.9h-1.52ZM22.1 5.33h1.52v1.52H22.1Zm-1.53 12.19h1.53v1.52h-1.53Zm1.53-4.57v1.52h-1.53V16h3.05v-4.57h-3.05v1.52zm-1.53-4.57h1.53V9.9h-1.53Zm0-4.57h1.53v1.52h-1.53Zm-1.52 15.23h1.52v1.53h-1.52Zm0-3.04h1.52v1.52h-1.52Zm0-6.1h1.52v1.53h-1.52Zm0-3.05h1.52v1.53h-1.52Zm-1.52 13.72h1.52v1.52h-1.52Zm0-15.24h1.52v1.52h-1.52Zm0-3.05h3.04v1.53h-3.04ZM16 19.04h1.53v1.53H16Zm0-7.61h1.53V16H16Zm0-4.58h1.53v1.53H16ZM9.91 25.14h7.62v1.52H9.91Zm4.57-3.05h-1.53v-1.52h-1.52v3.05H16v-3.05h-1.52zM11.43 16H16v1.52h-4.57Zm0-6.1H16v1.53h-4.57Zm1.52-4.57h1.53v1.52H16V3.81h-4.57v3.04h1.52zM9.91.76h7.62v1.52H9.91Zm0 18.28h1.52v1.53H9.91Zm0-7.61h1.52V16H9.91Zm0-4.58h1.52v1.53H9.91ZM6.86 23.62h3.05v1.52H6.86Zm1.52-3.05h1.53v1.52H8.38Zm0-15.24h1.53v1.52H8.38ZM6.86 2.28h3.05v1.53H6.86Zm0 16.76h1.52v1.53H6.86Zm0-3.04h1.52v1.52H6.86Zm0-6.1h1.52v1.53H6.86Zm0-3.05h1.52v1.53H6.86ZM5.34 22.09h1.52v1.53H5.34Zm0-4.57h1.52v1.52H5.34Zm0-3.05v-1.52h1.52v-1.52H3.81V16h3.05v-1.53zm0-6.09h1.52V9.9H5.34Zm0-4.57h1.52v1.52H5.34ZM3.81 20.57h1.53v1.52H3.81Zm0-15.24h1.53v1.52H3.81ZM2.29 17.52h1.52v3.05H2.29Zm0-10.67h1.52V9.9H2.29ZM.76 9.9h1.53v7.62H.76Z"/></svg>