<svg xmlns="http://www.w3.org/2000/svg" viewBox="0 0 32 32"><desc>Interface Essential Reflect Down Up Streamline Icon: https://streamlinehq.com</desc><path fill="currentColor" d="M29.71 1.52h1.53v1.52h-1.53Zm0 27.43h1.53v1.52h-1.53ZM28.19 3.04h1.52v1.53h-1.52Zm-16.76 12.2h19.81v1.52H11.43Zm16.76 12.19h1.52v1.52h-1.52ZM12.95 0h16.76v1.52H12.95Zm13.72 4.57h1.52v1.52h-1.52Zm0 21.33h1.52v1.53h-1.52ZM25.14 6.09h1.53v1.53h-1.53Zm0 18.29h1.53v1.52h-1.53ZM23.62 7.62h1.52v1.52h-1.52Zm0 15.23h1.52v1.53h-1.52ZM22.09 9.14h1.53v1.52h-1.53Zm0 12.19h1.53v1.52h-1.53Zm-1.52-10.67h1.52v1.53h-1.52Zm0 9.15h1.52v1.52h-1.52ZM19.05 9.14h1.52v1.52h-1.52Zm0 12.19h1.52v1.52h-1.52ZM17.52 7.62h1.53v1.52h-1.53Zm0 15.23h1.53v1.53h-1.53ZM16 6.09h1.52v1.53H16Zm0 18.29h1.52v1.52H16ZM14.48 4.57H16v1.52h-1.52Zm0 21.33H16v1.53h-1.52Zm-1.53 4.57h16.76V32H12.95Zm0-27.43h1.53v1.53h-1.53Zm0 24.39h1.53v1.52h-1.53ZM11.43 1.52h1.52v1.52h-1.52Zm0 27.43h1.52v1.52h-1.52Zm-6.1-13.71h1.53v-1.53h1.52v-1.52H9.9v-1.53h1.53V9.14H9.9V7.62H8.38V6.09H6.86V4.57H5.33v4.57H3.81v1.52h1.52zm-1.52 7.61h3.05v1.53H3.81ZM2.29 10.66h1.52v1.53H2.29Zm0 10.67h1.52v1.52H2.29ZM.76 12.19h1.53v9.14H.76Z"/></svg>