<svg xmlns="http://www.w3.org/2000/svg" viewBox="0 0 32 32"><desc>Interface Essential Face Id 1 Streamline Icon: https://streamlinehq.com</desc><g fill="currentColor"><path d="M28.95 9.14H32v1.53h-3.05Zm0 12.19H32v1.53h-3.05Zm0-6.09H32v1.52h-3.05Zm-1.52 12.19h1.52v1.52h-1.52Zm0-24.38h1.52v1.52h-1.52ZM25.91 25.9h1.52v1.53h-1.52Zm0-13.71h1.52v7.62h-1.52Zm0-7.62h1.52v1.52h-1.52Zm-1.53 15.24h1.53v3.05h-1.53Zm0-10.67h1.53v3.05h-1.53Zm-1.52-1.52h1.52v1.52h-1.52Zm-1.52 21.33h1.52V32h-1.52Zm0-4.57h-1.53v1.52h3.05v-1.52h1.52v-1.52h-3.04zm0-24.38h1.52v3.05h-1.52Zm-1.53 21.33h1.53v1.53h-1.53Zm0-15.24h3.05v1.53h-3.05ZM12.19 25.9h7.62v1.53h-7.62Zm3.05 3.05h1.52V32h-1.52Zm0-28.95h1.52v3.05h-1.52Zm-3.05 19.81h7.62v1.52h-7.62Zm0-15.24h7.62v1.52h-7.62Zm-1.52 19.81v-1.52H7.62v1.52h1.53v1.52h3.04v-1.52zm0-3.05h1.52v1.53h-1.52Z"/><path d="M12.19 13.71h1.53v-1.52h4.57v1.52h1.52v6.1h1.53v-9.14h-1.53V9.14h-7.62v1.53h-1.52v9.14h1.52zM9.15 6.09h3.04v1.53H9.15Zm0 22.86h1.52V32H9.15ZM9.15 0h1.52v3.05H9.15ZM7.62 7.62h1.53v1.52H7.62ZM6.1 19.81h1.52v3.05H6.1Zm0-10.67h1.52v3.05H6.1ZM4.57 25.9H6.1v1.53H4.57Zm0-13.71H6.1v7.62H4.57Zm0-7.62H6.1v1.52H4.57ZM3.05 27.43h1.52v1.52H3.05Zm0-24.38h1.52v1.52H3.05ZM0 21.33h3.05v1.53H0Zm0-6.09h3.05v1.52H0Zm0-6.1h3.05v1.53H0Z"/></g></svg>