<svg xmlns="http://www.w3.org/2000/svg" viewBox="0 0 32 32"><desc>Interface Essential Wrench 2 Streamline Icon: https://streamlinehq.com</desc><g fill="currentColor"><path d="M30.48 25.9h-1.53v1.53H32v-6.1h-1.52zM28.95 4.57v1.52h1.53v4.58H32v-6.1zm0 15.24h1.53v1.52h-1.53Zm0-9.14h1.53v1.52h-1.53Zm-1.52 13.71h1.52v1.52h-1.52Zm0-18.29h1.52v1.53h-1.52Z"/><path d="M22.86 22.86v4.57h1.52v1.52h1.53v1.53h-4.57V32h7.61v-3.05h-1.52v-1.52h-1.52v-3.05h1.52v-1.52zm0-10.67h6.09v1.52h-6.09Zm1.52-9.14h1.53v1.52h-1.53Zm-1.52 6.09h4.57V7.62h-3.05V4.57h-1.52zm3.05-7.62v1.53h1.52V0h-6.09v1.52zm-6.1 27.43h1.53v1.53h-1.53Zm0-9.14h1.53v1.52h-1.53Z"/><path d="M19.81 12.19h-1.52V9.14h-3.05V3.05h-1.52V1.52h-1.53V0H4.57v3.05H6.1V1.52h4.57v1.53h1.52v6.09h1.53v1.53h1.52v1.52h1.52v1.52h1.53v1.53h1.52v1.52h1.53v1.52h1.52v1.53h6.09v-1.53h-4.57v-1.52h-1.52v-3.05h-3.05zm0-10.67h1.53v1.53h-1.53Zm-1.52 21.34h1.52v6.09h-1.52Zm0-4.58h1.52v1.53h-1.52Z"/><path d="M18.29 3.05h1.52v6.09h-1.52Zm-1.53 18.28h1.53v1.53h-1.53Zm0-4.57h1.53v1.52h-1.53Zm-1.52 3.05h1.52v1.52h-1.52Zm0-4.57h1.52v1.52h-1.52Zm-1.52 6.09h1.52v1.53h-1.52Zm0-3.05h1.52v1.53h-1.52Zm0-4.57h1.52v1.53h-1.52Zm-1.53 9.15h1.53v6.09h-1.53Zm0-6.1h1.53v1.52h-1.53Zm0-4.57h1.53v1.52h-1.53Zm-1.52 16.76h1.52v1.53h-1.52Zm0-13.71h1.52v1.52h-1.52Zm0-4.57h1.52v1.52h-1.52Zm-1.52 6.09h1.52v1.52H9.15Zm0-3.05h1.52v1.53H9.15ZM6.1 30.48v-1.53H4.57V32h6.1v-1.52zm3.05-7.62H4.57v1.52h3.05v3.05h1.53zm-6.1-10.67h6.1v1.52h-6.1ZM6.1 27.43h1.52v1.52H6.1Zm0-24.38h1.52v1.52H6.1ZM3.05 18.28h6.1v1.53h-6.1Zm6.1-9.14V4.57H7.62v3.05H4.57v1.52zm-6.1 15.24h1.52v1.52H3.05Zm0-18.29h1.52v1.53H3.05Z"/><path d="M1.53 19.81h1.52v1.52H1.53Zm0-9.14h1.52v1.52H1.53Zm0 10.66H0v6.1h3.05V25.9H1.53zm0-15.24h1.52V4.57H0v6.1h1.53z"/></g></svg>