<svg xmlns="http://www.w3.org/2000/svg" viewBox="0 0 32 32"><desc>Interface Essential Finger Print Scan Streamline Icon: https://streamlinehq.com</desc><path fill="currentColor" d="M27.43 10.67h1.52v13.71h-1.52Zm0-3.05h1.52v1.52h-1.52Zm-1.52 16.76h1.52v3.05h-1.52Zm0-19.81h1.52v3.05h-1.52Zm-1.53 13.72h1.53v4.57h-1.53Zm0-9.15h1.53v4.57h-1.53Zm-1.52 13.72h1.52v3.05h-1.52Zm0-16.76h1.52v3.04h-1.52Zm-1.53 22.85h1.53v1.53h-1.53Zm0-18.28h1.53v10.66h-1.53Zm-1.52-6.1h3.05V6.1h-3.05Zm1.52-3.05h1.53v1.53h-1.53Zm-1.52 24.39h3.05v1.52h-3.05Zm0-16.77h1.52v1.53h-1.52Zm-1.52 21.34h3.04V32h-3.04Zm0-7.62h1.52v1.52h-1.52Zm0-6.1h1.52v3.05h-1.52Zm0-4.57h1.52v3.05h-1.52Zm-1.53-9.14h3.05v1.52h-3.05Zm-4.57 24.38h7.62v1.52h-7.62Zm3.05-16.76h3.05v1.52h-3.05Zm-1.53 9.14h4.58v1.52h-4.58Zm1.53-6.1h1.52v4.58h-1.52ZM13.71 6.1h4.58v1.52h-4.58Zm0 18.28h4.58v1.53h-4.58ZM12.19 3.05h3.05v1.52h-3.05Zm-1.52 27.43h4.57V32h-4.57Zm1.52-7.62h1.52v1.52h-1.52Zm0-9.15h1.52v6.1h-1.52ZM10.67 0h10.66v1.52H10.67Zm0 9.14h1.52v1.53h-1.52ZM9.14 4.57h3.05V6.1H9.14ZM7.62 28.95h3.05v1.53H7.62Zm1.52-9.14h1.53v1.52H9.14Zm0-4.57h1.53v3.05H9.14Zm0-4.57h1.53v3.04H9.14ZM7.62 22.86h1.52v3.05H7.62Zm0-16.76h1.52v3.04H7.62ZM6.1 27.43h1.52v1.52H6.1Zm0-16.76h1.52v12.19H6.1Zm0-7.62h1.52v1.52H6.1ZM4.57 24.38H6.1v3.05H4.57Zm0-19.81H6.1v3.05H4.57ZM3.05 19.81h1.52v4.57H3.05Zm0-12.19h1.52v10.67H3.05Z"/></svg>