<svg xmlns="http://www.w3.org/2000/svg" viewBox="0 0 32 32"><desc>Interface Essential Filter Streamline Icon: https://streamlinehq.com</desc><g fill="currentColor"><path d="M28.955 4.57h1.52v7.62h-1.52Zm-1.52 7.62h1.52v1.52h-1.52Zm0-9.14h1.52v1.52h-1.52Zm-1.53 10.66h1.53v1.53h-1.53Zm-1.52 1.53h1.52v1.52h-1.52Z"/><path d="M24.385 3.05H7.625v1.52h-3.05v3.05h3.05v1.52h3.04v1.53h10.67V9.14h3.05V7.62h3.05V4.57h-3.05zm0-1.53h3.05v1.53h-3.05Zm-1.53 15.24h1.53v1.53h-1.53Zm-1.52 1.53h1.52v1.52h-1.52Zm-1.52 1.52h1.52v1.52h-1.52Zm-1.53 1.52h1.53v7.62h-1.53Zm-1.52 7.62h1.52v1.53h-1.52Zm-3.05 1.53h3.05V32h-3.05Zm-1.52-9.15h1.52v9.15h-1.52Zm-1.53-1.52h1.53v1.52h-1.53Zm-1.52-1.52h1.52v1.52h-1.52ZM7.625 0h16.76v1.52H7.625Zm0 16.76h1.52v1.53h-1.52Zm-1.53-1.52h1.53v1.52h-1.53ZM4.575 1.52h3.05v1.53h-3.05Zm0 12.19h1.52v1.53h-1.52Zm-1.52-1.52h1.52v1.52h-1.52Zm0-9.14h1.52v1.52h-1.52Zm-1.53 1.52h1.53v7.62h-1.53Z"/></g></svg>