<svg xmlns="http://www.w3.org/2000/svg" viewBox="0 0 32 32"><desc>Interface Essential Alarm Bell Sleep Streamline Icon: https://streamlinehq.com</desc><path fill="currentColor" d="M30.48 3.05H32v1.52h-1.52Zm-1.53 1.52h1.53v1.52h-1.53Zm-4.57-3.05h6.1v1.53h-6.1Zm3.05 22.86h1.52v3.05h-1.52Zm0-18.29h1.52v1.53h-1.52Zm-1.52 21.34h1.52v1.52h-1.52Zm0-4.57h1.52v1.52h-1.52Zm0-12.19H32v1.52h-6.09Zm0-3.05h1.52v1.52h-1.52Zm-1.53 7.62h1.53v7.62h-1.53Zm0-6.1h1.53v1.53h-1.53Zm-1.52 19.81h3.05v1.53h-3.05Zm0-3.05h1.52v1.53h-1.52Zm0-13.71h1.52v3.05h-1.52ZM12.19 27.43h1.53v1.52h4.57v-1.52h1.52V25.9h3.05v-1.52H9.15v1.52h3.04zm9.15-16.76h1.52v1.52h-1.52ZM9.15 30.48h13.71V32H9.15Zm9.14-21.34h3.05v1.53h-3.05Zm-4.57-1.52h4.57v1.52h-4.57Zm-3.05 1.52h3.05v1.53h-3.05Zm-1.52 1.53h1.52v1.52H9.15Zm0-9.15h1.52v1.53H9.15ZM6.1 28.95h3.05v1.53H6.1Zm1.52-3.05h1.53v1.53H7.62Zm0-13.71h1.53v3.05H7.62Zm0-6.1h3.05v1.53H7.62Zm0-3.04h1.53v1.52H7.62ZM6.1 0h3.05v1.52H6.1Zm0 15.24h1.52v7.62H6.1Zm0-10.67h1.52v1.52H6.1ZM4.57 27.43H6.1v1.52H4.57Zm0-4.57H6.1v1.52H4.57Zm-1.52 1.52h1.52v3.05H3.05Zm0-12.19h1.52v1.52H3.05Zm-1.52 4.57h3.04v1.52H1.53Zm0-3.05h1.52v1.53H1.53ZM0 10.67h3.05v1.52H0Zm0 4.57h1.53v1.52H0Z"/></svg>