<svg xmlns="http://www.w3.org/2000/svg" viewBox="0 0 32 32"><desc>Interface Essential Alert Triangle 1 Streamline Icon: https://streamlinehq.com</desc><path fill="currentColor" d="M30.48 27.43H32v3.05h-1.52Zm-1.53-3.05h1.53v3.05h-1.53Zm-27.43 6.1h28.96V32H1.52Zm25.91-9.15h1.52v3.05h-1.52Zm-1.53-3.04h1.53v3.04H25.9Zm-1.52-3.05h1.52v3.05h-1.52Zm-1.52-3.05h1.52v3.05h-1.52Zm-1.53-3.05h1.53v3.05h-1.53Zm-1.52-3.05h1.52v3.05h-1.52Zm-1.52-3.04h1.52v3.04h-1.52Zm0 18.28h-4.58v1.53h-1.52v4.57h1.52v1.52h4.58v-1.52h1.52v-4.57h-1.52zm0-12.19h-4.58v1.53h-1.52v6.09h1.52v3.05h4.58v-3.05h1.52v-6.09h-1.52Zm0 6.1h-1.53v-3.05h-1.52v-1.52h1.52v1.52h1.53ZM16.76 1.52h1.53v1.53h-1.53ZM15.24 0h1.52v1.52h-1.52Zm-1.53 1.52h1.53v1.53h-1.53Zm-1.52 1.53h1.52v3.04h-1.52Zm-1.52 3.04h1.52v3.05h-1.52ZM9.14 9.14h1.53v3.05H9.14Zm-1.52 3.05h1.52v3.05H7.62Zm-1.53 3.05h1.53v3.05H6.09Zm-1.52 3.05h1.52v3.04H4.57Zm-1.52 3.04h1.52v3.05H3.05Zm-1.53 3.05h1.53v3.05H1.52ZM0 27.43h1.52v3.05H0Z"/></svg>