<svg xmlns="http://www.w3.org/2000/svg" viewBox="0 0 32 32"><desc>Interface Essential Pin Streamline Icon: https://streamlinehq.com</desc><g fill="currentColor"><path d="M29.715 8.38h1.52v3.05h-1.52Zm-1.52-1.52h1.52v1.52h-1.52Zm-1.53 4.57h3.05v1.52h-3.05Zm0-6.1h1.53v1.53h-1.53Zm-1.52 4.57h1.52v1.53h-1.52Zm0-6.09h1.52v1.52h-1.52Zm-1.53 7.62h1.53v1.52h-1.53Zm0-3.05h1.53V9.9h-1.53Zm0-6.1h1.53v1.53h-1.53Zm-1.52 15.24h1.52v4.57h-1.52Zm0-4.57h1.52v1.52h-1.52Zm0-6.09h1.52v1.52h-1.52Zm-1.52-6.1h3.04v1.52h-3.04Zm0 21.33h1.52v3.05h-1.52Zm0-7.62h1.52v3.05h-1.52Zm0-9.14h1.52v1.53h-1.52Zm-1.53 19.81h1.53v1.52h-1.53Zm0-18.28h1.53v1.52h-1.53Z"/><path d="M19.045 2.28h1.53v3.05h-1.53ZM17.525 16h1.52v1.52h-1.52Zm0-7.62h1.52V9.9h-1.52Zm-1.52 18.28h3.04v1.53h-3.04Zm0-12.19h1.52V16h-1.52Zm-1.53 10.67h1.53v1.52h-1.53Zm0-12.19h1.53v1.52h-1.53Zm0-3.05h3.05v1.53h-3.05Zm-1.52 13.72h1.52v1.52h-1.52Zm-9.14 6.09h1.52v-1.52h1.52v-1.53h1.53v-1.52h1.52v-1.52h3.05v-1.53h-1.53v-1.52h-1.52v-1.52h-1.52v3.04h-1.53v1.53h-1.52v1.52h-1.52v1.52h-1.53v1.53H.765v3.05h3.05zm6.09-21.33h4.57V9.9h-4.57ZM6.855 9.9h3.05v1.53h-3.05Zm0 7.62h1.53v1.53h-1.53ZM5.335 16h1.52v1.52h-1.52Zm0-4.57h1.52v1.52h-1.52Zm-1.52 1.52h1.52V16h-1.52Z"/></g></svg>