<svg xmlns="http://www.w3.org/2000/svg" viewBox="0 0 32 32"><desc>Interface Essential Blutooth Streamline Icon: https://streamlinehq.com</desc><path fill="currentColor" d="M30.47 12.19H32v7.62h-1.53Zm-1.52 7.62h1.52v3.05h-1.52Zm0-10.67h1.52v3.05h-1.52Zm-1.52 13.72h1.52v3.04h-1.52Zm0-16.76h1.52v3.04h-1.52ZM25.9 25.9h1.53v1.53H25.9Zm0-21.33h1.53V6.1H25.9Zm-3.05 22.86h3.05v1.52h-3.05Zm0-24.38h3.05v1.52h-3.05Zm0 6.09h-1.52V7.62h-1.52V6.1h-1.53V4.57h-3.04v9.14h-1.53v-1.52h-1.52v-1.52h-1.53V9.14H9.14V7.62H7.62v3.05h1.52v1.52h1.52v1.52h1.53v1.53h1.52v1.52h-1.52v1.53h-1.53v1.52H9.14v1.52H7.62v3.05h1.52v-1.52h1.52v-1.53h1.53v-1.52h1.52v-1.52h1.53v9.14h3.04V25.9h1.53v-1.52h1.52v-1.52h1.52v-1.53h1.53v-1.52h-1.53v-1.52h-1.52v-1.53h-1.52v-1.52h1.52v-1.53h1.52v-1.52h1.53v-1.52h-1.53Zm-1.52 10.67v1.52h-1.52v1.53h-1.53v1.52h-1.52v-7.62h1.52v1.53h1.53v1.52Zm0-7.62h-1.52v1.52h-1.53v1.53h-1.52V7.62h1.52v1.52h1.53v1.53h1.52Zm-1.52 16.76h3.04v1.53h-3.04Zm0-27.43h3.04v1.53h-3.04Zm-7.62 28.96h7.62V32h-7.62Zm0-30.48h7.62v1.52h-7.62ZM9.14 28.95h3.05v1.53H9.14Zm0-27.43h3.05v1.53H9.14ZM6.09 27.43h3.05v1.52H6.09Zm0-24.38h3.05v1.52H6.09ZM4.57 25.9h1.52v1.53H4.57Zm0-21.33h1.52V6.1H4.57ZM3.05 22.86h1.52v3.04H3.05Zm0-16.76h1.52v3.04H3.05ZM1.52 19.81h1.53v3.05H1.52Zm0-10.67h1.53v3.05H1.52ZM0 12.19h1.52v7.62H0Z"/></svg>