<svg xmlns="http://www.w3.org/2000/svg" viewBox="0 0 32 32"><desc>Interface Essential Heart Favorite Streamline Icon: https://streamlinehq.com</desc><path fill="currentColor" d="M30.47 8.38H32V16h-1.53ZM28.95 16h1.52v3.05h-1.52Zm0-9.14h1.52v1.52h-1.52Zm-1.52 12.19h1.52v1.52h-1.52Zm0-9.15h1.52v3.05h-1.52Zm0-4.57h1.52v1.53h-1.52ZM25.9 8.38h1.53V9.9H25.9Zm-1.52 12.19h3.05v1.52h-3.05ZM22.85 6.86h3.05v1.52h-3.05Zm-1.52 15.23h3.05v1.53h-3.05ZM19.81 3.81h7.62v1.52h-7.62Zm-1.53 19.81h3.05v1.52h-3.05Zm0-18.29h1.53v1.53h-1.53Zm-1.52 19.81h1.52v1.52h-1.52Zm0-18.28h1.52v1.52h-1.52Zm-1.52 19.8h1.52v1.53h-1.52Zm0-18.28h1.52V9.9h-1.52Zm-1.53 16.76h1.53v1.52h-1.53Zm0-18.28h1.53v1.52h-1.53Zm-3.05 16.76h3.05v1.52h-3.05Zm1.53-18.29h1.52v1.53h-1.52ZM7.62 22.09h3.04v1.53H7.62Zm-3.05-1.52h3.05v1.52H4.57Zm0-16.76h7.62v1.52H4.57ZM3.05 19.05h1.52v1.52H3.05Zm0-13.72h1.52v1.53H3.05ZM1.52 16h1.53v3.05H1.52Zm0-9.14h1.53v1.52H1.52ZM0 8.38h1.52V16H0Z"/></svg>