<svg xmlns="http://www.w3.org/2000/svg" viewBox="0 0 32 32"><desc>Interface Essential Key 1 Streamline Icon: https://streamlinehq.com</desc><g fill="currentColor"><path d="M28.195 7.62h1.52v6.09h-1.52Zm-1.52 6.09h1.52v1.53h-1.52Zm0-7.61h1.52v1.52h-1.52Z"/><path d="M25.145 19.81h3.05v1.52h-3.05v4.58h3.05v1.52h-3.05v3.05h1.53v-1.53h3.04v-4.57h-3.04v-1.52h3.04v-4.57h-3.04v-3.05h-1.53zm-3.05 10.67h3.05V32h-3.05Zm-1.52-25.91V6.1h3.05v1.52h-3.05v4.57h6.1V7.62h-1.53V6.1h1.53V4.57h-1.53V3.05h-1.52v1.52Zm3.05 6.1H22.1V9.14h1.53Zm-1.53-9.15h1.53v1.53h-1.53Zm0 13.72h-1.52v-1.53h-1.52v3.05h1.52v13.72h1.52zm-3.04-9.14h1.52v1.52h-1.52Zm-3.05 3.04v3.05h1.52v1.52h1.53V7.62h-1.53v1.52zm-1.53 7.62h4.58v1.53h-4.58Zm0-10.66h3.05v1.52h-3.05Zm0-6.1h7.62v1.52h-7.62Zm0 22.86h1.53v1.52h-1.53Zm-1.52 1.52h1.52v1.53h-1.52Zm0-3.05h1.52v1.53h-1.52Zm0-3.04h1.52v1.52h-1.52Zm0-10.67h1.52v1.52h-1.52Zm0-6.1h1.52v1.53h-1.52Zm-1.52 24.39h1.52v1.52h-1.52Zm0-6.1h1.52v1.52h-1.52Zm0-10.67h1.52v6.1h-1.52Zm0-6.09h1.52v4.57h-1.52Zm-1.53 21.33h1.53v1.53h-1.53Zm0-9.14h1.53v1.52h-1.53Zm-1.52 7.62h1.52v1.52h-1.52Zm0-6.1h1.52v1.53h-1.52Zm-1.52 7.62h1.52v1.53h-1.52Zm0-6.09h1.52v1.52h-1.52Zm-1.53 7.62h1.53v1.52h-1.53Zm0-6.1h1.53v1.52h-1.53Zm-1.52 4.57h1.52v1.53h-1.52Zm0-3.05h1.52v1.53h-1.52Zm-1.53 1.53h1.53v1.52h-1.53Z"/></g></svg>