<svg xmlns="http://www.w3.org/2000/svg" viewBox="0 0 32 32"><desc>Interface Essential Wrench 1 Streamline Icon: https://streamlinehq.com</desc><g fill="currentColor"><path d="M30.48 25.9h-1.53v1.53H32v-6.1h-1.52zm-1.53-6.09h1.53v1.52h-1.53Zm-1.52 4.57h1.52v1.52h-1.52Zm-4.57-1.52v4.57h1.52v1.52h1.53v1.53h-4.57V32h6.09v-4.57h-1.52v-3.05h1.52v-1.52zm-3.05 6.09h1.53v1.53h-1.53Zm0-9.14h1.53v1.52h-1.53Zm-1.52 3.05h1.52v6.09h-1.52Zm0-4.58h1.52v1.53h-1.52Zm-1.53 3.05h1.53v1.53h-1.53Zm0-4.57h1.53v1.52h-1.53Zm-1.52 3.05h1.52v1.52h-1.52Zm0-4.57h1.52v1.52h-1.52Zm-1.52 3.04h1.52v1.53h-1.52Zm0-4.57h1.52v1.53h-1.52Zm-1.53 3.05h1.53v1.52h-1.53Zm0-4.57h1.53v1.52h-1.53Zm-1.52 3.05h1.52v1.52h-1.52Zm0-4.57h1.52v1.52h-1.52Zm-1.52 3.04h1.52v1.53H9.15Zm-6.1-1.52h6.1v1.52h-6.1ZM6.1 3.05h1.52v1.52H6.1Z"/><path d="M10.67 1.52v1.53h1.52v6.09h1.53v1.53h1.52v1.52h1.52v1.52h1.53v1.53h1.52v1.52h1.53v1.52h1.52v1.53h6.09v-1.53h-4.57v-1.52h-1.52v-1.52h-1.52v-1.53h-1.53v-1.52h-1.52v-1.52h-1.53V9.14h-1.52V3.05h-1.52V1.52h-1.53V0H4.57v3.05H6.1V1.52zm-9.14 9.15h1.52v1.52H1.53Z"/><path d="M1.53 6.09h1.52v1.53h1.52v1.52h4.58V4.57H7.62v3.05H6.1V6.09H4.57V4.57H0v6.1h1.53z"/></g></svg>