<svg xmlns="http://www.w3.org/2000/svg" viewBox="0 0 32 32"><desc>Interface Essential Skull 2 Streamline Icon: https://streamlinehq.com</desc><g fill="currentColor"><path d="M23.615 8.38v3.05h1.53V8.38h1.52V6.85h1.52V5.33h3.05V2.28h-1.52V.76h-3.05v3.05h-1.52v1.52h-1.53v1.52h-3.04v1.53zm3.05 6.09h1.52v6.1h-1.52Zm-1.52 6.1h1.52v1.52h-1.52Zm0-9.14h1.52v3.04h-1.52Zm-1.53 12.19h-1.52v4.57h1.52v-1.53h1.53v1.53h1.52v3.05h3.05v-1.53h1.52v-3.05h-3.05v-1.52h-1.52v-1.52h-1.52v-1.53h-1.53zm-4.57-6.1h3.05V16h1.52v-3.05h-1.52v-1.52h-3.05v1.52h-1.52V16h1.52zm0 7.62h-1.52v3.05h-3.05v-3.05h-1.52v3.05h-3.05v1.52h12.19v-1.52h-3.05zm-4.57-6.1h3.05v1.53h-3.05Zm-4.57-1.52h3.05V16h1.52v-3.05h-1.52v-1.52h-3.05v1.52h-1.52V16h1.52z"/><path d="M11.425 5.33h9.15v1.52h-9.15Zm-6.09 18.29v1.52h-1.53v1.52H.765v3.05h1.52v1.53h3.05v-3.05h1.52v-1.53h1.53v1.53h1.52v-4.57h-1.52v-1.53h-1.53v1.53zm3.05-15.24h3.04V6.85h-3.04V5.33h-1.53V3.81h-1.52V.76h-3.05v1.52H.765v3.05h3.04v1.52h1.53v1.53h1.52v3.05h1.53zm-3.05 12.19h1.52v1.52h-1.52Zm0-9.14h1.52v3.04h-1.52Zm-1.53 3.04h1.53v6.1h-1.53Z"/></g></svg>