<svg xmlns="http://www.w3.org/2000/svg" viewBox="0 0 32 32"><desc>Interface Essential Search Binocular Streamline Icon: https://streamlinehq.com</desc><g fill="currentColor"><path d="M30.47 19.045H32v6.09h-1.53Zm-1.52 6.09h1.52v1.53h-1.52Zm-1.52-9.14v1.53h1.52v1.52h1.52v-6.1h-1.52v3.05zm0 10.67h1.52v1.52h-1.52Z"/><path d="M27.43 8.375h1.52v4.57h-1.52Zm0 9.15h-6.1v1.52h4.57v1.52h-1.52v1.53h-1.53v1.52h-1.52v-4.57h-1.52v6.09h1.52v1.53h6.1v-1.53h1.52v-6.09h-1.52zM25.9 3.805h1.53v4.57H25.9Zm-4.57 24.38h6.1v1.53h-6.1Zm0-13.71h6.1v1.52h-6.1Zm-1.52 12.19h1.52v1.52h-1.52Zm0-10.67h1.52v1.53h-1.52Zm-1.53-13.71h7.62v1.52h-7.62Z"/><path d="M18.28 25.135h1.53v1.53h-1.53Zm0-6.09h1.53v-1.52h-3.05v7.61h1.52zm1.53-7.62h-1.53v-1.52h-4.57v1.52h-1.52v1.52h1.52v1.53h4.57v-1.53h1.53zm-4.57 4.57h1.52v1.53h-1.52Zm-1.53-7.62h4.57v-4.57h-1.52v3.05h-1.52v-3.05h-1.53zm-1.52 16.76h1.52v1.53h-1.52Zm0-6.09h1.52v6.09h1.53v-7.61h-3.05zm-1.53 7.62h1.53v1.52h-1.53Zm0-10.67h1.53v1.53h-1.53Z"/><path d="M10.66 17.525H4.57v1.52h4.57v1.52H7.62v1.53H6.09v1.52H4.57v-4.57H3.05v6.09h1.52v1.53h6.09v-1.53h1.53v-6.09h-1.53zm-6.09 10.66h6.09v1.53H4.57Zm1.52-25.9h7.62v1.52H6.09Zm-1.52 12.19h6.09v1.52H4.57Zm0-10.67h1.52v4.57H4.57Zm-1.52 22.86h1.52v1.52H3.05Zm0-18.29h1.52v4.57H3.05Zm-1.53 16.76h1.53v1.53H1.52Z"/><path d="M3.05 17.525h1.52v-1.53H3.05v-3.05H1.52v6.1h1.53zM0 19.045h1.52v6.09H0Z"/></g></svg>