<svg xmlns="http://www.w3.org/2000/svg" viewBox="0 0 32 32"><desc>Interface Essential Wifi Signal Streamline Icon: https://streamlinehq.com</desc><path fill="currentColor" d="M28.955 9.14h1.52v3.05h-1.52Zm-1.53-3.05h1.53v3.05h-1.53Zm-1.52-1.52h1.52v1.52h-1.52Zm-7.62 25.91v-1.53h-1.52v1.53h-1.53v-1.53h-1.52v1.53h-6.1v-1.53h-1.52V32h19.81v-3.05h-1.52v1.53zm4.57-27.43h3.05v1.52h-3.05Zm0 6.09h1.53v3.05h-1.53Zm-1.52 18.29v1.52h3.05V25.9h-1.53v1.53zm0-4.57h1.52v3.04h-1.52Zm0-15.24h1.52v1.52h-1.52Zm-1.53-6.1h3.05v1.53h-3.05Zm0 24.38h1.53v1.53h-1.53Zm0-6.09h1.53v3.05h-1.53Zm-1.52 7.62h1.52v1.52h-1.52Zm0-3.05h1.52v1.52h-1.52Zm0-7.62h1.52v3.05h-1.52Zm0-10.67h3.05v1.53h-3.05ZM12.195 0h7.61v1.52h-7.61Zm4.57 22.86h1.52v1.52h-1.52Zm0-3.05h1.52v1.52h-1.52Zm0-6.1h1.52v3.05h-1.52Zm-3.05-9.14h4.57v1.52h-4.57Zm1.52 16.76h1.53v1.53h-1.53Zm0-12.19h1.53v4.57h-1.53Zm-1.52 13.72h1.52v1.52h-1.52Zm0-3.05h1.52v1.52h-1.52Zm0-6.1h1.52v3.05h-1.52Zm-1.52 13.72h1.52v1.52h-1.52Zm0-3.05h1.52v1.52h-1.52Zm0-7.62h1.52v3.05h-1.52Zm-1.53 9.14h1.53v1.53h-1.53Zm0-6.09h1.53v3.05h-1.53Zm0-13.72h3.05v1.53h-3.05Zm-3.05 22.86h3.05v-1.52h-1.52V25.9h-1.53zm1.53-6.09h1.52v3.04h-1.52Zm0-15.24h1.52v1.52h-1.52Zm0-6.1h3.05v1.53h-3.05Zm-1.53 7.62h1.53v3.05h-1.53Zm-1.52-6.09h3.05v1.52h-3.05Zm-1.52 1.52h1.52v1.52h-1.52Zm-1.53 1.52h1.53v3.05h-1.53Zm-1.52 3.05h1.52v3.05h-1.52Z"/></svg>