<svg xmlns="http://www.w3.org/2000/svg" viewBox="0 0 32 32"><desc>Interface Essential Microphone Streamline Icon: https://streamlinehq.com</desc><g fill="currentColor"><path d="M25.905 10.67h-1.53V3.05h-1.52v13.71H9.145V3.05h-1.53v7.62H6.1V9.14H4.575v12.19H6.1v-9.14h1.52v7.62h1.53v1.52h1.52v1.53h3.05v1.52H9.145v1.52h4.57v1.53h-6.1v1.52h16.76v-1.52h-6.09V25.9h4.57v-1.52h-4.57v-1.52h3.05v-1.53h1.52v-1.52h1.52v-7.62h1.53v9.14h1.52V9.14h-1.52Zm-9.14 16.76h-1.53v-4.57h1.53Z"/><path d="M24.375 21.33h1.53v1.53h-1.53Zm-16.76 9.15v-1.53h-1.52v1.53h-1.52V32h22.85v-1.52h-1.52v-1.53h-1.53v1.53zm15.24-7.62h1.52v1.52h-1.52Zm-1.52-21.34h1.52v1.53h-1.52Zm-1.53 9.15h1.53v1.52h-1.53Zm0-6.1h1.53V6.1h-1.53Zm-1.52 9.14h1.52v1.53h-1.52Zm0-6.09h1.52v1.52h-1.52Zm-3.05 3.05h1.53v1.52h-1.53Zm0-6.1h1.53V6.1h-1.53Zm-3.05 9.14h1.53v1.53h-1.53Zm0-6.09h1.53v1.52h-1.53ZM10.665 0h10.67v1.52h-10.67Zm0 10.67h1.52v1.52h-1.52Zm0-6.1h1.52V6.1h-1.52Zm-1.52-3.05h1.52v1.53h-1.52Zm-1.53 21.34h1.53v1.52h-1.53Zm-1.52-1.53h1.52v1.53h-1.52Z"/></g></svg>