<svg xmlns="http://www.w3.org/2000/svg" viewBox="0 0 32 32"><desc>Interface Essential Paginate Filter Picture Streamline Icon: https://streamlinehq.com</desc><g fill="currentColor"><path d="M29.71 2.28h1.53v22.86h-1.53ZM6.85 25.14v1.52h1.53v1.53H9.9v-1.53h3.05v1.53h1.52v-1.53h3.05v1.53h1.52v-1.53h3.05v1.53h1.53v-1.53h1.52v1.53h-1.52v1.52h-3.05v-1.52h-1.53v1.52H16v-1.52h-1.53v1.52h-3.04v-1.52H9.9v1.52H6.85v-1.52H5.33v1.52H2.28v1.53h22.86v-1.53h1.52v-3.05h3.05v-1.52zm19.81-12.19h-3.04v1.52h3.04v4.58h1.53V5.33h-1.53zm-3.04 4.57h-1.53v1.53H9.9v1.52h16.76v-1.52h-3.04z"/><path d="M22.09 6.85h3.05V9.9h-3.05Zm0 7.62h1.53V16h-1.53ZM20.57 16h1.52v1.52h-1.52Zm-1.53-1.53h1.53V16h-1.53Zm-1.52-1.52h1.52v1.52h-1.52Zm-3.05-1.52h3.05v1.52h-3.05Zm-1.52 1.52h1.52v1.52h-1.52Zm-1.52 1.52h1.52V16h-1.52ZM9.9 3.81h16.76v1.52H9.9Zm1.53 13.71V16H9.9V5.33H8.38v13.72H9.9v-1.53zM6.85.76h22.86v1.52H6.85Zm-3.04 25.9h1.52v1.53H3.81Z"/><path d="M3.81 26.66v-1.52H2.28v-3.05h1.53v-1.52H2.28v-3.05h1.53V16H2.28v-3.05h1.53v-1.52H2.28V8.38h1.53V6.85h1.52v1.53H3.81V9.9h1.52v3.05H3.81v1.52h1.52v3.05H3.81v1.53h1.52v3.04H3.81v1.53h1.52v1.52h1.52V2.28H5.33v3.05H2.28v1.52H.76v22.86h1.52v-3.05z"/></g></svg>