<svg xmlns="http://www.w3.org/2000/svg" viewBox="0 0 32 32"><desc>Interface Essential Loading 25 Percent 1 Streamline Icon: https://streamlinehq.com</desc><g fill="currentColor"><path d="M.765 12.95h1.52v7.62H.765Zm1.52 7.62h1.53v3.05h-1.53Zm0-10.67h1.53v3.05h-1.53Zm1.53 13.72h1.52v3.04h-1.52Zm0-16.77h1.52V9.9h-1.52Zm1.52 19.81h3.05v1.53h-3.05Zm0-21.33h3.05v1.52h-3.05Zm3.05 22.86h3.04v1.52h-3.04Zm0-24.38h3.04v1.52h-3.04Zm3.04 19.81h1.53v1.52h-1.53Zm0-4.57h1.53v1.52h-1.53Zm3.05-1.53V16h-3.05v-1.53h3.05V9.9h-4.57v1.53h3.05v1.52h-3.05v4.57zm-1.52 4.57h1.52v1.53h-1.52Zm1.52-1.52h1.53v1.52h-1.53Zm-3.05 9.14h7.62v1.53h-7.62Zm4.58-6.09h1.52v1.52h-1.52Zm0-4.57h1.52v1.52h-1.52Zm4.57-6.1h-3.05v-1.52h3.05V9.9h-4.57v4.57h3.04V16h-3.04v1.52h4.57zm-1.53 15.24h3.05v1.52h-3.05Zm3.05-1.53h3.05v1.53h-3.05Zm3.05-3.04h1.52v3.04h-1.52Zm1.52-3.05h1.53v3.05h-1.53Z"/><path d="M14.475 5.33h3.05v1.52h3.05v1.53h3.05v3.05h1.52v3.04h1.52v3.05h1.53v3.05h1.52v-3.05h1.52v-4.57h-1.52V9.9h-1.52V6.85h-1.53V5.33h-1.52V3.81h-3.05V2.28h-3.05V.76h-4.57v1.52h-3.05v1.53h3.05z"/></g></svg>