<svg xmlns="http://www.w3.org/2000/svg" viewBox="0 0 32 32"><desc>Interface Essential Navigation Right Circle 2 Streamline Icon: https://streamlinehq.com</desc><path fill="currentColor" d="M0 12.19h1.52v7.62H0Zm1.52 7.62h1.53v3.05H1.52Zm0-10.67h1.53v3.05H1.52Zm1.53 13.72h1.52v3.04H3.05Zm0-16.77h1.52v3.05H3.05ZM4.57 25.9H6.1v1.53H4.57Zm0-21.33H6.1v1.52H4.57ZM6.1 27.43h3.04v1.52H6.1Zm18.28-15.24h-1.52v-1.52h-1.53V9.14h-1.52V7.62h-1.52v3.05H9.14v1.52H7.62v1.52H6.1v7.62h1.52v1.53h3.05v1.52h3.04v-1.52h-1.52v-1.53h-1.52v-1.52h1.52v-1.52h6.1v3.04h1.52v-1.52h1.52v-1.52h1.53v-1.53h1.52v-1.52h1.53v-1.53h-1.53zM6.1 3.05h3.04v1.52H6.1Zm3.04 25.9h3.05v1.53H9.14Zm0-27.43h3.05v1.53H9.14Zm3.05 28.96h7.62V32h-7.62Zm0-30.48h7.62v1.52h-7.62Zm7.62 28.95h3.05v1.53h-3.05Zm0-27.43h3.05v1.53h-3.05Zm3.05 25.91h3.05v1.52h-3.05Zm0-24.38h3.05v1.52h-3.05Zm3.05 22.85h1.52v1.53h-1.52Zm0-21.33h1.52v1.52h-1.52Zm1.52 18.29h1.52v3.04h-1.52Zm0-16.77h1.52v3.05h-1.52Zm1.52 13.72h1.53v3.05h-1.53Zm0-10.67h1.53v3.05h-1.53Zm1.53 3.05H32v7.62h-1.52Z"/></svg>