<svg xmlns="http://www.w3.org/2000/svg" viewBox="0 0 32 32"><desc>Interface Essential Loading 0 Percent 1 Streamline Icon: https://streamlinehq.com</desc><g fill="currentColor"><path d="M28.955 12.19h1.52v7.62h-1.52Zm-1.53 7.62h1.53v3.05h-1.53Z"/><path d="M27.425 9.14h1.53v3.05h-1.53Zm-1.52 13.72h1.52v3.04h-1.52Zm0-16.77h1.52v3.05h-1.52Zm-3.05 19.81h3.05v1.53h-3.05Zm0-21.33h3.05v1.52h-3.05Zm-1.52 13.72h1.52v1.52h-1.52Zm0-4.58h1.52v1.53h-1.52Zm-1.53 13.72h3.05v1.52h-3.05Zm0-12.19h1.53v1.52h-1.53Zm0-12.19h3.05v1.52h-3.05Zm-1.52 13.71h1.52v1.53h-1.52Zm-6.09 12.19h7.61v1.53h-7.61Zm4.57-10.66h1.52v1.52h-1.52Zm0-4.58h1.52v1.53h-1.52Zm-4.57-12.19h7.61v1.53h-7.61Zm3.04 10.67h-4.57v7.62h4.57Zm-1.52 6.1H12.2v-4.58h1.52Zm-4.57 9.14h3.05v1.52h-3.05Zm0-24.38h3.05v1.52h-3.05ZM6.095 25.9h3.05v1.53h-3.05Zm0-21.33h3.05v1.52h-3.05Zm-1.52 18.29h1.52v3.04h-1.52Zm0-16.77h1.52v3.05h-1.52Zm-1.53 13.72h1.53v3.05h-1.53Zm0-10.67h1.53v3.05h-1.53Zm-1.52 3.05h1.52v7.62h-1.52Z"/></g></svg>