<svg xmlns="http://www.w3.org/2000/svg" viewBox="0 0 32 32"><desc>Interface Essential Switch On Streamline Icon: https://streamlinehq.com</desc><g fill="currentColor"><path d="M30.48 3.05H32v25.9h-1.52Zm-1.53 25.9h1.53v1.53h-1.53Zm0-27.43h1.53v1.53h-1.53ZM27.43 25.9h1.52v1.53h-1.52Zm0-21.33h1.52v1.52h-1.52ZM3.05 30.48h25.9V32H3.05ZM22.86 6.09h-3.05V4.57h-1.52V3.05H7.62v1.52h7.62v1.52H7.62V4.57H6.1v4.57h1.52V7.62h10.67v1.52h1.52v1.53h1.53v1.52h1.52v1.52H12.19v-1.52h-1.52v12.19h1.52v-9.14h10.67v9.14h1.52V7.62h-1.52zM12.19 24.38h10.67v1.52H12.19Z"/><path d="M19.81 19.81h1.53v1.52h-1.53Zm0-3.05h1.53v1.52h-1.53Zm-4.57 4.57h4.57v1.53h-4.57Zm-1.52-1.52h1.52v1.52h-1.52Zm0-3.05h1.52v1.52h-1.52Zm-4.57-6.09h1.52v1.52H9.15ZM7.62 9.14h1.53v1.53H7.62ZM3.05 0h25.9v1.52H3.05Zm0 25.9h1.52v1.53H3.05Zm0-21.33h1.52v1.52H3.05ZM1.53 28.95h1.52v1.53H1.53Zm0-27.43h1.52v1.53H1.53ZM0 3.05h1.53v25.9H0Z"/></g></svg>