<svg xmlns="http://www.w3.org/2000/svg" viewBox="0 0 32 32"><desc>Interface Essential Message Streamline Icon: https://streamlinehq.com</desc><g fill="currentColor"><path d="M29.715 8.38h1.52v12.19h-1.52Zm-1.52 12.19h1.52v1.52h-1.52Zm0-13.71h1.52v1.52h-1.52Zm-1.53 15.23h1.53v1.53h-1.53Zm0-16.76h1.53v1.53h-1.53Zm-1.52 18.29h1.52v1.52h-1.52Zm0-19.81h1.52v1.52h-1.52Zm-1.53 21.33h1.53v1.52h-1.53Zm-1.52-12.19h3.05V16h-3.05Zm0-10.67h3.05v1.53h-3.05Zm-1.52 24.38h3.04v1.53h-3.04Zm-3.05 1.53h3.05v1.52h-3.05Z"/><path d="M6.855 29.71v-1.52h-1.52v1.52h-1.52v1.53h13.71v-1.53zm7.62-16.76h3.05V16h-3.05ZM11.425.76h10.67v1.52h-10.67Z"/><path d="M8.385 2.28h3.04v1.53h-3.04Zm0 24.38h1.52v-1.52h-3.05v3.05h1.53zm-1.53-13.71h3.05V16h-3.05Zm-1.52-9.14h3.05v1.52h-3.05Zm0 19.81h1.52v1.52h-1.52Zm-1.52-1.53h1.52v1.53h-1.52Zm0-16.76h1.52v1.53h-1.52Zm-1.53 15.24h1.53v1.52h-1.53Zm0-13.71h1.53v1.52h-1.53ZM.765 8.38h1.52v12.19H.765Z"/></g></svg>