<svg xmlns="http://www.w3.org/2000/svg" viewBox="0 0 32 32"><desc>Interface Essential Touch Id Lock Streamline Icon: https://streamlinehq.com</desc><path fill="currentColor" d="M28.955 27.43h1.52v3.05h-1.52Zm0-10.66h1.52v3.04h-1.52Zm-3.05-1.53h3.05v1.53h-3.05Zm0 15.24h3.05V32h-3.05Zm0-9.14h1.53v6.09h-1.53Zm-1.52-1.53h1.52v1.53h-1.52Zm-1.53 3.05h1.53v6.1h-1.53Zm-3.04-4.57h4.57v1.52h-4.57Zm1.52 3.05h1.52v1.52h-1.52Zm-1.52 7.62h3.04v1.52h-3.04Zm0-6.1h1.52v3.05h-1.52Zm-1.53 4.57h1.53v1.53h-1.53Zm0-7.62h1.53v1.53h-1.53Zm0-18.28h1.53v1.52h-1.53Zm-1.52 19.81h1.52v6.09h-1.52Zm-1.52 9.14h3.04V32h-3.04Zm0-15.24h3.04v1.53h-3.04Zm-1.53 12.19h1.53v3.05h-1.53Zm0-10.66h1.53v3.04h-1.53Zm9.14-3.05V12.2h-1.52V3.05h-1.52v9.15H6.095V3.05h-1.52v9.15h-1.52v1.52zm-10.66 6.09v-3.04h-3.05v1.52h-1.52v3.05h1.52v1.52h1.52v4.57h1.53v-6.09h-1.53v-1.53zM7.625 0h10.66v1.53H7.625Zm-1.53 1.53h1.53v1.52h-1.53Zm-1.52 28.95h7.62V32h-7.62Zm-1.52-1.52h1.52v1.52h-1.52Zm-1.53-15.24h1.53v15.24h-1.53Z"/></svg>