<svg xmlns="http://www.w3.org/2000/svg" viewBox="0 0 32 32"><desc>Interface Essential Eraser Streamline Icon: https://streamlinehq.com</desc><g fill="currentColor"><path d="M30.47 29.72H32v1.52h-1.53Zm-3.05-3.05h1.53v1.52h-1.53Zm0-15.24h1.53v3.05h-1.53Zm-1.52 3.05h1.52V16H25.9Zm0-4.57h1.52v1.52H25.9Zm-1.52 19.81h1.52v1.52h-1.52Zm0-13.72h1.52v1.53h-1.52Zm0-7.62h1.52v1.53h-1.52Zm-1.53 18.29h1.53v1.52h-1.53Zm0-9.14h1.53v1.52h-1.53Zm0-10.67h1.53v1.52h-1.53Zm-1.52 12.19h1.52v1.52h-1.52Zm0-13.72h1.52v1.53h-1.52ZM19.8 28.19h1.53v1.53H19.8Zm0-7.62h1.53v1.53H19.8Zm0-16.76h1.53v1.52H19.8ZM18.28 22.1h1.52v1.52h-1.52Zm0-10.67h1.52v1.52h-1.52Zm0-9.14h1.52v1.52h-1.52Zm-1.52 21.33h1.52v1.52h-1.52ZM15.23.76h3.05v1.53h-3.05Zm0 24.38h1.53v1.53h-1.53Zm0-10.66h3.05V16h-3.05Zm0-6.1h1.53v1.53h-1.53Zm-1.52 15.24h1.52v1.52h-1.52Zm0-10.67h1.52v1.53h-1.52Zm0-10.66h1.52v1.52h-1.52Zm-1.52 22.85h1.52v1.53h-1.52Zm0-3.04h1.52v1.52h-1.52Zm0-12.19h1.52v3.04h-1.52Zm0-6.1h1.52v1.52h-1.52Zm-1.53 16.76h1.53v1.53h-1.53Zm0-15.24h1.53v1.53h-1.53Z"/><path d="M6.09 29.72h1.52v1.52h10.67v-1.52h-3.05v-1.53h-3.04v-1.52h-6.1v1.52H1.52v1.53H0v1.52h6.09zm3.05-10.67h1.52v1.52H9.14Zm0-12.19h1.52v1.52H9.14ZM7.61 17.53h1.53v1.52H7.61Zm0-9.15h1.53v1.53H7.61ZM6.09 16h1.52v1.53H6.09Zm0-6.09h1.52v1.52H6.09Z"/><path d="M4.57 25.14h1.52v1.53H4.57Zm0-10.66h1.52V16H4.57Zm0-3.05h1.52v1.52H4.57ZM3.04 23.62h1.53v1.52H3.04Zm0-7.62h1.53v1.53H3.04Zm0-3.05h1.53v1.53H3.04ZM1.52 22.1h1.52v1.52H1.52Zm0-4.57h1.52v1.52H1.52ZM0 19.05h1.52v3.05H0Z"/></g></svg>