<svg xmlns="http://www.w3.org/2000/svg" viewBox="0 0 32 32"><desc>Interface Essential Notification Alert Streamline Icon: https://streamlinehq.com</desc><path fill="currentColor" d="M30.47 25.9H32v3.05h-1.53Zm0-22.85H32V6.1h-1.53Zm-1.52 25.9h1.52v1.53h-1.52Zm0-27.43h1.52v1.53h-1.52ZM27.43 25.9h1.52v1.53h-1.52Zm0-6.09h1.52v3.05h-1.52Zm0-15.24h1.52V6.1h-1.52ZM25.9 0h3.05v1.52H25.9Zm0 30.48h3.05V32H25.9Zm0-3.05h1.53v1.52H25.9Zm0-4.57h1.53v1.52H25.9Zm0-4.57h1.53v1.52H25.9Zm0-15.24h1.53v1.52H25.9Zm-3.05 21.33h3.05v1.52h-3.05Zm1.53-13.71h1.52v7.62h-1.52Zm-1.53 10.66h1.53v1.53h-1.53Zm0-13.71h1.53v3.05h-1.53ZM9.14 21.33h3.05v1.53h1.52v1.52h4.57v-1.52h1.53v-1.53h3.04v-1.52H9.14zM21.33 6.1h1.52v1.52h-1.52ZM9.14 25.9h13.71v1.53H9.14Zm9.14-21.33h3.05V6.1h-3.05Zm-4.57-1.52h4.57v1.52h-4.57Zm-3.05 1.52h3.05V6.1h-3.05ZM9.14 6.1h1.52v1.52H9.14ZM6.09 24.38h3.05v1.52H6.09Zm1.53-3.05h1.52v1.53H7.62Zm0-13.71h1.52v3.05H7.62Zm-1.53 3.05h1.53v7.62H6.09ZM4.57 27.43h1.52v1.52H4.57Zm0-4.57h1.52v1.52H4.57Zm0-4.57h1.52v1.52H4.57Zm0-15.24h1.52v1.52H4.57ZM3.05 0h3.04v1.52H3.05Zm0 30.48h3.04V32H3.05Zm0-4.58h1.52v1.53H3.05Zm0-6.09h1.52v3.05H3.05Zm0-15.24h1.52V6.1H3.05ZM1.52 28.95h1.53v1.53H1.52Zm0-27.43h1.53v1.53H1.52ZM0 25.9h1.52v3.05H0ZM0 3.05h1.52V6.1H0Z"/></svg>