<svg xmlns="http://www.w3.org/2000/svg" viewBox="0 0 32 32"><desc>Interface Essential Skull 1 Streamline Icon: https://streamlinehq.com</desc><path fill="currentColor" d="M28.955 6.86h1.52v13.71h-1.52Zm-1.52 13.71h1.52v1.52h-1.52Zm0-15.24h1.52v1.53h-1.52Zm-1.53 16.76h1.53v1.53h-1.53Zm0-18.28h1.53v1.52h-1.53Zm-1.52 19.81h1.52v6.09h-1.52Zm0-10.67h-3.05v1.52h-1.52v3.05h1.52v1.53h3.05v-1.53h1.52v-3.05h-1.52zm-1.53-10.67h3.05v1.53h-3.05Zm-3.04 27.43h4.57v1.53h-4.57Zm-1.53-4.57h1.53v4.57h-1.53Zm-4.57 4.57h4.57v1.53h-4.57Zm0-9.14h4.57v1.52h-4.57Zm-1.52 4.57h1.52v4.57h-1.52ZM9.145.76h13.71v1.52H9.145Zm-1.52 28.95h4.57v1.53h-4.57Zm3.04-16.76h-3.04v1.52h-1.53v3.05h1.53v1.53h3.04v-1.53h1.53v-3.05h-1.53zM6.095 2.28h3.05v1.53h-3.05Zm0 21.34h1.53v6.09h-1.53Zm-1.52-1.53h1.52v1.53h-1.52Zm0-18.28h1.52v1.52h-1.52Zm-1.52 16.76h1.52v1.52h-1.52Zm0-15.24h1.52v1.53h-1.52Zm-1.53 1.53h1.53v13.71h-1.53Z"/></svg>