<svg xmlns="http://www.w3.org/2000/svg" viewBox="0 0 32 32"><desc>Interface Essential Hammer 2 Streamline Icon: https://streamlinehq.com</desc><g fill="currentColor"><path d="M29.71 11.43h1.53v3.05h-1.53Zm-1.52 3.05h1.52V16h-1.52ZM26.67 16h1.52v1.52h-1.52Zm0-6.09h3.04v1.52h-3.04Zm-1.53 1.52h1.53v1.52h-1.53Zm0-3.05h1.53v1.53h-1.53Zm-1.52 9.14h3.05v1.53h-3.05Zm0-4.57h1.52v1.53h-1.52Zm0-6.09h1.52v1.52h-1.52Zm-1.52 7.62h1.52v3.04H22.1Zm0-9.15h1.52v1.53H22.1Zm-1.53 7.62h1.53v1.53h-1.53Zm0-9.14h1.53v1.52h-1.53Zm-1.52 10.67h1.52V16h-1.52Zm0-12.19h1.52v1.52h-1.52Zm-1.53 12.19H16v-1.53h-1.52v1.53h-1.53V16h1.53v1.52h-1.53v1.53h-1.52v1.52H9.91v-1.52H8.38v1.52H6.86v1.53H5.33v1.52H3.81v1.52H2.29v1.53H.76v3.05h1.53v1.52h3.04v-1.52h1.53v-1.53h1.52v-1.52h1.53v-1.53h1.52v-1.52h1.52V22.1h1.53v-1.53H16v-1.52h1.52v-1.53h1.53V16h-1.53zM16 9.91h1.52v3.04H16ZM14.48.76h4.57v1.53h-4.57Zm0 7.62H16v1.53h-1.52Zm-3.05-1.52h3.05v1.52h-3.05Zm0-4.57h3.05v1.52h-3.05Z"/><path d="M11.43 16h1.52v1.52h-1.52Zm-1.52 1.52h1.52v1.53H9.91Zm0-9.14h1.52v1.53H9.91Zm0-4.57h1.52v1.52H9.91ZM8.38 5.33h1.53v3.05H8.38Z"/></g></svg>