<svg xmlns="http://www.w3.org/2000/svg" viewBox="0 0 32 32"><desc>Interface Essential Loading 75 Percent 1 Streamline Icon: https://streamlinehq.com</desc><g fill="currentColor"><path d="M3.05 9.14h1.53v3.05H3.05Zm1.53-3.05H6.1v3.05H4.58ZM6.1 4.57h3.05v1.52H6.1Zm3.05-1.52h3.04v1.52H9.15Zm3.04 19.81h1.53v1.52h-1.53Zm0-4.57h1.53v1.52h-1.53Zm1.53-1.53h1.52V9.14h-4.57v1.53h3.05zm0 4.57h1.52v1.53h-1.52Zm1.52-1.52h1.53v1.52h-1.53Zm1.53 3.05h1.52v1.52h-1.52Zm0-4.57h1.52v1.52h-1.52Zm4.57-1.53v-4.57h-3.05v-1.52h3.05V9.14h-4.57v4.57h3.04v1.53h-3.04v1.52z"/><path d="M1.53 22.86h1.52v3.04h1.53v1.53H6.1v1.52h3.05v1.53h3.04V32h7.62v-1.52h3.05v-1.53h3.05v-1.52h1.52V25.9h1.53v-3.04h1.52v-3.05H32v-7.62h-1.52V9.14h-1.52V6.09h-1.53V4.57h-1.52V3.05h-3.05V1.52h-3.05V0h-4.57v1.52h-3.05v1.53h3.05v1.52h3.05v1.52h3.05v1.53h3.05v3.05h1.52v3.04h1.52v4.58h-1.52v3.04h-1.52v3.05h-3.05v1.52h-3.05v1.53h-4.57V25.9h-3.05v-1.52H7.62v-3.05H6.1v-3.04H4.58v-3.05H3.05v-3.05H1.53v3.05H0v4.57h1.53z"/></g></svg>