<svg xmlns="http://www.w3.org/2000/svg" viewBox="0 0 32 32"><desc>Interface Essential Map Streamline Icon: https://streamlinehq.com</desc><g fill="currentColor"><path d="M30.47 27.425h-1.52v1.53h-7.62v-6.1h-1.52v6.1h-4.57v-1.53h-1.53v1.53H3.05v-1.53H1.52v1.53H0v1.52h32v-1.52h-1.53z"/><path d="M27.43 24.385h1.52v3.04h-1.52Zm-1.53-3.05h1.53v3.05H25.9Zm-3.05-1.52v1.52h3.05v-3.05h-1.52v1.53zm-1.52 1.52h1.52v1.52h-1.52Zm-10.67 4.57h3.05v1.52h-3.05Zm1.53-4.57h1.52v1.52h-1.52Zm-1.53 1.52h1.53v1.53h-1.53Zm-4.57 1.53h4.57v1.52H6.09Z"/><path d="M15.24 18.285v1.53h-1.53v1.52h1.53v3.05h1.52v-3.05h1.52v-1.52h-1.52v-1.53h1.52v1.53h1.53v-1.53h4.57v-1.52h-7.62V12.2h1.52v-1.53h1.53V9.145h1.52v-4.57h-1.52v-1.53h-1.53v-1.52h-4.57v1.52h-1.52v1.53h-1.53v4.57h1.53v1.52h1.52V12.2h1.53v4.57H7.62v1.52Zm0-13.71h3.04v3.05h-1.52V6.1h-1.52Zm-9.15 13.71h1.53v3.05H6.09Zm-1.52 3.05h1.52v3.05H4.57Zm-1.52 3.05h1.52v3.04H3.05Z"/></g></svg>