<svg xmlns="http://www.w3.org/2000/svg" viewBox="0 0 32 32"><desc>Interface Essential Text Input Area 2 Streamline Icon: https://streamlinehq.com</desc><g fill="currentColor"><path d="M30.48 16.005H32v7.62h-1.52Zm0-9.15H32v4.58h-1.52Zm-1.53 16.77h1.53v1.52h-1.53Zm0-13.72h-1.52v1.53h-1.52v1.52h-1.53v1.52h-1.52v1.53h-1.52v1.52h1.52v1.52h1.52v-1.52h1.53v-1.52h1.52v-1.53h1.52v-1.52h1.53v-1.52h-1.53zm-3.04-4.57h4.57v1.52h-4.57ZM3.05 25.145h25.9v1.52H3.05Zm18.29-19.81h3.04v1.52h-3.04Zm-3.05 13.71v-4.57h-1.53v6.1h6.1v-1.53z"/><path d="M19.81 16.005h1.53v-1.53h1.52v-1.52h1.52v-1.52h1.53v-1.53h1.52v-1.52h-1.52v-1.53h-1.53v1.53h-1.52v1.52h-1.52v1.53h-1.53v1.52h-1.52v1.52h1.52zm0-9.15h1.53v1.53h-1.53Zm-1.52 1.53h1.52v1.52h-1.52Zm-3.05 12.19h1.52v1.52h-1.52Zm-4.57 0h1.52v1.52h-1.52Zm-4.57 0h1.52v1.52H6.1Zm-3.05-9.14h13.71v1.52H3.05Zm-1.52 12.19h1.52v1.52H1.53Zm0-10.67h1.52v1.52H1.53ZM0 14.475h1.53v9.15H0Z"/></g></svg>