<svg xmlns="http://www.w3.org/2000/svg" viewBox="0 0 32 32"><desc>Interface Essential Question Help Square Streamline Icon: https://streamlinehq.com</desc><path fill="currentColor" d="M30.48 3.05H32v25.9h-1.52Zm-1.53 25.9h1.53v1.53h-1.53Zm0-27.43h1.53v1.53h-1.53ZM3.05 30.48h25.9V32H3.05Zm24.38-6.1h-1.52v1.52h-1.53v1.53h1.53v1.52h1.52v-1.52h1.52V25.9h-1.52zm0-21.33h-1.52v1.52h-1.53v1.52h1.53v1.53h1.52V6.09h1.52V4.57h-1.52zm-6.09 3.04h-1.53V4.57h-7.62v1.52h-1.52v1.53H9.15v4.57h3.04V9.14h1.53V7.62h3.04v1.52h1.53v3.05h-1.53v1.52h-1.52v1.53h-1.52v3.04h4.57v-1.52h1.52v-1.52h1.53v-1.53h1.52V7.62h-1.52zm-3.05 13.72h-4.57v1.52h-1.53v4.57h1.53v1.53h4.57V25.9h1.52v-4.57h-1.52zM6.1 24.38H4.57v1.52H3.05v1.53h1.52v1.52H6.1v-1.52h1.52V25.9H6.1zm0-21.33H4.57v1.52H3.05v1.52h1.52v1.53H6.1V6.09h1.52V4.57H6.1zM3.05 0h25.9v1.52H3.05ZM1.53 28.95h1.52v1.53H1.53Zm0-27.43h1.52v1.53H1.53ZM0 3.05h1.53v25.9H0Z"/></svg>