<svg xmlns="http://www.w3.org/2000/svg" viewBox="0 0 32 32"><desc>Interface Essential Key Lock Streamline Icon: https://streamlinehq.com</desc><g fill="currentColor"><path d="M30.48 16.76H32v12.19h-1.52Zm-1.53 12.19h1.53v1.53h-1.53Zm0-13.71V3.05h-1.52V1.52h-1.52V0h-7.62v1.52h-1.53v1.53h-1.52v12.19h-1.52v1.52h16.76v-1.52Zm-3.04 0h-7.62V4.57h1.52V3.05h4.57v1.52h1.53ZM15.24 30.48h13.71V32H15.24Zm9.14-7.62h1.53v1.52h-1.53Zm0-3.05h1.53v1.52h-1.53Zm-4.57 4.57h4.57v1.52h-4.57Zm-1.52-1.52h1.52v1.52h-1.52Zm0-3.05h1.52v1.52h-1.52Zm-4.57 9.14h1.52v1.53h-1.52Zm-1.53-12.19h1.53v4.57h-1.53Zm-1.52 6.1h1.52v6.09h-1.52Zm-1.52 6.09h1.52v1.53H9.15Zm0-7.62h1.52v1.53H9.15ZM7.62 6.09h1.53v15.24H7.62ZM3.05 30.48h6.1V32h-6.1Zm4.57-7.62H4.57v1.52H3.05v3.05h1.52v1.52h3.05v-1.52h1.53v-3.05H7.62zM4.57 4.57h3.05v1.52H4.57Zm0 12.19H1.53v-1.52h3.04v-4.57H1.53V9.14h3.04V6.09H3.05v1.53H0v4.57h3.05v1.52H0v4.57h3.05v3.05h1.52zM1.53 28.95h1.52v1.53H1.53Z"/><path d="M1.53 21.33h1.52v1.53H1.53ZM0 22.86h1.53v6.09H0Z"/></g></svg>