<svg xmlns="http://www.w3.org/2000/svg" viewBox="0 0 32 32"><desc>Interface Essential Navigation Left Circle 2 Streamline Icon: https://streamlinehq.com</desc><path fill="currentColor" d="M30.48 12.19H32v7.62h-1.52Zm-1.53 7.62h1.53v3.05h-1.53Zm0-10.67h1.53v3.05h-1.53Zm-1.52 13.72h1.52v3.04h-1.52Zm0-16.77h1.52v3.05h-1.52ZM25.9 25.9h1.53v1.53H25.9Zm0-21.33h1.53v1.52H25.9Zm-3.04 22.86h3.04v1.52h-3.04Zm1.52-15.24h-1.52v-1.52h-9.15V7.62h-1.52v1.52h-1.52v1.53H9.14v1.52H7.62v1.52H6.09v1.53h1.53v1.52h1.52v1.53h1.53v1.52h1.52v1.52h1.52v-3.04h6.1v1.52h1.52v1.52h-1.52v1.53h-1.52v1.52h3.04v-1.52h3.05v-1.53h1.52v-7.62h-1.52zm-1.52-9.14h3.04v1.52h-3.04Zm-3.05 25.9h3.05v1.53h-3.05Zm0-27.43h3.05v1.53h-3.05Zm-7.62 28.96h7.62V32h-7.62Zm0-30.48h7.62v1.52h-7.62ZM9.14 28.95h3.05v1.53H9.14Zm0-27.43h3.05v1.53H9.14ZM6.09 27.43h3.05v1.52H6.09Zm0-24.38h3.05v1.52H6.09ZM4.57 25.9h1.52v1.53H4.57Zm0-21.33h1.52v1.52H4.57ZM3.05 22.86h1.52v3.04H3.05Zm0-16.77h1.52v3.05H3.05ZM1.52 19.81h1.53v3.05H1.52Zm0-10.67h1.53v3.05H1.52ZM0 12.19h1.52v7.62H0Z"/></svg>