<svg xmlns="http://www.w3.org/2000/svg" viewBox="0 0 32 32"><desc>Interface Essential Alarm Bell Off Streamline Icon: https://streamlinehq.com</desc><g fill="currentColor"><path d="M30.48 3.05H32v25.9h-1.52Zm-1.52 25.9h1.52v1.52h-1.52Zm-1.53-9.14h1.53v3.04h-1.53ZM3.05 30.47h25.91V32H3.05Zm22.86-7.62h1.52v1.53h-1.52Zm0-4.57h1.52v1.53h-1.52Zm-1.53-7.62h1.53v7.62h-1.53Zm-1.52 13.72h3.05v1.52h-3.05Zm0-3.05h1.52v1.52h-1.52ZM9.15 25.9h13.71v1.53H9.15ZM19.81 4.57h1.53v1.52h-1.53Zm-1.52 19.81v-1.53h1.52v-1.52h3.05v-1.52h-7.62v1.52h-1.52v3.05zM13.72 3.05h6.09v1.52h-6.09Zm-3.05 1.52h3.05v1.52h-3.05ZM9.15 6.09h1.52v1.53H9.15ZM7.62 7.62h1.53v3.04H7.62ZM6.1 10.66h1.52v7.62H6.1Zm-1.52 7.62H6.1v1.53H4.58Z"/><path d="M4.58 28.95v-1.52H6.1V25.9h1.52v-1.52h1.53v-1.53h1.52v-1.52h1.52v-1.52h1.53v-1.53h1.52v-1.52h1.53v-1.52h1.52v-1.53h1.52v-1.52h1.53v-1.53h1.52V9.14h1.52V7.62h1.53V6.09h1.52V4.57h1.53V3.05h1.52V1.52h-1.52V0H3.05v1.52h24.38v1.53h-1.52v1.52h-1.53v1.52h-1.52v1.53h-1.52v1.52h-1.53v1.52h-1.52v1.53h-1.52v1.52h-1.53v1.53h-1.52v1.52h-1.53v1.52h-1.52v1.53H9.15v1.52H7.62v1.52H6.1v1.53H4.58v1.52H3.05v1.53H1.53V3.05H0v25.9h1.53v1.52h1.52v-1.52z"/><path d="M3.05 19.81h1.53v3.04H3.05ZM1.53 1.52h1.52v1.53H1.53Z"/></g></svg>