<svg xmlns="http://www.w3.org/2000/svg" viewBox="0 0 32 32"><desc>Interface Essential Clip 1 Streamline Icon: https://streamlinehq.com</desc><path fill="currentColor" d="M28.185 8.38h1.53v6.09h-1.53Zm-1.52 6.09h1.52v3.05h-1.52Zm0-7.61h1.52v1.52h-1.52Zm-1.52 10.66h1.52v1.53h-1.52Zm0-12.19h1.52v1.53h-1.52Zm-1.53 13.72h1.53v1.52h-1.53Zm0-9.15h1.53v4.57h-1.53Zm-4.57-6.09h6.1v1.52h-6.1Zm3.05 16.76h1.52v1.52h-1.52Zm0-6.1h1.52V16h-1.52Zm-3.05-6.09h4.57V9.9h-4.57Zm1.52 13.71h1.53v1.53h-1.53Zm0-6.09h1.53v1.52h-1.53Zm-1.52 7.62h1.52v1.52h-1.52Zm0-6.1h1.52v1.53h-1.52Zm-1.52 7.62h1.52v1.53h-1.52Zm0-6.09h1.52v1.52h-1.52Zm0-9.15h1.52v1.53h-1.52Zm-1.53 10.67h1.53v1.52h-1.53Zm0-9.14h1.53v1.52h-1.53Zm0-6.1h3.05v1.53h-3.05Zm-1.52 16.76h1.52v1.53h-1.52Zm0-9.14h1.52v1.52h-1.52Zm0-6.09h1.52v1.52h-1.52Zm-1.53 16.76h1.53v1.52h-1.53Zm0-9.15h1.53V16h-1.53Zm0-6.09h1.53V9.9h-1.53Zm-1.52 16.76h1.52v1.53h-1.52Zm0-9.14h1.52v1.52h-1.52Zm0-6.1h1.52v1.53h-1.52Zm-1.52 7.62h1.52v1.53h-1.52Zm0-6.09h1.52v1.52h-1.52Zm-1.53 1.52h1.53v1.52h-1.53Zm-1.52 1.52h1.52V16h-1.52Zm-1.52 12.2h6.09v1.52h-6.09Zm0-10.67h1.52v1.52h-1.52Zm-1.53 9.14h1.53v1.53h-1.53Zm0-7.62h1.53v1.53h-1.53Zm-1.52 1.53h1.52v6.09h-1.52Z"/></svg>