<svg xmlns="http://www.w3.org/2000/svg" viewBox="0 0 32 32"><desc>Interface Essential Iris Scan Approved Streamline Icon: https://streamlinehq.com</desc><g fill="currentColor"><path d="M30.48 22.09h-1.53v1.53h-1.52v1.52h-1.52v1.52h-1.53v1.53h-4.57v-1.53h-1.52v-1.52h-1.53v-3.05h3.05v1.53h1.53v1.52h1.52v-1.52h1.52v-1.53h1.53v-1.52h1.52v-1.53h3.05v-1.52h-1.53V16h-1.52v-1.53h-7.62V16h-1.52v1.52h-1.53v1.52h-1.52v7.62h1.52v1.53h1.53v1.52h1.52v1.53h7.62v-1.53h1.52v-1.52h1.53v-1.53H32v-7.62h-1.52zM28.95 8.38h1.53v3.05h-1.53Zm-1.52-1.53h1.52v1.53h-1.52Zm0 4.58h1.52v1.52h-1.52Zm-1.52-6.1h1.52v1.52h-1.52Zm-3.05-1.52h3.05v1.52h-3.05Zm-3.05-1.53h3.05v1.53h-3.05Zm0 4.57h1.53v6.1h-1.53Zm-1.52-1.52h1.52v1.52h-1.52Zm-1.53 3.05h1.53v3.05h-1.53Zm-1.52-1.53h1.52v1.53h-1.52Zm-3.05 7.62h4.57V16h-4.57Zm0-10.66h6.1v1.52h-6.1ZM10.67.76h9.14v1.52h-9.14Zm0 4.57h1.52v1.52h-1.52Zm0 7.62h1.52v1.52h-1.52Zm0 4.57h3.05v1.52h-3.05ZM7.62 2.28h3.05v1.53H7.62Zm1.53 4.57h1.52v6.1H9.15ZM7.62 16h3.05v1.52H7.62ZM4.57 3.81h3.05v1.52H4.57Zm0 10.66h3.05V16H4.57ZM3.05 5.33h1.52v1.52H3.05Zm0 7.62h1.52v1.52H3.05Zm-1.52-6.1h1.52v1.53H1.53Zm0 4.58h1.52v1.52H1.53ZM0 8.38h1.53v3.05H0Z"/></g></svg>