<svg xmlns="http://www.w3.org/2000/svg" viewBox="0 0 32 32"><desc>Interface Essential Global Public Streamline Icon: https://streamlinehq.com</desc><g fill="currentColor"><path d="M22.85 7.62v3.05h-1.52v4.57h1.52v1.52h1.53v1.53h-4.57v1.52h-1.53v1.52h4.57v3.05h-1.52v3.05h1.52v1.52h3.05v-1.52h1.53V25.9h1.52v-3.04h1.52v-3.05H32v-7.62h-1.53V9.14h-1.52V6.1h-1.52v1.52zm3.05-3.05h1.53V6.1H25.9Zm-3.05-1.52h3.05v1.52h-3.05Z"/><path d="M19.81 28.95h3.04v1.53h-3.04Zm0-27.43h3.04v1.53h-3.04Z"/><path d="M16.76 28.95h-1.52v-1.52h-4.58v1.52H9.14v1.53h3.05V32h7.62v-1.52h-3.05zM12.19 0h7.62v1.52h-7.62Zm-1.53 16.76h1.53v1.53h1.52v-4.58h-3.05zM6.09 27.43h3.05v1.52H6.09ZM4.57 25.9h1.52v1.53H4.57Z"/><path d="M3.05 22.86v3.04h1.52v-1.52h1.52v-1.52h1.53v-4.57H6.09v-1.53H4.57v-1.52H3.05v-1.53h1.52v-1.52h4.57v-1.52h1.52V9.14h1.53v1.53h1.52V9.14h1.53V6.1h-1.53V4.57h-3.05V3.05h1.53V1.52H9.14v1.53H6.09v1.52H4.57V6.1H3.05v3.04H1.52v3.05H0v7.62h1.52v3.05z"/></g></svg>