<svg xmlns="http://www.w3.org/2000/svg" viewBox="0 0 32 32"><desc>Interface Essential Pencil Edit 2 Streamline Icon: https://streamlinehq.com</desc><path fill="currentColor" d="M30.47 6.1H32v4.57h-1.53Zm-1.52 4.57h1.52v1.52h-1.52Zm0-6.1h1.52V6.1h-1.52Zm-1.52 7.62h1.52v1.52h-1.52Zm0-9.14h1.52v1.52h-1.52ZM25.9 13.71h1.53v1.53H25.9Zm0-3.04h1.53v1.52H25.9Zm0-9.15h1.53v1.53H25.9Zm-1.52 13.72h1.52v1.52h-1.52Zm0-6.1h1.52v1.53h-1.52Zm-1.53 7.62h1.53v1.53h-1.53Zm0-6.09h1.53v1.52h-1.53Zm0-3.05h1.53v1.52h-1.53ZM21.33 0h4.57v1.52h-4.57Zm0 18.29h1.52v1.52h-1.52Zm0-6.1h1.52v1.52h-1.52Zm0-6.09h1.52v1.52h-1.52Zm-1.52 13.71h1.52v1.52h-1.52Zm0-6.1h1.52v1.53h-1.52Zm0-6.09h1.52v1.52h-1.52Zm0-3.05h1.52V6.1h-1.52Zm0-3.05h1.52v1.53h-1.52Zm-1.53 19.81h1.53v1.53h-1.53Zm0-6.09h1.53v1.52h-1.53Zm0-6.1h1.53v1.53h-1.53Zm0-6.09h1.53v1.52h-1.53Zm-1.52 19.81h1.52v1.52h-1.52Zm0-6.1h1.52v1.53h-1.52Zm0-6.09h1.52v1.52h-1.52Zm0-6.1h1.52V6.1h-1.52Zm-1.52 19.81h1.52v1.52h-1.52Zm0-6.09h1.52v1.52h-1.52Zm0-6.1h1.52v1.52h-1.52Zm0-6.09h1.52v1.52h-1.52Zm-1.53 19.8h1.53v1.53h-1.53Zm0-6.09h1.53v1.52h-1.53Zm0-6.1h1.53v1.53h-1.53Zm0-6.09h1.53v1.52h-1.53Zm-1.52 19.81h1.52v1.52h-1.52Zm0-6.1h1.52v1.53h-1.52Zm0-6.09h1.52v1.52h-1.52Zm0-6.1h1.52v1.53h-1.52Zm-1.53 13.72h1.53v1.52h-1.53Zm0-6.1h1.53v1.53h-1.53Zm0-6.09h1.53v1.52h-1.53Zm0 19.81h1.53v-1.53h-1.53v-4.57H7.62v-3.05H3.05v-1.52H1.52v1.52H0V32h10.66Zm-1.52 0H4.57v-1.53H3.05v-1.52H1.52v-4.57h4.57v3.04h3.05Zm0-12.19h1.52v1.52H9.14Zm0-6.1h1.52v1.52H9.14Zm-1.52 7.62h1.52v1.52H7.62Zm0-6.1h1.52v1.53H7.62Zm-1.53 1.53h1.53v1.52H6.09Zm-1.52 1.52h1.52v1.53H4.57Zm-1.52 1.53h1.52v1.52H3.05Z"/></svg>