<svg xmlns="http://www.w3.org/2000/svg" viewBox="0 0 32 32"><desc>Interface Essential Protect Rubber Ring Streamline Icon: https://streamlinehq.com</desc><g fill="currentColor"><path d="M30.47 9.14h-1.52v1.53H25.9v1.52h-3.05v7.62h3.05v1.52h3.05v1.53h1.52v-3.05h-1.52v-4.57h1.52v4.57H32v-7.62h-1.53zm-3.04 13.72h1.52v3.04h-1.52Zm0-16.76h1.52v3.04h-1.52ZM25.9 25.9h1.53v1.53H25.9Zm0-21.33h1.53V6.1H25.9Zm-3.05 22.86h3.05v1.52h-3.05Zm0-24.38h3.05v1.52h-3.05Zm-1.52 16.76h1.52v1.52h-1.52Zm0-9.14h1.52v1.52h-1.52Zm0 15.23h-1.52v-3.04h-7.62v3.04h-1.53v3.05H9.14v1.53h3.05V32h7.62v-1.52h3.04v-1.53h-1.52zm-1.52-4.57h1.52v1.53h-1.52Zm0-12.19h1.52v1.53h-1.52Zm-9.15 12.19h1.53v1.53h-1.53Zm0-12.19h1.53v1.53h-1.53Zm0-3.04h1.53v3.04h7.62V6.1h1.52V3.05h1.52V1.52h-3.04V0h-7.62v1.52H9.14v1.53h1.52zM9.14 19.81h1.52v1.52H9.14Zm0-9.14h1.52v1.52H9.14ZM6.09 27.43h3.05v1.52H6.09Zm0-24.38h3.05v1.52H6.09ZM4.57 25.9h1.52v1.53H4.57Zm0-21.33h1.52V6.1H4.57ZM3.05 22.86h1.52v3.04H3.05Z"/><path d="M6.09 21.33v-1.52h3.05v-7.62H6.09v-1.52H3.05V9.14H1.52v3.05H0v7.62h1.52v3.05h1.53v-1.53zM3.05 6.1h1.52v3.04H3.05Z"/></g></svg>