<svg xmlns="http://www.w3.org/2000/svg" viewBox="0 0 32 32"><desc>Interface Essential Link Broken 1 Streamline Icon: https://streamlinehq.com</desc><path fill="currentColor" d="M30.48 7.62H32v10.66h-1.52Zm-1.53 10.66h1.53v1.53h-1.53Zm0-12.19h1.53v1.53h-1.53Zm-9.14 13.72h9.14v1.52h-9.14Zm6.1-9.14h1.52v4.57h-1.52Zm-6.1-1.53h6.1v1.53h-6.1Zm0 6.1h6.1v1.52h-6.1Zm0-10.67h9.14v1.52h-9.14Zm-1.52 12.19h1.52v3.05h-1.52Zm0-10.67h1.52v3.05h-1.52Zm-3.05 15.24h1.52v3.05h-1.52Zm-1.52 3.05h1.52v1.52h-1.52Zm-1.53-4.57h3.05v1.52h-3.05Zm1.53-18.29h1.52v4.57h-1.52ZM12.19 25.9h1.53v1.53h-1.53Zm-1.52 1.53h1.52v1.52h-1.52Zm0-6.1h1.52v1.53h-1.52Zm-1.52 1.53h1.52v1.52H9.15Zm0-7.62h1.52v3.04H9.15ZM4.57 28.95h6.1v1.53h-6.1Zm3.05-10.67h1.53v1.53H7.62ZM6.1 13.71h3.05v1.53H6.1Zm0 10.67h3.05v1.52H6.1Zm0-4.57h1.52v1.52H6.1ZM4.57 9.14h4.58v1.53H4.57Zm0-6.09h3.05v3.04h3.05v3.05h1.52V4.57H9.15V1.52H4.57zm0 18.28H6.1v3.05H4.57Zm0-6.09H6.1v1.52H4.57ZM3.05 27.43h1.52v1.52H3.05Zm0-10.67h1.52v1.52H3.05ZM1.53 25.9h1.52v1.53H1.53Zm0-7.62h1.52v1.53H1.53ZM0 19.81h1.53v6.09H0Z"/></svg>