<svg xmlns="http://www.w3.org/2000/svg" viewBox="0 0 32 32"><desc>Interface Essential Wireless Streamline Icon: https://streamlinehq.com</desc><path fill="currentColor" d="M30.47 12.19H32v7.62h-1.53Zm-1.52 7.62h1.52v3.05h-1.52Zm0-10.67h1.52v3.05h-1.52Zm-1.52 13.72h1.52v3.04h-1.52Zm0-16.76h1.52v3.04h-1.52ZM25.9 25.9h1.53v1.53H25.9Zm0-13.71h1.53v7.62H25.9Zm0-7.62h1.53V6.1H25.9Zm-1.52 15.24h1.52v3.05h-1.52Zm0-10.67h1.52v3.05h-1.52Zm-1.53-6.09h3.05v1.52h-3.05Zm0 19.81h1.53v1.52h-1.53Zm0-15.24h1.53v1.52h-1.53Zm-1.52 4.57h1.52v7.62h-1.52ZM19.81 6.1h3.04v1.52h-3.04Zm0-4.58h3.04v1.53h-3.04Zm0 18.29h1.52v1.52h-1.52Zm0-9.14h1.52v1.52h-1.52Zm0 12.19h-1.53v-1.53h-4.57v1.53h-1.52v1.52h-1.53v6.1h1.53V32h7.62v-1.52h1.52v-6.1h-1.52Zm-3.05 4.57h-1.52v-3.05h1.52ZM12.19 9.14h7.62v1.53h-7.62Zm0-4.57h7.62V6.1h-7.62Zm0-4.57h7.62v1.52h-7.62Zm1.52 12.19v1.52h-1.52v4.58h1.52v1.52h4.57v-1.52h1.53v-4.58h-1.53v-1.52zm-3.05 7.62h1.53v1.52h-1.53Zm0-9.14h1.53v1.52h-1.53Zm-1.52 1.52h1.52v7.62H9.14Zm0-6.09h3.05v1.52H9.14Zm0-4.58h3.05v1.53H9.14ZM7.62 22.86h1.52v1.52H7.62Zm0-15.24h1.52v1.52H7.62ZM6.09 19.81h1.53v3.05H6.09Zm0-10.67h1.53v3.05H6.09Zm0-6.09h3.05v1.52H6.09ZM4.57 25.9h1.52v1.53H4.57Zm0-13.71h1.52v7.62H4.57Zm0-7.62h1.52V6.1H4.57ZM3.05 22.86h1.52v3.04H3.05Zm0-16.76h1.52v3.04H3.05ZM1.52 19.81h1.53v3.05H1.52Zm0-10.67h1.53v3.05H1.52ZM0 12.19h1.52v7.62H0Z"/></svg>