<svg xmlns="http://www.w3.org/2000/svg" viewBox="0 0 32 32"><desc>Interface Essential Sound Streamline Icon: https://streamlinehq.com</desc><path fill="currentColor" d="M30.47 9.905H32v12.19h-1.53Zm-1.52 12.19h1.52v1.52h-1.52Zm0-13.72h1.52v1.53h-1.52Zm-1.52 15.24h1.52v1.52h-1.52Zm0-10.67h1.52v6.1h-1.52Zm0-6.09h1.52v1.52h-1.52Zm-1.53 12.19h1.53v1.52H25.9Zm0-7.62h1.53v1.52H25.9Zm-1.52 3.05h1.52v3.05h-1.52Zm-3.05-9.14h1.52v21.33h-1.52Zm-1.52 21.33h1.52v1.52h-1.52Zm0-22.86h1.52v1.53h-1.52Zm-4.57 24.38h4.57v1.53h-4.57Zm1.52-6.09h1.52v1.52h-1.52Zm0-13.72h1.52v1.53h-1.52Zm-1.52-6.09h4.57v1.52h-4.57Zm0 7.62h1.52v12.19h-1.52Zm-1.53 16.76h1.53v1.52h-1.53Zm0-22.86h1.53v1.53h-1.53Zm-1.52 21.33h1.52v1.53h-1.52Zm0-19.8h1.52v1.52h-1.52Zm-1.53 18.28h1.53v1.52h-1.53Zm0-16.76h1.53v1.52h-1.53Zm-1.52 15.24h1.52v1.52H9.14Zm0-13.72h1.52v1.53H9.14Zm-1.52 12.19h1.52v1.53H7.62Zm0-10.66h1.52v1.52H7.62Zm0 1.52h-6.1v1.52H0v6.1h1.52v1.52h6.1Zm-3.05 3.05H3.05v3.05H1.52v-3.05h1.53v-1.53h1.52Z"/></svg>