<svg xmlns="http://www.w3.org/2000/svg" viewBox="0 0 32 32"><desc>Interface Essential Text Input Area 3 Streamline Icon: https://streamlinehq.com</desc><g fill="currentColor"><path d="M30.48 15.995H32v4.58h-1.52Zm0-4.57H32v3.05h-1.52Zm-1.53 9.15h1.53v1.52h-1.53Zm0-10.67h1.53v1.52h-1.53Zm-1.52 12.19h1.52v1.52h-1.52Zm0-13.71h1.52v1.52h-1.52Zm-1.52-3.05h3.04v1.52h-3.04Zm0 19.81h3.04v1.52h-3.04Zm-1.53-18.29h1.53v18.29h-1.53Zm-3.04-1.52h3.04v1.52h-3.04Zm0 19.81h3.04v1.52h-3.04Zm-3.05-3.05h4.57v1.52h-4.57Zm3.05-3.05h1.52v1.53h-1.52Zm0-4.57h1.52v1.52h-1.52Zm-1.53 1.52h1.53v3.05h-1.53Zm-1.52-7.61h4.57v1.52h-4.57Zm-1.53 7.61h1.53v3.05h-1.53Zm-4.57 6.1h4.57v1.52h-4.57Z"/><path d="M13.72 15.995h3.04v-1.52h-3.04v-3.05h-1.53v9.15h4.57v-1.53h-3.04zm-1.53-7.61h4.57v1.52h-4.57Zm-1.52 4.57H9.15v3.04H6.1v-3.04H4.57v7.62H6.1v-3.05h3.05v3.05h1.52zm-4.57 9.14h4.57v1.52H6.1Zm0-10.67h3.05v1.53H6.1Zm0-3.04h4.57v1.52H6.1Zm-3.05 13.71h1.52v1.52H3.05Zm0-13.71h1.52v1.52H3.05Zm-1.52 12.19h1.52v1.52H1.53Zm0-10.67h1.52v1.52H1.53ZM0 15.995h1.53v4.58H0Zm0-4.57h1.53v3.05H0Z"/></g></svg>