<svg xmlns="http://www.w3.org/2000/svg" viewBox="0 0 32 32"><desc>Interface Essential Flash Streamline Icon: https://streamlinehq.com</desc><path fill="currentColor" d="M29.71 8.38h1.53V9.9h-1.53ZM28.19 9.9h1.52v1.53h-1.52Zm0-3.04h1.52v1.52h-1.52Zm-1.52 1.52h1.52V9.9h-1.52Zm0 19.81v-1.53h1.52v-1.52h-1.52v-1.52h-1.53v1.52h-1.52v1.52h1.52v1.53zm-1.53-15.24h1.53V16h-1.53ZM23.62 16h1.52v1.52h-1.52Zm0-12.19h1.52v1.52h-1.52Zm-1.53 13.71h1.53v1.53h-1.53Zm0-12.19h1.53v1.53h-1.53Zm-1.52 13.72h1.52v1.52h-1.52Zm0-12.19h1.52v1.52h-1.52Zm-1.52 13.71h1.52v1.52h-1.52Zm0-12.19h1.52V9.9h-1.52Zm-1.53 21.33h1.53v1.53h-1.53Zm0-7.62h1.53v1.53h-1.53Zm0-12.19v1.53H16v1.52h9.14v-1.52h-6.09V9.9zM16 23.62h1.52v1.52H16Zm9.14-21.34v1.53h1.53V.76H14.48v1.52zM14.48 25.14H16v1.52h-1.52Zm-1.53 1.52h1.53v1.53h-1.53Zm0-24.38h1.53v1.53h-1.53Zm-1.52 25.91h1.52v1.52h-1.52ZM12.95 16H3.81v1.52h7.62v3.05h1.52zM11.43 3.81h1.52v1.52h-1.52ZM9.9 29.71h1.53v1.53H9.9Zm0-9.14h1.53v4.57H9.9Zm0-15.24h1.53v1.53H9.9ZM8.38 25.14H9.9v4.57H8.38Zm0-18.28H9.9v1.52H8.38ZM6.86 8.38h1.52V9.9H6.86ZM5.33 9.9h1.53v1.53H5.33ZM3.81 22.09h1.52v1.53H3.81Zm0-10.66h1.52v1.52H3.81Zm0-10.67v1.52H2.29v1.53h1.52v1.52h1.52V3.81h1.53V2.28H5.33V.76zM2.29 23.62h1.52v1.52H2.29Zm0-3.05h1.52v1.52H2.29Zm0-7.62h1.52V16H2.29ZM.76 22.09h1.53v1.53H.76Z"/></svg>