<svg xmlns="http://www.w3.org/2000/svg" viewBox="0 0 32 32"><desc>Interface Essential Link Streamline Icon: https://streamlinehq.com</desc><g fill="currentColor"><path d="M28.195 20.575h1.52v6.09h-1.52Zm-1.53 6.09h1.53v1.53h-1.53Zm0-7.61h1.53v1.52h-1.53Zm-1.52-1.53h1.52v1.53h-1.52Zm-4.57 10.67h6.09v1.52h-6.09Zm3.04-12.19h1.53v1.52h-1.53Zm-4.57-1.53h4.57v1.53h-4.57Zm0 12.19h1.53v1.53h-1.53Zm-1.52-1.52h1.52v1.52h-1.52Z"/><path d="M14.475 11.435h-3.05v3.04h1.53v1.53h1.52v1.52h1.53v1.53h1.52v1.52h3.05v-3.05h-1.53v-1.52h-1.52v-1.53h-1.52v-1.52h-1.53zm1.53 12.19h1.52v1.52h-1.52Zm0-15.24h1.52v4.57h-1.52Z"/><path d="M14.475 19.055h1.53v4.57h-1.53Zm0-12.19h1.53v1.52h-1.53Zm-1.52-1.53h1.52v1.53h-1.52Zm-1.53-1.52h1.53v1.52h-1.53Zm-3.04 12.19h4.57v1.52h-4.57Zm-1.53-1.53h1.53v1.53h-1.53Zm-1.52-12.19h6.09v1.53h-6.09Zm0 10.67h1.52v1.52h-1.52Zm-1.52-1.52h1.52v1.52h-1.52Zm0-7.62h1.52v1.52h-1.52Zm-1.53 1.52h1.53v6.1h-1.53Z"/></g></svg>