<svg xmlns="http://www.w3.org/2000/svg" viewBox="0 0 32 32"><desc>Map Navigation Location Focus Streamline Icon: https://streamlinehq.com</desc><path fill="currentColor" d="M27.43 15.24v-3.05h-1.52v7.62h1.52v-3.05H32v-1.52zm-3.05 4.57h1.53v3.05h-1.53Zm0-10.67h1.53v3.05h-1.53Zm-1.52 13.72h1.52v1.52h-1.52Zm0-15.24h1.52v1.52h-1.52Zm-3.05 16.76h3.05v1.53h-3.05Zm1.53-13.71h-3.05V9.14h-4.57v1.53h-3.05v3.04H9.14v4.58h1.53v3.04h3.05v1.53h4.57v-1.53h3.05v-3.04h1.52v-4.58h-1.52Zm-4.58 3.04h1.53v1.53h-1.53Zm-3.04 0h1.52v1.53h-1.52Zm6.09 4.58h-1.52v1.52h-4.57v-1.52h-1.53v-1.53h1.53v1.53h4.57v-1.53h1.52Zm0-12.19h3.05v1.52h-3.05Zm-7.62 19.81v1.52h3.05V32h1.52v-4.57h3.05v-1.52zM19.81 6.1V4.57h-3.05V0h-1.52v4.57h-3.05V6.1zM9.14 24.38h3.05v1.53H9.14Zm0-18.28h3.05v1.52H9.14ZM7.62 22.86h1.52v1.52H7.62Zm0-15.24h1.52v1.52H7.62ZM6.1 19.81h1.52v3.05H6.1Zm0-10.67h1.52v3.05H6.1Zm0 3.05H4.57v3.05H0v1.52h4.57v3.05H6.1z"/></svg>