<svg xmlns="http://www.w3.org/2000/svg" viewBox="0 0 32 32"><desc>Map Navigation Pin Location 2 Streamline Icon: https://streamlinehq.com</desc><g fill="currentColor"><path d="M28.955 25.9h1.52v3.05h-1.52Zm-3.05-1.52h3.05v1.52h-3.05Zm0 4.57h3.05v1.52h-3.05Zm-3.05-6.1h3.05v1.53h-3.05Zm1.53-16.76h1.52v7.62h-1.52ZM6.095 30.47h19.81V32H6.095Zm16.76-16.76h1.53v4.57h-1.53Zm0-10.67h1.53v3.05h-1.53Zm-1.52 15.24h1.52v3.05h-1.52Zm-1.52 3.05h1.52v3.05h-1.52Zm0-19.81h3.04v1.52h-3.04Zm-1.53 22.86h1.53v1.52h-1.53Zm0-18.29h1.53v1.52h-1.53Zm-1.52 19.81h1.52v1.52h-1.52Zm-1.53 1.52h1.53v1.53h-1.53Zm-1.52-1.52h1.52v1.52h-1.52ZM12.195 0h7.62v1.52h-7.62Zm0 24.38h1.52v1.52h-1.52Z"/><path d="M12.195 13.71h1.52v1.52h4.57v-1.52h1.53v-1.52h1.52V7.61h-1.52v3.05h-1.53V7.61h-1.52V6.09h1.52V4.57h-4.57v1.52h-1.52v1.52h-1.53v4.58h1.53zm-1.53 7.62h1.53v3.05h-1.53ZM9.145 1.52h3.05v1.52h-3.05Zm0 16.76h1.52v3.05h-1.52Zm-3.05 4.57h3.05v1.53h-3.05Zm1.52-9.14h1.53v4.57h-1.53Zm0-10.67h1.53v3.05h-1.53Zm-1.52 3.05h1.52v7.62h-1.52Zm-3.05 22.86h3.05v1.52h-3.05Zm0-4.57h3.05v1.52h-3.05Zm-1.52 1.52h1.52v3.05h-1.52Z"/></g></svg>