<svg xmlns="http://www.w3.org/2000/svg" viewBox="0 0 32 32"><desc>Map Navigation Compass Direction Streamline Icon: https://streamlinehq.com</desc><path fill="currentColor" d="M22.85 15.24h-1.52v-1.52h-1.52v-1.53h-1.53v-1.52h-1.52V9.14h-1.52V7.62h-1.53V6.1h-1.52v18.28h1.52v-1.52h1.53v-1.52h1.52v-1.53h1.52v-1.52h6.1v-1.53h-1.53Zm-7.61 3.05h-1.53v-6.1h1.53Zm15.23-6.1H32v7.62h-1.53Zm-1.52 7.62h1.52v3.05h-1.52Zm0-10.67h1.52v3.05h-1.52Zm-1.52 13.72h1.52v3.05h-1.52Zm0-16.76h1.52v3.04h-1.52ZM25.9 25.91h1.53v1.52H25.9Zm0-21.34h1.53V6.1H25.9Zm-3.05 22.86h3.05v1.52h-3.05Zm0-24.38h3.05v1.52h-3.05Zm-3.04 25.9h3.04v1.53h-3.04Zm0-27.42h3.04v1.52h-3.04Zm-7.62 28.95h7.62V32h-7.62Zm0-30.48h7.62v1.53h-7.62ZM9.14 28.95h3.05v1.53H9.14Zm0-27.42h3.05v1.52H9.14Zm-3.05 25.9h3.05v1.52H6.09Zm0-24.38h3.05v1.52H6.09ZM4.57 25.91h1.52v1.52H4.57Zm0-21.34h1.52V6.1H4.57ZM3.04 22.86h1.53v3.05H3.04Zm0-16.76h1.53v3.04H3.04ZM1.52 19.81h1.52v3.05H1.52Zm0-10.67h1.52v3.05H1.52ZM0 12.19h1.52v7.62H0Z"/></svg>