<svg xmlns="http://www.w3.org/2000/svg" viewBox="0 0 32 32"><desc>Map Navigation Pin Location 1 Streamline Icon: https://streamlinehq.com</desc><g fill="currentColor"><path d="M25.905 7.61h1.52v7.62h-1.52Zm-1.52 7.62h1.52v4.57h-1.52Zm0-10.66h1.52v3.04h-1.52Zm-1.53 15.23h1.53v3.05h-1.53Zm0-16.76h1.53v1.53h-1.53Zm-1.52 19.81h1.52v3.05h-1.52Zm0-10.66h-1.52V9.14h-1.53V7.61h-1.52V6.09h1.52V4.57h-4.57v1.52h-1.52v1.52h-1.53v1.53h-1.52v4.57h1.52v1.52h1.53v1.53h1.52v1.52h4.57v-1.52h1.53v-1.53h1.52v-1.52h1.52V9.14h-1.52zm-1.52 13.71h1.52v1.52h-1.52Z"/><path d="M19.815 7.61h1.52v1.53h-1.52Zm0-6.09h3.04v1.52h-3.04Zm-1.53 25.9h1.53v1.53h-1.53Zm0-21.33h1.53v1.52h-1.53Zm-1.52 22.86h1.52v1.52h-1.52Zm-1.53 1.52h1.53V32h-1.53Zm-1.52-1.52h1.52v1.52h-1.52ZM12.195 0h7.62v1.52h-7.62Zm0 27.42h1.52v1.53h-1.52Zm-1.53-1.52h1.53v1.52h-1.53ZM9.145 1.52h3.05v1.52h-3.05Zm0 21.33h1.52v3.05h-1.52Zm-1.53-3.05h1.53v3.05h-1.53Zm0-16.76h1.53v1.53h-1.53Zm-1.52 12.19h1.52v4.57h-1.52Zm0-10.66h1.52v3.04h-1.52Zm-1.52 3.04h1.52v7.62h-1.52Z"/></g></svg>