<svg xmlns="http://www.w3.org/2000/svg" viewBox="0 0 32 32"><desc>Money Payments Currency Euro Dollar Exchange Streamline Icon: https://streamlinehq.com</desc><path fill="currentColor" d="M30.47 4.57H32v7.62h-1.53Zm-1.52 7.62h1.52v1.52h-1.52Zm0-9.14h1.52v1.52h-1.52Zm-1.52 24.38v-4.57h3.04v-1.53h-1.52v-1.52h-1.52v-1.52H25.9v1.52h-1.52v1.52h-1.53v1.53h3.05v4.57zm0-13.72h1.52v1.53h-1.52Zm0-12.19h1.52v1.53h-1.52ZM25.9 9.14h1.53v1.53H25.9Zm-1.52 18.29h1.52v1.52h-1.52Zm-4.57-12.19h7.62v1.52h-7.62Zm1.52-7.62h4.57v1.52h-4.57Zm0 3.05v1.52h1.52v1.52h1.53v-1.52h1.52v-1.52zM25.9 6.1V4.57h-1.52V3.05h-1.53v1.52h-1.52V6.1zm-7.62 22.85h6.1v1.53h-6.1ZM19.81 0h7.62v1.52h-7.62Zm0 6.1h1.52v1.52h-1.52Zm-1.53 7.61h1.53v1.53h-1.53Zm0-12.19h1.53v1.53h-1.53Zm-1.52 10.67h1.52v1.52h-1.52Zm0-9.14h1.52v1.52h-1.52Zm-1.52 16.76h1.52v7.62h-1.52Zm0-15.24h1.52v7.62h-1.52Zm-1.53 22.86h1.53v1.52h-1.53Zm0-9.14h1.53v1.52h-1.53Zm-1.52 10.66h1.52v1.53h-1.52Zm0-12.19h1.52v1.53h-1.52ZM4.57 30.48h7.62V32H4.57ZM7.62 1.52h6.09v1.53H7.62Zm0 25.91h3.04v1.52H7.62Zm0-9.14h3.04v1.52H7.62Zm-1.53 9.14h1.53v-1.52h1.52v-1.53H6.09v-1.52h4.57v-1.53H7.62v-1.52H6.09v1.52H3.04v1.53h1.53v1.52H3.04v1.53h3.05zM4.57 15.24h7.62v1.52H4.57ZM6.09 3.05h1.53v1.52H6.09Zm-3.05 25.9h1.53v1.53H3.04Zm0-12.19h1.53v1.53H3.04Zm0-4.57h1.53v1.52h1.52v-1.52h1.53v-1.52h1.52V9.14H6.09V4.57H4.57v4.57H1.52v1.53h1.52zM1.52 27.43h1.52v1.52H1.52Zm0-9.14h1.52v1.52H1.52ZM0 19.81h1.52v7.62H0Z"/></svg>