<svg xmlns="http://www.w3.org/2000/svg" viewBox="0 0 32 32"><desc>Money Payments Accounting Bill Money 1 Streamline Icon: https://streamlinehq.com</desc><path fill="currentColor" d="M30.47 4.575H32v16.76h-1.53ZM0 27.425h32v1.53H0Zm0-3.04h32v1.52H0Zm1.52-3.05h28.95v1.52H1.52Zm25.91-3.05h1.52v1.52h-1.52Zm0-12.19h1.52v1.52h-1.52Zm-1.53 4.57h1.53v4.57H25.9v1.53h3.05v-7.62H25.9zm-1.52 7.62h-4.57v1.52h6.09v-3.04h-1.52zm0-6.1h1.52v1.53h-1.52Zm-4.57-6.09v1.52h4.57v1.53h1.52v-3.05zm3.04 7.62h1.53v1.52h-1.53Zm0-3.05h1.53v1.52h-1.53Zm-1.52 1.52h1.52v1.53h-1.52Zm-3.05 1.53h1.53v3.05h-1.53Zm0-4.57h1.53v1.52h-1.53Zm-1.52 4.57h1.52v-1.53h-1.52v-3.04h1.52v-1.53h-1.52v-1.52h-1.52v1.52h-1.53v1.53h1.53v3.04h-1.53v1.53h1.53v3.05h-1.53v1.52h1.53v1.52h1.52v-1.52h1.52v-1.52h-1.52zm-4.57 1.52h1.52v1.53h-1.52Zm0-6.09h1.52v3.04h-1.52Zm-4.57 9.14v-1.52H6.09v3.04h6.1v-1.52zm1.52-6.1h1.52v1.53H9.14Zm-1.52 1.53h1.52v1.52H7.62Zm0-3.05h1.52v1.52H7.62Zm-1.53 1.52h1.53v1.53H6.09Zm1.53-4.57h4.57v-1.52h-6.1v3.05h1.53zm-3.05 7.62v-4.57h1.52v-1.52H3.04v7.62h3.05v-1.53zm-1.53 3.05h1.53v1.52H3.04Zm0-12.19h1.53v1.52H3.04Zm-1.52-3.05h28.95v1.53H1.52ZM0 4.575h1.52v16.76H0Z"/></svg>