<svg xmlns="http://www.w3.org/2000/svg" viewBox="0 0 32 32"><desc>Money Payments Credit Card Mastercard Streamline Icon: https://streamlinehq.com</desc><g fill="currentColor"><path d="M30.47 23.62h-1.52v1.52H3.04v1.53h1.53v1.52h25.9v-1.52H32V8.38h-1.53z"/><path d="M27.43 5.33h1.52V22.1h-1.52Zm-4.58 4.58h-1.52V8.38h-1.52V6.86h-4.57v1.52h-1.53v1.53h1.53v1.52h1.52V16h-1.52v1.52h-1.53v1.53h1.53v1.52h4.57v-1.52h1.52v-1.53h1.52V16h1.53v-4.57h-1.53zM12.19 16h1.52v1.52h-1.52Zm0-6.09h1.52v1.52h-1.52Zm0 7.61h-1.53v1.53H9.14v1.52h4.57v-1.52h-1.52zm-1.53-4.57H9.14v1.53h1.52V16h1.53v-4.57h-1.53zm0-3.04h1.53V8.38h1.52V6.86H9.14v1.52h1.52zM9.14 16h1.52v1.52H9.14Zm0-6.09h1.52v1.52H9.14Zm-1.52 7.61h1.52v1.53H7.62Zm0-3.04h1.52V16H7.62Zm0-3.05h1.52v1.52H7.62Zm0-3.05h1.52v1.53H7.62ZM6.09 16h1.53v1.52H6.09Zm0-6.09h1.53v1.52H6.09Zm1.53 4.57v-1.53H6.09v-1.52H4.57V16h1.52v-1.52zM1.52 3.81h25.91v1.52H1.52Zm0 18.29h25.91v1.52H1.52ZM0 5.33h1.52V22.1H0Z"/></g></svg>