<svg xmlns="http://www.w3.org/2000/svg" viewBox="0 0 32 32"><desc>Money Payments Smartphone Pay Dollar Streamline Icon: https://streamlinehq.com</desc><g fill="currentColor"><path d="M27.425 12.19h1.53v7.62h-1.53Zm-1.52 7.62h1.52v1.52h-1.52Zm0-9.15h1.52v1.53h-1.52Zm-1.53 10.67h1.53v1.53h-1.53Zm0-12.19h1.53v1.52h-1.53Zm-1.52 19.81H4.575V3.05h4.57v1.52h9.14V3.05h4.57v3.04h1.52V1.52h-1.52V0H4.575v1.52h-1.53v28.95h1.53V32h18.28v-1.53h1.52V25.9h-1.52Zm-9.14-27.43h3.05v1.53h-3.05Zm-3.05 0h1.52v1.53h-1.52Z"/><path d="M22.855 16.76h1.52v1.52h-1.52Zm-6.09 6.1h7.61v1.52h-7.61Zm1.52-7.62h4.57v1.52h-4.57Zm0 3.04v1.53h1.52v1.52h1.53v-1.52h1.52v-1.53zm4.57-4.57v-1.52h-1.52v-1.53h-1.53v1.53h-1.52v1.52zm-6.09-6.09h7.61v1.52h-7.61Zm0 6.09h1.52v1.53h-1.52Zm-1.53 7.62h1.53v1.53h-1.53Zm0-12.19h1.53v1.52h-1.53Zm-1.52 10.67h1.52v1.52h-1.52Zm0-9.15h1.52v1.53h-1.52Zm-1.53 1.53h1.53v7.62h-1.53Z"/></g></svg>