<svg xmlns="http://www.w3.org/2000/svg" viewBox="0 0 32 32"><desc>Money Payments Cash Payment Coin Streamline Icon: https://streamlinehq.com</desc><g fill="currentColor"><path d="M7.62 29.715h12.19v1.52H7.62Zm12.19-1.52h4.57v1.52h-4.57Zm-4.57-1.53v-1.52H4.57v1.52H6.1v3.05h1.52v-3.05zm-3.05-4.57v-1.52H1.53v1.52h1.52v3.05h1.52v-3.05zM0 17.525h1.53v3.05H0Zm16.76-1.52h1.53v1.52h-1.53Zm-12.19 0h6.1v1.52h-6.1Zm10.67-3.05h1.52v3.05h-1.52Zm-4.57 1.52h1.52v1.53h-1.52Zm-7.62 0h1.52v1.53H3.05Zm4.57 0v-1.52h1.52v-1.53H4.57v1.53H6.1v1.52zm-6.09-1.52h1.52v1.52H1.53Zm12.19-3.05h1.52v3.05h-1.52ZM0 5.335h1.53v7.62H0ZM27.43 9.9v1.52h-1.52v1.53h1.52v13.71h-3.05v1.54h3.05v1.52H32V9.9Zm3.05 16.76h-1.53v-3.05h1.53Z"/><path d="M24.38 9.905h1.53v1.52h-1.53Zm-15.24 0h1.53v1.52H9.14Zm12.2-1.52h3.04v1.52h-3.04Zm-9.15 0h1.53v1.52h-1.53Zm-7.62 0h4.57v1.52H4.57Zm15.24-1.53h1.53v1.53h-1.53Zm-16.76 0h1.52v1.53H3.05Zm15.24-1.52h1.52v1.52h-1.52Zm-9.15 1.52v-1.52H7.62v-1.52H6.1v1.52H4.57v1.52zm7.62-3.04h1.53v1.52h-1.53Zm-6.09 0h1.52v4.57h-1.52Zm-9.14 0h1.52v1.52H1.53Z"/><path d="M12.19 2.285h4.57v1.53h-4.57Zm-9.14 0h1.52v1.53H3.05ZM4.57.765h6.1v1.52h-6.1Z"/></g></svg>