<svg xmlns="http://www.w3.org/2000/svg" viewBox="0 0 32 32"><desc>Money Payments Diamond Streamline Icon: https://streamlinehq.com</desc><g fill="currentColor"><path d="M30.47 28.95H32v1.53h-1.53Zm0-27.43h-1.52v1.53h-1.52v1.52h1.52V6.1h1.52V4.57H32V3.05h-1.53zm-1.52 21.34h1.52v1.52h-1.52Zm-1.52 1.52h1.52v1.53h-1.52Zm0-3.05h1.52v1.53h-1.52Zm0-6.09h1.52v1.52h-1.52Zm0-6.1h1.52v1.53h-1.52ZM25.9 22.86h1.53v1.52H25.9Zm0-6.1h1.53v1.53H25.9Zm0-9.14h1.53v1.52H25.9Zm-1.52 10.67h1.52v1.52h-1.52Zm0-12.19h1.52v1.52h-1.52Zm0 25.9v-1.52h1.52v-1.53h-1.52v-1.52h-1.53v1.52h-1.52v1.53h1.52V32zm-1.53-12.19h1.53v1.52h-1.53Zm-1.52 1.52h1.52v1.53h-1.52Zm0-6.09h1.52v1.52h-1.52Zm0-6.1h1.52v1.53h-1.52Zm0-7.62h1.52v1.53h-1.52Zm-1.52 21.34h1.52v1.52h-1.52Zm0-6.1h1.52v3.05h-1.52Zm0-9.14h1.52v1.52h-1.52Z"/><path d="M18.28 19.81h1.53v3.05h-1.53Zm0 3.05h-1.52v4.57h1.52v-1.52h1.53v-1.53h-1.53zM16.76 0h1.52v1.52h-1.52Zm-3.05 27.43h3.05v1.52h-3.05Zm0-4.57h-1.52v1.52h-1.53v1.53h1.53v1.52h1.52zm-3.05-3.05h1.53v3.05h-1.53Zm-1.52 3.05h1.52v1.52H9.14Zm0-6.1h1.52v3.05H9.14Zm0-9.14h1.52v1.52H9.14Zm0-6.1h1.52v1.53H9.14ZM7.62 27.43h1.52v1.52H7.62Zm0-6.1h1.52v1.53H7.62Zm0-6.09h1.52v1.52H7.62Zm0-6.1h1.52v1.53H7.62Zm3.04-3.04v1.52h1.53V6.1h6.09v1.52h1.53V6.1h4.57V4.57H6.09V6.1zM6.09 19.81h1.53v1.52H6.09Zm-1.52-1.52h1.52v1.52H4.57Zm0-12.19h1.52v1.52H4.57ZM3.04 24.38h1.53v1.53H3.04Zm0-7.62h1.53v1.53H3.04Zm0-9.14h1.53v1.52H3.04ZM1.52 30.48h1.52V32H1.52Zm0-4.57h1.52v1.52H1.52Zm0-3.05h1.52v1.52H1.52Zm0-7.62h1.52v1.52H1.52Zm0-1.53h4.57v1.53h1.53v-1.53h15.23v1.53h1.53v-1.53h4.57v1.53h1.52v-4.57h-1.52v1.52h-4.57v-1.52h-1.53v1.52H7.62v-1.52H6.09v1.52H1.52v-1.52H0v4.57h1.52zm0-4.57h1.52v1.53H1.52Zm0-4.57h1.52V3.05h1.53V1.52H3.04V0H1.52v1.52H0v1.53h1.52zM0 24.38h1.52v1.53H0Z"/></g></svg>