<svg xmlns="http://www.w3.org/2000/svg" viewBox="0 0 32 32"><desc>Money Payments Self Payment Streamline Icon: https://streamlinehq.com</desc><g fill="currentColor"><path d="M16.765 22.85v-1.52h10.67v-1.52H4.575v1.52h10.67v1.52H1.525V32h28.95v-9.15Zm12.19 7.62h-25.9v-6.09h25.9Zm-1.52-28.95h1.52v18.29h-1.52Zm-3.05 9.14h1.52v3.05h-1.52Zm0-4.57h1.52v1.53h-1.52Z"/><path d="M6.095 27.42h19.81v1.53H6.095Zm16.77-22.85V3.04h-1.53v1.53h-1.52v1.52h1.52v3.05h-1.52v1.52h1.52v3.05h-1.52v1.52h1.52v1.53h1.53v-1.53h1.52v-1.52h-1.52v-3.05h1.52V9.14h-1.52V6.09h1.52V4.57z"/><path d="M18.285 12.19h1.53v1.52h-1.53Zm0-6.1h1.53v3.05h-1.53Zm-3.04 9.14h1.52v1.53h-1.52Zm0-3.04h1.52v1.52h-1.52Zm-4.58 3.04h3.05v1.53h-3.05Zm0-3.04h3.05v1.52h-3.05Zm-4.57 3.04h3.05v1.53h-3.05Zm0-3.04h3.05v1.52h-3.05Zm.005-1.53h10.67V3.04H6.1Zm6.1-6.09h1.52v1.52H12.2Zm-3.05 0h1.52v1.52H9.145Zm0 3.05h4.57v1.52H9.145ZM4.575 0h22.86v1.52H4.575Zm-1.52 1.52h1.52v18.29h-1.52Z"/></g></svg>