<svg xmlns="http://www.w3.org/2000/svg" viewBox="0 0 32 32"><desc>Money Payments Accounting Bill Money 2 Streamline Icon: https://streamlinehq.com</desc><g fill="currentColor"><path d="M30.47 6.1H32v1.52h-1.53Zm-1.52 9.14v1.52h-1.52v1.53h1.52v1.52h-1.52v1.52h1.52v1.53h-1.52v1.52h3.04V12.19h-1.52v1.52h-1.52v1.53zM25.9 4.57h4.57V6.1H25.9Zm0 3.05v1.52h1.53v1.53h1.52V9.14h1.52V7.62zm4.57-4.57V1.52h-1.52V0h-1.52v1.52H25.9v1.53zm-6.09 9.14h3.05v1.52h-3.05Z"/><path d="M10.66 15.24h3.05v1.52h1.53v1.53h3.04v1.52h-3.04v1.52h3.04v1.53h-3.04v1.52h3.04v1.53h-3.04v1.52h3.04v1.52h3.05v-1.52h3.05v-1.52h3.05v-1.53h-3.05v-1.52h3.05v-1.53h-3.05v-1.52h3.05v-1.52h-3.05v-1.53h3.05v-1.52h-3.05v-1.53h-3.05v-1.52h-3.05v-1.52h-3.04V9.14h-3.05v1.53H9.14v1.52H6.09v1.52h4.57zM24.38 3.05h1.52v1.52h-1.52Zm-3.05 4.57h3.05v1.52h-3.05ZM18.28 6.1h3.05v1.52h-3.05Zm-3.04 1.52h3.04v1.52h-3.04Z"/><path d="M15.24 28.95h3.04v1.53h-3.04ZM13.71 4.57h1.53V6.1h-1.53Z"/><path d="M13.71 28.95h1.53v-1.52h-1.53v-1.52h1.53v-1.53h-1.53v-1.52h1.53v-1.53h-1.53v-1.52h1.53v-1.52h-3.05v1.52H9.14v1.52h3.05v1.53H9.14v1.52h3.05v1.53H9.14v1.52h3.05v1.52H9.14v1.53h3.05V32h3.05v-1.52h-1.53zM10.66 0h3.05v1.52h-3.05Zm0 6.1h3.05v1.52h-3.05Zm0-3.05h3.05v1.52h-3.05ZM9.14 1.52h1.52v1.53H9.14ZM6.09 27.43h3.05v1.52H6.09Zm0-9.14h3.05v1.52H6.09Zm0 6.09h3.05v1.53H6.09Zm0-3.05h3.05v1.53H6.09Zm0-15.23h1.53v1.52H6.09ZM3.04 25.91h3.05v1.52H3.04Zm0-3.05h3.05v1.52H3.04Zm0-3.05h3.05v1.52H3.04Zm0-3.05h3.05v1.53H3.04Zm0-3.05h3.05v1.53H3.04ZM1.52 7.62v1.52h1.52v1.53h1.53V9.14h1.52V7.62zm4.57-4.57V1.52H4.57V0H3.04v1.52H1.52v1.53zM3.04 24.38H1.52v-1.52h1.52v-1.53H1.52v-1.52h1.52v-1.52H1.52v-1.53h1.52v-1.52H0v10.67h3.04zM1.52 4.57h4.57V6.1H1.52ZM0 3.05h1.52v1.52H0Z"/></g></svg>