<svg xmlns="http://www.w3.org/2000/svg" viewBox="0 0 32 32"><desc>Phone Scan Qr Code 2 Streamline Icon: https://streamlinehq.com</desc><g fill="currentColor"><path d="M27.43 15.23H32v1.53h-4.57Zm0 7.62h1.52v4.57h-1.52Zm0-18.28h1.52v4.57h-1.52Zm-4.57 22.85h4.57v1.53h-4.57Zm0-24.38h4.57v1.53h-4.57Zm1.52 16.77h-4.57v4.57h4.57Zm-1.52 3.04h-1.53v-1.52h1.53Zm0-9.14h1.52v4.57h-1.52Zm-3.05-1.52h4.57V7.62h-4.57Zm1.52-3.05h1.53v1.52h-1.53Zm-1.52 7.62h-3.05v1.52h4.57v-4.57h-1.52zm-3.05 6.09h1.52v1.53h-1.52Zm-1.52 4.57h1.52V32h-1.52Z"/><path d="M13.71 19.81v4.57h1.53v-3.05h3.04v-1.52zm0-7.62h3.05v3.04h1.52v-4.57h-4.57zm0-4.57h4.57v1.52h-4.57ZM15.24 0h1.52v4.57h-1.52Z"/><path d="M13.71 13.71h1.53v4.57h-1.53Zm-3.04-3.05h1.52v3.05h-1.52Zm-3.05 9.15v4.57h4.57v-4.57Zm3.05 3.04H9.14v-1.52h1.53Zm-1.53-9.14H7.62v4.57h1.52v-1.52h3.05v-1.53H9.14z"/><path d="M7.62 7.62v4.57h1.52V9.14h3.05V7.62zm-3.05 19.8h4.57v1.53H4.57Zm0-24.38h4.57v1.53H4.57ZM3.05 22.85h1.52v4.57H3.05ZM0 15.23h4.57v1.53H0ZM3.05 4.57h1.52v4.57H3.05Z"/></g></svg>