<svg xmlns="http://www.w3.org/2000/svg" viewBox="0 0 32 32"><desc>Phone Off 1 Streamline Icon: https://streamlinehq.com</desc><g fill="currentColor"><path d="M30.48 3.05H32v25.9h-1.52Zm-1.53 25.9h1.53v1.52h-1.53Zm-1.52-9.14h1.52v4.57h-1.52ZM3.05 30.47h25.9V32H3.05ZM25.9 18.28h1.53v1.53H25.9Zm-1.52 3.05h1.52v3.05h-1.52Zm0-4.57h1.52v1.52h-1.52Zm-1.52 3.05h1.52v1.52h-1.52Zm-1.53-4.57h3.05v1.52h-3.05Zm0 7.61h1.53v1.53h-1.53Zm-1.52-4.57h3.05v1.53h-3.05Zm0 3.05h1.52v1.52h-1.52Zm-3.05-1.52h1.52v6.09h-1.52Zm0-13.72h1.52v4.57h-1.52ZM15.24 25.9h1.52v1.53h-1.52Zm0-7.62h1.52v1.53h-1.52Zm0-13.71h1.52v1.52h-1.52Zm-3.05 7.62h3.05v1.52h-3.05ZM9.14 27.43h6.1v1.52h-6.1Zm3.05-1.53h1.52v-1.52h1.53v-3.05h-3.05zm1.52-19.81h-1.52v4.57h3.05V7.62h-1.53zm-3.04 7.62h1.52v3.05h-1.52ZM9.14 3.05h6.1v1.52h-6.1ZM7.62 25.9h1.52v1.53H7.62Zm0-21.33h1.52v1.52H7.62ZM6.09 6.09h1.53v3.05H6.09ZM4.57 9.14h1.52v13.71H4.57Z"/><path d="M4.57 28.95v-1.52h1.52V25.9h1.53v-1.52h1.52v-1.53h1.53v-1.52h1.52v-1.52h1.52v-1.53h1.53v-1.52h1.52v-1.52h1.52v-1.53h1.53v-1.52h1.52v-1.53h1.53V9.14h1.52V7.62h1.52V6.09h1.53V4.57h1.52V3.05h1.53V1.52h-1.53V0H3.05v1.52h24.38v1.53H25.9v1.52h-1.52v1.52h-1.52v1.53h-1.53v1.52h-1.52v1.52h-1.53v1.53h-1.52v1.52h-1.52v1.53h-1.53v1.52h-1.52v1.52h-1.52v1.53H9.14v1.52H7.62v1.52H6.09v1.53H4.57v1.52H3.05v1.53H1.52V3.05H0v25.9h1.52v1.52h1.53v-1.52z"/><path d="M1.52 1.52h1.53v1.53H1.52Z"/></g></svg>