<svg xmlns="http://www.w3.org/2000/svg" viewBox="0 0 32 32"><desc>Phone Signal Full Streamline Icon: https://streamlinehq.com</desc><g fill="currentColor"><path d="M28.955 3.81h-3.05v1.52h1.52v21.33h-1.52v1.53h3.05v-1.53h1.52V5.33h-1.52z"/><path d="M24.385 5.33h1.52v21.33h-1.52Zm-3.05 3.05h-3.05V9.9h1.52v16.76h-1.52v1.53h3.05v-1.53h1.52V9.9h-1.52zm-4.57 1.52h1.52v16.76h-1.52Zm-3.05 3.05h-3.05v1.52h1.53v12.19h-1.53v1.53h3.05v-1.53h1.52V14.47h-1.52zm-4.57 1.52h1.52v12.19h-1.52Zm-3.05 3.05h-3.05v1.52h1.53v7.62h-1.53v1.53h3.05v-1.53h1.52v-7.62h-1.52zm-4.57 1.52h1.52v7.62h-1.52Z"/></g></svg>