<svg xmlns="http://www.w3.org/2000/svg" viewBox="0 0 32 32"><desc>Phone Off 2 Streamline Icon: https://streamlinehq.com</desc><g fill="currentColor"><path d="M28.955 18.28h-1.53v3.05h-1.52v1.52h-1.53v1.53h1.53v1.52h1.52v3.05h1.53v-1.53h1.52v-7.61h-1.52z"/><path d="M24.375 27.42h-1.52V25.9h-1.52v1.52h-1.53v1.53h-3.05v1.52h1.53V32h7.62v-1.53h1.52v-1.52h-3.05zm-4.57-7.61h1.53v1.52h1.52v-1.52h1.52v-1.53h3.05v-1.52h-1.52v-1.53h-7.62v1.53h-1.53v1.52h3.05zm-1.52 6.09v-1.52h1.52v-1.53h-1.52v-1.52h-1.53v-3.05h-1.52v1.53h-1.52v7.61h1.52v1.53h1.52V25.9zm-4.57-22.86h1.52v6.1h-1.52Zm-3.05 6.1h3.05v1.52h-3.05Zm1.52-7.62h1.53v1.52h-1.53Zm-1.52 18.29h1.52v1.52h-1.52ZM6.095 0h6.09v1.52h-6.09Zm3.05 27.42h1.52V25.9h1.52v-3.05h-3.04zm0-16.76h1.52v9.15h-1.52Zm0-7.62v4.58h3.04V4.57h-1.52V3.04zm-3.05 25.91h6.09v1.52h-6.09Z"/><path d="M4.565 27.42h1.53v1.53h-1.53Zm0-25.9h1.53v1.52h-1.53Zm-1.52 22.86h1.52v3.04h-1.52Zm0-21.34h1.52v3.05h-1.52Zm-1.52 3.05h1.52v18.29h-1.52Z"/></g></svg>