<svg xmlns="http://www.w3.org/2000/svg" viewBox="0 0 32 32"><desc>Phone Vibrate Streamline Icon: https://streamlinehq.com</desc><g fill="currentColor"><path d="M29.71 24.38h1.53v1.52h-1.53Zm0-6.1h1.53v1.53h-1.53Zm0-6.09h1.53v1.52h-1.53Zm0-6.1h1.53v1.53h-1.53Zm-1.52 16.76h1.52v1.53h-1.52Zm0-3.04h1.52v1.52h-1.52Zm0-3.05h1.52v1.52h-1.52Zm0-3.05h1.52v1.52h-1.52Zm0-3.05h1.52v1.53h-1.52Zm0-3.04h1.52v1.52h-1.52Zm-1.53 13.71h1.53v1.52h-1.53Zm0-6.1h1.53v1.53h-1.53Zm0-6.09h1.53v1.52h-1.53ZM8.38 32h15.24v-1.53h1.52V1.52h-1.52V0H8.38v1.52H6.85v28.95h1.53ZM16 1.52h3.04v1.52H16Zm-3.05 0h1.52v1.52h-1.52ZM8.38 3.04h3.05v1.53h9.14V3.04h3.05v25.91H8.38Z"/><path d="M20.57 19.81h1.52v1.52h-1.52Zm-1.53-4.58h1.53v1.53h-1.53Zm0-3.04h1.53v1.52h-1.53Zm-1.52 9.14h3.05v1.52h-3.05Zm0-7.62h1.52v1.52h-1.52Zm-3.05 6.1h3.05v1.52h-3.05Zm-1.52-6.1h1.52v1.52h-1.52Zm-1.52 7.62h3.04v1.52h-3.04Zm0-6.1h1.52v1.53h-1.52Zm0-3.04h1.52v1.52h-1.52ZM9.9 19.81h1.53v1.52H9.9Zm-6.09 1.52h1.52v1.52H3.81Zm0-6.1h1.52v1.53H3.81Zm0-6.09h1.52v1.52H3.81ZM2.28 22.85h1.53v1.53H2.28Zm0-3.04h1.53v1.52H2.28Zm0-3.05h1.53v1.52H2.28Zm0-3.05h1.53v1.52H2.28Zm0-3.05h1.53v1.53H2.28Zm0-3.04h1.53v1.52H2.28Z"/><path d="M.76 24.38h1.52v1.52H.76Zm0-6.1h1.52v1.53H.76Zm0-6.09h1.52v1.52H.76Zm0-6.1h1.52v1.53H.76Z"/></g></svg>