<svg xmlns="http://www.w3.org/2000/svg" viewBox="0 0 32 32"><desc>School Science Graduation Cap Streamline Icon: https://streamlinehq.com</desc><g fill="currentColor"><path d="M30.47 7.61h-1.52v3.05H25.9v1.53h-3.05v1.52h3.05v4.57h-1.52v1.53h1.52v3.04h1.52V12.19h1.53V25.9h-1.53V32H32v-6.1h-1.53zM25.9 6.09h3.05v1.52H25.9Z"/><path d="M24.38 22.85h1.52v1.53h-1.52ZM19.8 9.14h6.1v1.52h-6.1Zm3.05-4.57h3.05v1.52h-3.05Zm-1.52 19.81h3.05v1.52h-3.05Zm0-4.57h3.05v1.52h-3.05Zm-1.53-6.1h3.05v1.52H19.8Zm0-10.67h3.05v1.53H19.8ZM9.14 25.9h12.19v1.52H9.14Zm0-4.57h12.19v1.52H9.14Zm7.62-6.1h3.04v1.53h-3.04Zm-3.05-7.62h6.09v1.53h-6.09Zm3.05-6.09h3.04v1.52h-3.04ZM13.71 0h3.05v1.52h-3.05Zm0 16.76h3.05v1.52h-3.05ZM10.66 1.52h3.05v1.52h-3.05Zm0 13.71h3.05v1.53h-3.05ZM7.61 3.04h3.05v1.53H7.61ZM6.09 24.38h3.05v1.52H6.09Zm0-4.57h3.05v1.52H6.09Zm1.52-6.1h3.05v1.52H7.61ZM4.57 4.57h3.04v1.52H4.57Zm0 18.28h1.52v1.53H4.57Zm1.52-3.04v-1.53H4.57v-4.57h3.04v-1.52H4.57v-1.53H1.52v1.53h1.52v10.66h1.53v-3.04zM1.52 6.09h3.05v1.52H1.52ZM0 7.61h1.52v3.05H0Z"/></g></svg>