<svg xmlns="http://www.w3.org/2000/svg" viewBox="0 0 32 32"><desc>Search Coding Streamline Icon: https://streamlinehq.com</desc><path fill="currentColor" d="M29.72 23.625h-1.53V22.1h-1.52v-1.52h-1.53v-3.05h-1.52v3.05H22.1v1.52h-1.53v1.53h-3.04v1.52h3.04v1.52h1.53v1.53h1.52v1.52h1.52v1.52h4.58v-1.52h1.52v-4.57h-1.52Zm0 4.57h-1.53v-1.53h-1.52v-1.52h-1.53v-1.52h1.53v1.52h1.52v1.52h1.53Zm-4.58-18.29h1.53v7.62h-1.53Zm-1.52-3.05h1.52v3.05h-1.52Zm-1.52-1.52h1.52v1.52H22.1Zm-1.53 7.62h1.53v1.52h-1.53Zm0-9.14h1.53v1.52h-1.53Zm-1.52 10.66h1.52v1.53h-1.52Zm0-3.05h1.52v1.53h-1.52Zm-1.52 4.58h1.52v1.52h-1.52Zm0-6.1h1.52v1.52h-1.52Zm0-7.62h3.04v1.53h-3.04Zm-7.62 22.86h7.62v1.52H9.91Zm4.57-15.24H16v3.05h-1.52Zm-1.53 3.05h1.53v1.52h-1.53Zm-1.52 1.52h1.52v3.05h-1.52ZM9.91.765h7.62v1.52H9.91Zm-3.05 22.86h3.05v1.52H6.86Zm1.52-7.62h1.53v1.52H8.38Zm0-6.1h1.53v1.52H8.38Zm-1.52-7.62h3.05v1.53H6.86Zm0 12.19h1.52v1.53H6.86Zm0-3.05h1.52v1.53H6.86Zm-1.52 10.67h1.52v1.53H5.34Zm0-9.14h1.52v1.52H5.34Zm0-9.14h1.52v1.52H5.34Zm-1.53 16.76h1.53v1.52H3.81Zm0-15.24h1.53v1.52H3.81Zm-1.52 12.19h1.52v3.05H2.29Zm0-10.67h1.52v3.05H2.29ZM.76 9.905h1.53v7.62H.76Z"/></svg>