<svg xmlns="http://www.w3.org/2000/svg" viewBox="0 0 32 32"><desc>Vintage Phone Streamline Icon: https://streamlinehq.com</desc><g fill="currentColor"><path d="M29.715 4.57h1.52v4.57h-1.52Zm-1.52 15.23h1.52v9.15h-1.52Zm0-16.76h1.52v1.53h-1.52Zm-1.53 25.91h1.53v1.52h-1.53Zm0-12.19h1.53v3.04h-1.53Zm-1.52-7.62h4.57v1.52h-4.57Zm1.52-7.62h1.53v1.52h-1.53Zm-1.52 13.71h1.52v1.53h-1.52ZM5.335 30.47h21.33V32H5.335Zm18.29-24.38h1.52v3.05h-1.52ZM8.385 4.57h15.24v1.52H8.385Zm12.19 15.23h1.52v6.1h-1.52Zm-1.53 6.1h1.53v1.52h-1.53Zm0-7.62h1.53v1.52h-1.53Zm-6.09 9.14h6.09v1.53h-6.09Zm4.57-7.62h-3.05v1.53h-1.52v3.05h1.52v1.52h3.05v-1.52h1.52v-3.05h-1.52zm-4.57-3.04h6.09v1.52h-6.09Zm-1.52 9.14h1.52v1.52h-1.52Zm0-7.62h1.52v1.52h-1.52Zm-1.53 1.52h1.53v6.1h-1.53Zm0-7.61h3.05v3.04h6.09v-3.04h3.05v3.04h3.05v-1.52h-1.52v-3.05h-6.1v3.05h-3.05v-3.05h-6.09v3.05h-1.53v1.52h3.05zm-3.05-6.1h1.53v3.05h-1.53ZM5.335 0h21.33v1.52H5.335Zm0 15.23h1.52v1.53h-1.52Zm-1.52 13.72h1.52v1.52h-1.52Zm0-12.19h1.52v3.04h-1.52Zm-1.53-7.62h4.57v1.52h-4.57Zm1.53-7.62h1.52v1.52h-1.52Z"/><path d="M2.285 19.8h1.53v9.15h-1.53Zm0-16.76h1.53v1.53h-1.53ZM.765 4.57h1.52v4.57H.765Z"/></g></svg>